<svg xmlns="http://www.w3.org/2000/svg" xmlns:xlink="http://www.w3.org/1999/xlink" viewBox="0 0 154.94 130.54"><defs><style>.cls-1{fill:#c5ccd4;}.cls-2{fill:none;}.cls-3{isolation:isolate;}.cls-4{opacity:0.2;fill:url(#Безымянный_градиент_323);}.cls-17,.cls-4,.cls-48,.cls-57{mix-blend-mode:multiply;}.cls-5{fill:#1a1a1a;}.cls-6{fill:url(#Безымянный_градиент_300);}.cls-7{fill:#0e3c87;}.cls-8{fill:#005e9c;}.cls-9{fill:#0071bc;}.cls-10{fill:url(#Безымянный_градиент_267);}.cls-11{fill:url(#Pewter);}.cls-12{fill:url(#Pewter-2);}.cls-13{fill:url(#Безымянный_градиент_292);}.cls-14{fill:url(#Безымянный_градиент_292-2);}.cls-15{fill:#124fb0;}.cls-16{fill:#8cd7ff;}.cls-17{fill:#dbdad9;}.cls-18{fill:#b8bfc9;}.cls-19{fill:#aeb5bf;}.cls-20{clip-path:url(#clip-path);}.cls-21{fill:#bcc4cc;}.cls-22{fill:#e3e7eb;}.cls-23{fill:#585d63;}.cls-24{fill:#35383d;}.cls-25{opacity:0.19;}.cls-26{clip-path:url(#clip-path-2);}.cls-27{fill:#dce7ea;}.cls-28{fill:#4e5b61;}.cls-29{fill:#283033;}.cls-30{fill:#ebf9ff;}.cls-31{fill:#acb9bd;}.cls-32{fill:#bacdd6;}.cls-33{mix-blend-mode:screen;fill:url(#Безымянный_градиент_59);}.cls-34{fill:#ebebeb;}.cls-35{fill:#59727d;}.cls-36{fill:#60747a;}.cls-37{fill:#eafaff;}.cls-38{fill:#f0f4fa;}.cls-39{fill:#344045;}.cls-40{fill:#e7a994;}.cls-41{fill:#e7967a;}.cls-42{fill:#fff;}.cls-43{fill:#2e1a07;}.cls-44{fill:url(#Безымянный_градиент_292-3);}.cls-45{fill:#2b1e10;}.cls-46{fill:url(#Безымянный_градиент_292-4);}.cls-47{fill:#021924;}.cls-48{fill:#b6c2ed;}.cls-49{fill:url(#Безымянный_градиент_50);}.cls-50{fill:url(#Безымянный_градиент_79);}.cls-51{fill:#c7bcf7;}.cls-52{fill:#c9aafa;}.cls-53{fill:#f3edff;}.cls-54{fill:#5a62c4;}.cls-55{fill:url(#Безымянный_градиент_50-2);}.cls-56{fill:url(#Безымянный_градиент_49);}.cls-57{fill:#c6c7f2;}.cls-58{fill:#dd946c;}.cls-59{fill:url(#Безымянный_градиент_267-2);}.cls-60{fill:url(#Безымянный_градиент_80);}.cls-61{fill:#1a2c3b;}.cls-62{fill:#d1865c;}.cls-63{fill:url(#Безымянный_градиент_267-3);}.cls-64{fill:#534741;}</style><radialGradient id="Безымянный_градиент_323" cx="84.94" cy="80.92" r="104.9" gradientUnits="userSpaceOnUse"><stop offset="0.42" stop-color="#4f298c"/><stop offset="0.47" stop-color="#543090"/><stop offset="0.56" stop-color="#64429a"/><stop offset="0.66" stop-color="#7d61aa"/><stop offset="0.77" stop-color="#a08cc1"/><stop offset="0.88" stop-color="#cdc2de"/><stop offset="1" stop-color="#fff"/></radialGradient><linearGradient id="Безымянный_градиент_300" x1="58.14" y1="61.97" x2="58.58" y2="82.44" gradientUnits="userSpaceOnUse"><stop offset="0.1" stop-color="#0e3244"/><stop offset="0.36" stop-color="#11374a"/><stop offset="0.72" stop-color="#19465c"/><stop offset="0.99" stop-color="#21566e"/></linearGradient><linearGradient id="Безымянный_градиент_267" x1="43.42" y1="39.57" x2="63.57" y2="68.16" gradientUnits="userSpaceOnUse"><stop offset="0.01" stop-color="#1a2c3b"/><stop offset="1" stop-color="#21566e"/></linearGradient><linearGradient id="Pewter" x1="85.34" y1="90.88" x2="92.19" y2="90.88" gradientUnits="userSpaceOnUse"><stop offset="0.03" stop-color="#9b9b98"/><stop offset="0.13" stop-color="#a4a5a7"/><stop offset="0.22" stop-color="#aeb0b7"/><stop offset="0.35" stop-color="#9fa3aa"/><stop offset="0.61" stop-color="#788187"/><stop offset="0.72" stop-color="#657076"/><stop offset="1" stop-color="#8b949a"/></linearGradient><linearGradient id="Pewter-2" x1="56.18" y1="76.2" x2="63.04" y2="76.2" xlink:href="#Pewter"/><linearGradient id="Безымянный_градиент_292" x1="-199.47" y1="105.84" x2="-153.14" y2="77.81" gradientTransform="matrix(-1, 0, 0, 1, -73.5, 0)" gradientUnits="userSpaceOnUse"><stop offset="0" stop-color="#2b1a08"/><stop offset="0.56" stop-color="#3b2612"/><stop offset="1" stop-color="#4a321b"/></linearGradient><linearGradient id="Безымянный_градиент_292-2" x1="-168.84" y1="85.96" x2="-216.46" y2="96.65" xlink:href="#Безымянный_градиент_292"/><clipPath id="clip-path"><path class="cls-1" d="M92,64.42v0s.79.07.83.09l.07.09.75-.43a.3.3,0,0,1,.26,0h0a.3.3,0,0,0,.26,0L109,55.6a.08.08,0,0,0,0-.15.08.08,0,0,1,0-.15l1.59-.92a.3.3,0,0,1,.26,0l10.6,6.12,1-.06a2.77,2.77,0,0,1,0,.84v0a.45.45,0,0,1-.23.25L104.52,71.75a1.25,1.25,0,0,1-1.13,0L92.06,65.21a.12.12,0,0,1,0,0s0,0,0,0A2.85,2.85,0,0,1,92,64.42Z"/></clipPath><clipPath id="clip-path-2"><path class="cls-2" d="M107.29,40.44c0-.27-.19-.38-.42-.24L89.24,50.37a.92.92,0,0,0-.41.71L92,64.15l18.45-10.66Z"/></clipPath><linearGradient id="Безымянный_градиент_59" x1="-69.28" y1="-371.11" x2="-79.8" y2="-353.19" gradientTransform="matrix(-0.87, 0.5, 0, 1, 38.07, 446.95)" gradientUnits="userSpaceOnUse"><stop offset="0" stop-color="#333740"/><stop offset="1"/></linearGradient><linearGradient id="Безымянный_градиент_292-3" x1="-220.81" y1="74.35" x2="-192.68" y2="74.35" xlink:href="#Безымянный_градиент_292"/><linearGradient id="Безымянный_градиент_292-4" x1="-214.67" y1="69.63" x2="-179.24" y2="69.63" xlink:href="#Безымянный_градиент_292"/><linearGradient id="Безымянный_градиент_50" x1="-271.94" y1="118.48" x2="-239.26" y2="118.48" gradientTransform="matrix(-1, 0.03, 0.03, 1, -182.19, -62.52)" gradientUnits="userSpaceOnUse"><stop offset="0" stop-color="#cfbef7"/><stop offset="1" stop-color="#8a92f7"/></linearGradient><linearGradient id="Безымянный_градиент_79" x1="-259.4" y1="113.55" x2="-240.99" y2="135.03" gradientTransform="matrix(-1, 0.03, 0.03, 1, -182.19, -62.52)" gradientUnits="userSpaceOnUse"><stop offset="0" stop-color="#ecdbff"/><stop offset="1" stop-color="#adb5ff"/></linearGradient><linearGradient id="Безымянный_градиент_50-2" x1="-275.9" y1="114.91" x2="-251.87" y2="114.91" xlink:href="#Безымянный_градиент_50"/><linearGradient id="Безымянный_градиент_49" x1="-265.14" y1="108.42" x2="-262.1" y2="129.05" gradientTransform="matrix(-1, 0.03, 0.03, 1, -182.19, -62.52)" gradientUnits="userSpaceOnUse"><stop offset="0" stop-color="#f1e0ff"/><stop offset="1" stop-color="#adb5ff"/></linearGradient><linearGradient id="Безымянный_градиент_267-2" x1="57.08" y1="21.34" x2="76" y2="48.19" xlink:href="#Безымянный_градиент_267"/><linearGradient id="Безымянный_градиент_80" x1="42.86" y1="18.86" x2="56.05" y2="47.92" gradientUnits="userSpaceOnUse"><stop offset="0" stop-color="#21566e"/><stop offset="0.99" stop-color="#1a2c3b"/></linearGradient><linearGradient id="Безымянный_градиент_267-3" x1="71.6" y1="50.12" x2="37.03" y2="23.67" xlink:href="#Безымянный_градиент_267"/></defs><title>face_to_face</title><g class="cls-3"><g id="Layer_2" data-name="Layer 2"><g id="Слой_1" data-name="Слой 1"><path class="cls-4" d="M24.6,49.25C1.74,55.79-.28,65.43,0,67a21.69,21.69,0,0,0,1.86,4.35s86.64,49.77,91.46,52.73,40.91,7.93,47.28,6.06,12-8.55,13.07-9.95,3.89-23.33-5.6-32.51S44,47.39,38.29,47.08,24.6,49.25,24.6,49.25Z"/><path class="cls-5" d="M48.76,72.17c-2.43.51-4.63,1.64-3.75,3s.77,3.6,1.54,4.21S50,81.71,50.63,81.2c1.65-1.33-1.21-2.87.11-4.72C51.92,74.83,48.76,72.17,48.76,72.17Z"/><path class="cls-6" d="M56.05,65.13c-4.11,3.09-7.53,6.08-10.09,8.3a5.66,5.66,0,0,0,3.1,3.24c4.68,1.18,21.6-10.28,21.6-10.28L59.29,63.27Z"/><path class="cls-7" d="M35.46,55.86c-3.81,15.77-4.2,16.59-3,17.89s1.61-1.63,2.61-5.33c1.53-5.74,2.71-10.05,3.92-10.05S35.46,55.86,35.46,55.86Z"/><path class="cls-7" d="M34.77,58.56a16.23,16.23,0,0,0,1.68-5.41c.23-2.71,12.92-14.8,14.16-17.69,2.07-4.82,4.47-5.08,5.69-10.65.67-3.07-6.74-6.4-9.1-5L34.33,27.2c-2.35,1.36-1.51,4.33-1.23,8.15.56,7.69.92,11.11,1.41,14.58C35.05,53.81,35.52,54,34.77,58.56Z"/><path class="cls-7" d="M36.42,53.52,54,63.68a2.21,2.21,0,0,1,.64.62,4.34,4.34,0,0,1,1.82-2.4l10-6c2.34-1.39,4.29.05,4.32,3.19,0,0,1.1,11.27,1.36,14,.3,3.13,1.44,5.07-1.3,5.79-.48.13-1.09-.62-1.1-1.66L68.26,62.82c0-2.1-1.71-2.37-3.27-1.44l-6.66,4c-1.55.92-1.1,3.26-1.07,5.35L58,84.53c0,1.06-2.89,2.21-3-1.72L54.08,70a4.72,4.72,0,0,0-1.65-3.9l-16-9.32a3,3,0,0,1-1.23-2.36C35.19,53.55,35.75,53.13,36.42,53.52Z"/><path class="cls-8" d="M54.78,64,67.53,53.38c1.28-.75,1.12-2.05-.36-2.91l-9.78-5.64a5.6,5.6,0,0,0-5-.21L36.51,52.51c-1.28.74.86,2.16,2.34,3l11.39,7.21C51.72,63.6,53.49,64.71,54.78,64Z"/><path class="cls-9" d="M41.3,53.34l11.11-6.93c2.36-1.37-1.95-7-.71-9.88,2.07-4.81,2.87-6.32,4.09-11.89.68-3.07-5.14-5.16-7.5-3.8L35.43,28.27C33.07,29.63,34,33.89,34.35,37c.8,7.19.91,10.39,1.25,13.84C35.89,53.79,38.94,54.7,41.3,53.34Z"/><path class="cls-10" d="M42.53,38.22c-.25,6.15-4.89,12.42-1.72,16.15s14.59,8.27,18.31,8.45,9.51-4.47,9.51-4.47L61.17,46.23Z"/><path class="cls-11" d="M91.19,104.31a5.38,5.38,0,0,1-4.85,0,1.81,1.81,0,0,1-1-1.21c0-.12,0-24.3,0-24.41a1.78,1.78,0,0,1,1-1.24,5.32,5.32,0,0,1,4.85,0,1.78,1.78,0,0,1,1,1.24c0,.1,0,24.27,0,24.38A1.78,1.78,0,0,1,91.19,104.31Z"/><path class="cls-12" d="M62,89.63a5.38,5.38,0,0,1-4.85,0,1.81,1.81,0,0,1-1-1.21c0-.12,0-24.3,0-24.41a1.78,1.78,0,0,1,1-1.24,5.32,5.32,0,0,1,4.85,0A1.78,1.78,0,0,1,63,64c0,.1,0,24.27,0,24.38A1.78,1.78,0,0,1,62,89.63Z"/><path class="cls-5" d="M123.44,107.68c.75,2.42-.93,2.89-1.77,2.89s-2,2-3.63,2-4.94-1.4-6.62-2.33-1.77-3.64-.47-3.64S123.44,107.68,123.44,107.68Z"/><path class="cls-13" d="M121.37,98.36c.39,2.42,3,9.65,1.93,10.11s-2.84,2.35-4.9,2c-7.2-1.12-11.57-14-11.57-14L116.06,90Z"/><path class="cls-7" d="M110,90.15l17.61,10.16a2.34,2.34,0,0,1,.64.62,4.34,4.34,0,0,1,1.82-2.4l10-6c2.34-1.39,4.29,0,4.32,3.19,0,0,1.1,11.27,1.36,14,.3,3.13,1.44,5.07-1.3,5.79-.48.13-1.09-.62-1.1-1.66L141.8,99.45c0-2.1-1.71-2.37-3.27-1.44l-6.66,4c-1.55.92-1.1,3.26-1.07,5.35l.75,13.81c0,1.06-2.89,2.21-3-1.72l-.91-12.78a4.72,4.72,0,0,0-1.65-3.9l-16-9.32a3,3,0,0,1-1.23-2.36C108.73,90.18,109.29,89.76,110,90.15Z"/><path class="cls-8" d="M128.74,101.3l12.75-10.6c1.28-.74,1.12-2-.37-2.9l-9.77-5.64a5.6,5.6,0,0,0-5-.21l-13.87,8c-1.29.74-1.12,2,.36,2.9l11.38,7.21C125.68,100.93,127.45,102,128.74,101.3Z"/><path class="cls-14" d="M121.11,79.07c3.36.18,13.61,8.1,13.61,8.1-1,11.28-5.4,13.43-10.62,10.72-2.71-1.4-7.8-4.68-12.07-7.52l-.14.25c-.38.75.65,4.2.65,4.2L110.29,102S102,91.55,105.87,86.66C110.09,81.28,117.76,78.88,121.11,79.07Z"/><ellipse class="cls-15" cx="90.79" cy="61.55" rx="43.15" ry="24.91"/><ellipse class="cls-16" cx="90.79" cy="58.38" rx="43.15" ry="24.91"/><path class="cls-17" d="M91.48,64.67l-6.89-4.29a.52.52,0,0,1,0-.9L94,54.36,94.11,62Z"/><path class="cls-17" d="M104,71.89h-1.3a1.28,1.28,0,0,1-.66-.18l-10.9-6.42a.38.38,0,0,1,0-.66l5.55-3.06Z"/><path class="cls-18" d="M88.73,50.11l17.62-10.18c.32-.18.52,0,.57.32l3.19,13.23L91.93,64a.65.65,0,0,1,0,.36l-.51-.1h0s-.05,0-.06-.08l-3.2-13.1A1.2,1.2,0,0,1,88.73,50.11Z"/><rect class="cls-19" x="92.34" y="58.3" width="18.3" height="1.23" transform="translate(218.8 62.11) rotate(151.43)"/><path class="cls-1" d="M92,64.42v0s.79.07.83.09l.07.09.75-.43a.3.3,0,0,1,.26,0h0a.3.3,0,0,0,.26,0L109,55.6a.08.08,0,0,0,0-.15.08.08,0,0,1,0-.15l1.59-.92a.3.3,0,0,1,.26,0l10.6,6.12,1-.06a2.77,2.77,0,0,1,0,.84v0a.45.45,0,0,1-.23.25L104.52,71.75a1.25,1.25,0,0,1-1.13,0L92.06,65.21a.12.12,0,0,1,0,0s0,0,0,0A2.85,2.85,0,0,1,92,64.42Z"/><g class="cls-20"><rect class="cls-21" x="90.28" y="57.61" width="14.49" height="20.71" transform="translate(195.06 135.92) rotate(180)"/><rect class="cls-19" x="88.67" y="57.24" width="14.49" height="20.71" transform="translate(191.83 135.18) rotate(180)"/></g><path class="cls-22" d="M93.91,63.4h0a.3.3,0,0,0,.26,0L109,54.87c.07,0,.07-.11,0-.15h0c-.07,0-.07-.11,0-.15l1.59-.92a.24.24,0,0,1,.26,0l11.34,6.54c.31.18.31.47,0,.64L104.52,71a1.25,1.25,0,0,1-1.13,0L92.06,64.47c-.08,0-.08-.11,0-.15l1.59-.92A.3.3,0,0,1,93.91,63.4Z"/><path class="cls-21" d="M110.57,66.94l4.32-2.5a.29.29,0,0,0,0-.5L112,62.28a.61.61,0,0,0-.64,0L107,64.8a.21.21,0,0,0,0,.36l3.08,1.78A.55.55,0,0,0,110.57,66.94Z"/><path class="cls-22" d="M92,64.33c-.07,0-.11,0-.13-.08L88.69,51.16a1.22,1.22,0,0,1,.55-1L106.87,40c.31-.18.51,0,.56.32l3.2,13.23Z"/><path class="cls-23" d="M107.29,40.44c-.07-.24-.19-.38-.42-.24L89.24,50.37a.92.92,0,0,0-.41.71L92,64.15l18.45-10.66Z"/><polygon class="cls-24" points="92.7 62.81 109.89 52.89 106.69 41.06 89.5 50.98 92.7 62.81"/><g class="cls-25"><g class="cls-26"><path class="cls-27" d="M96,62.79h0c-.08,0-.09-.09,0-.13l13.24-7.81a.27.27,0,0,1,.25,0h0a.33.33,0,0,0,.26,0l1.42-.84c.07,0,.06-.1,0-.13L99,48.6a1.35,1.35,0,0,0-1.08,0L82.15,58c-.28.16-.24.41.1.56l12.09,5.25a.33.33,0,0,0,.26,0L96,62.92C96.09,62.88,96.08,62.82,96,62.79Z"/><path class="cls-28" d="M108.34,54.36l1.31-.77a.06.06,0,0,1,.06,0l.21.09s0,.07,0,.09l-1.31.78a.08.08,0,0,1-.07,0l-.2-.09S108.3,54.39,108.34,54.36Z"/><path class="cls-28" d="M107.22,55l.82-.49h.1l.23.1s0,0,0,0l-.82.48a.14.14,0,0,1-.11,0l-.22-.1S107.19,55,107.22,55Z"/><path class="cls-28" d="M106.08,55.7l.82-.49H107l.22.1s0,0,0,0l-.82.48a.11.11,0,0,1-.1,0l-.23-.1S106.06,55.71,106.08,55.7Z"/><path class="cls-28" d="M105,56.37l.82-.49a.17.17,0,0,1,.1,0l.23.1s0,0,0,.05l-.82.48a.14.14,0,0,1-.11,0l-.22-.1S104.92,56.38,105,56.37Z"/><path class="cls-28" d="M103.81,57l.82-.48a.14.14,0,0,1,.11,0l.22.1s0,0,0,.05l-.82.49a.17.17,0,0,1-.1,0l-.23-.1S103.78,57.05,103.81,57Z"/><path class="cls-28" d="M102.67,57.71l.82-.48a.14.14,0,0,1,.11,0l.22.1s0,0,0,0l-.81.49h-.11l-.23-.1S102.65,57.72,102.67,57.71Z"/><path class="cls-28" d="M101.54,58.38l.82-.48a.11.11,0,0,1,.1,0l.23.1s0,0,0,0l-.82.49h-.11l-.22-.1S101.51,58.39,101.54,58.38Z"/><path class="cls-28" d="M100.4,59.05l.82-.48a.14.14,0,0,1,.11,0l.22.1s0,0,0,.05l-.82.49h-.1l-.23-.1S100.38,59.07,100.4,59.05Z"/><path class="cls-28" d="M99.27,59.72l.81-.48a.14.14,0,0,1,.11,0l.22.1s0,0,0,.06l-.81.48a.14.14,0,0,1-.11,0l-.23-.1S99.24,59.74,99.27,59.72Z"/><path class="cls-28" d="M98.13,60.39l.82-.48a.11.11,0,0,1,.1,0l.23.1s0,0,0,.06l-.82.48a.14.14,0,0,1-.11,0l-.22-.1S98.1,60.41,98.13,60.39Z"/><path class="cls-28" d="M97,61.06l.82-.48a.11.11,0,0,1,.11,0l.22.09s0,0,0,.06l-.82.48a.09.09,0,0,1-.1,0L97,61.12S97,61.08,97,61.06Z"/><path class="cls-28" d="M95.86,61.73l.81-.48a.11.11,0,0,1,.11,0l.23.09s0,0,0,.06l-.81.48a.11.11,0,0,1-.11,0l-.22-.09S95.83,61.75,95.86,61.73Z"/><path class="cls-28" d="M94.72,62.4l.82-.48a.09.09,0,0,1,.1,0l.23.09s0,0,0,.06l-.82.48a.11.11,0,0,1-.11,0l-.22-.09S94.69,62.42,94.72,62.4Z"/><path class="cls-28" d="M93.58,63.07l.82-.48a.14.14,0,0,1,.11,0l.22.09s0,0,0,.06l-.82.48a.09.09,0,0,1-.1,0l-.23-.09S93.56,63.09,93.58,63.07Z"/><path class="cls-28" d="M107.47,53.47l.73-.43a.26.26,0,0,1,.23,0l.88.38c.07,0,.08.08,0,.11l-.74.44a.3.3,0,0,1-.23,0l-.87-.38C107.42,53.56,107.41,53.5,107.47,53.47Z"/><path class="cls-28" d="M92.28,62.43l1.26-.74a.26.26,0,0,1,.23,0l.88.38c.07,0,.07.08,0,.12l-1.27.74a.26.26,0,0,1-.23,0l-.87-.38C92.23,62.52,92.22,62.47,92.28,62.43Z"/><path class="cls-28" d="M106.3,54.16l.73-.43a.26.26,0,0,1,.23,0l.87.38c.07,0,.08.08,0,.12l-.73.43a.3.3,0,0,1-.23,0l-.87-.38C106.25,54.25,106.24,54.2,106.3,54.16Z"/><path class="cls-28" d="M105.18,54.82l.73-.43a.26.26,0,0,1,.23,0l.88.38c.07,0,.08.08,0,.12l-.74.43a.3.3,0,0,1-.23,0l-.87-.38C105.13,54.91,105.12,54.86,105.18,54.82Z"/><path class="cls-28" d="M104.06,55.48l.74-.43a.24.24,0,0,1,.22,0l.88.38c.07,0,.08.08,0,.12l-.73.43a.31.31,0,0,1-.23,0l-.88-.38C104,55.57,104,55.51,104.06,55.48Z"/><path class="cls-28" d="M102.94,56.14l.74-.43a.26.26,0,0,1,.23,0l.87.38c.07,0,.08.08,0,.11l-.73.44a.3.3,0,0,1-.23,0l-.88-.38C102.89,56.23,102.89,56.17,102.94,56.14Z"/><path class="cls-28" d="M101.83,56.8l.73-.43a.26.26,0,0,1,.23,0l.88.38c.06,0,.07.08,0,.11l-.74.44a.3.3,0,0,1-.23,0l-.87-.38C101.78,56.89,101.77,56.83,101.83,56.8Z"/><path class="cls-28" d="M100.71,57.46l.73-.43a.26.26,0,0,1,.23,0l.88.38c.07,0,.08.08,0,.11l-.74.44a.3.3,0,0,1-.23,0l-.87-.38C100.66,57.54,100.65,57.49,100.71,57.46Z"/><path class="cls-28" d="M99.59,58.12l.74-.44a.3.3,0,0,1,.23,0l.87.38c.07,0,.08.08,0,.11l-.73.44a.3.3,0,0,1-.23,0l-.88-.38C99.54,58.2,99.53,58.15,99.59,58.12Z"/><path class="cls-28" d="M98.47,58.78l.74-.44a.3.3,0,0,1,.23,0l.87.38c.07,0,.08.08,0,.11l-.73.44a.3.3,0,0,1-.23,0l-.88-.38C98.42,58.86,98.42,58.81,98.47,58.78Z"/><path class="cls-28" d="M97.36,59.44l.73-.44a.3.3,0,0,1,.23,0l.88.38c.06,0,.07.08,0,.11l-.74.44a.3.3,0,0,1-.23,0l-.87-.38C97.31,59.52,97.3,59.47,97.36,59.44Z"/><path class="cls-28" d="M96.24,60.1l.73-.44a.3.3,0,0,1,.23,0l.88.38c.07,0,.08.08,0,.11l-.74.43a.26.26,0,0,1-.23,0l-.87-.38C96.19,60.18,96.18,60.13,96.24,60.1Z"/><path class="cls-28" d="M95.12,60.76l.74-.44a.3.3,0,0,1,.23,0l.87.38c.07,0,.08.09,0,.12l-.73.43a.26.26,0,0,1-.23,0l-.88-.38C95.07,60.84,95.06,60.79,95.12,60.76Z"/><path class="cls-28" d="M94,61.42l.74-.44A.3.3,0,0,1,95,61l.87.38c.07,0,.08.09,0,.12l-.73.43a.26.26,0,0,1-.23,0L94,61.53C94,61.5,94,61.45,94,61.42Z"/><path class="cls-28" d="M105.49,53.25l1.36-.8a.3.3,0,0,1,.23,0l.87.38c.07,0,.08.08,0,.12l-1.35.8a.3.3,0,0,1-.23,0l-.88-.38C105.44,53.34,105.43,53.29,105.49,53.25Z"/><path class="cls-28" d="M90.92,61.85l.73-.43a.26.26,0,0,1,.23,0l.88.38c.07,0,.07.08,0,.12l-.74.43a.3.3,0,0,1-.23,0L90.94,62C90.87,61.94,90.86,61.89,90.92,61.85Z"/><path class="cls-28" d="M92,61.19l.73-.43a.26.26,0,0,1,.23,0l.88.38c.07,0,.07.08,0,.12l-.74.43a.3.3,0,0,1-.23,0l-.87-.38C92,61.28,92,61.23,92,61.19Z"/><path class="cls-28" d="M93.16,60.53l.73-.43a.26.26,0,0,1,.23,0l.88.38c.06,0,.07.08,0,.12l-.74.43a.3.3,0,0,1-.23,0l-.87-.38C93.11,60.62,93.1,60.56,93.16,60.53Z"/><path class="cls-28" d="M94.28,59.87l.73-.43a.26.26,0,0,1,.23,0l.87.38c.07,0,.08.08,0,.12l-.73.43a.3.3,0,0,1-.23,0L94.3,60C94.23,60,94.22,59.9,94.28,59.87Z"/><path class="cls-28" d="M95.4,59.21l.73-.43a.26.26,0,0,1,.23,0l.87.38c.07,0,.08.08,0,.12l-.73.43a.26.26,0,0,1-.23,0l-.87-.37C95.35,59.3,95.34,59.24,95.4,59.21Z"/><path class="cls-28" d="M96.52,58.55l.73-.43a.26.26,0,0,1,.23,0l.87.38c.07,0,.08.08,0,.11l-.73.44a.3.3,0,0,1-.23,0l-.87-.37C96.47,58.64,96.46,58.58,96.52,58.55Z"/><path class="cls-28" d="M97.64,57.89l.73-.43a.26.26,0,0,1,.23,0l.87.38c.07,0,.08.08,0,.11l-.73.44a.3.3,0,0,1-.23,0L97.66,58C97.59,58,97.58,57.92,97.64,57.89Z"/><path class="cls-28" d="M98.76,57.23l.73-.44a.3.3,0,0,1,.23,0l.87.38c.07,0,.08.08,0,.11l-.73.43a.26.26,0,0,1-.23,0l-.87-.38C98.71,57.31,98.7,57.26,98.76,57.23Z"/><path class="cls-28" d="M99.88,56.57l.73-.44a.3.3,0,0,1,.23,0l.87.37c.07,0,.08.09,0,.12l-.73.43a.26.26,0,0,1-.23,0l-.87-.38C99.83,56.65,99.82,56.6,99.88,56.57Z"/><path class="cls-28" d="M101,55.9l.73-.43a.3.3,0,0,1,.23,0l.87.37c.07,0,.08.09,0,.12l-.73.43a.26.26,0,0,1-.23,0L101,56C101,56,100.94,55.94,101,55.9Z"/><path class="cls-28" d="M102.12,55.24l.73-.43a.3.3,0,0,1,.23,0l.87.38c.07,0,.08.09,0,.12l-.73.43a.26.26,0,0,1-.23,0l-.87-.38C102.07,55.33,102.06,55.28,102.12,55.24Z"/><path class="cls-28" d="M103.23,54.58l.74-.43a.3.3,0,0,1,.23,0l.87.38c.07,0,.08.09,0,.12l-.73.43a.26.26,0,0,1-.23,0l-.87-.38C103.19,54.67,103.18,54.62,103.23,54.58Z"/><path class="cls-28" d="M104.35,53.92l.74-.43a.3.3,0,0,1,.23,0l.87.38c.07,0,.08.08,0,.12l-.73.43a.26.26,0,0,1-.23,0l-.88-.38C104.3,54,104.3,54,104.35,53.92Z"/><path class="cls-28" d="M103.7,52.91l1.79-1a.24.24,0,0,1,.22,0l.88.38c.07,0,.08.08,0,.11l-1.79,1.06a.28.28,0,0,1-.22,0l-.88-.38C103.65,53,103.64,53,103.7,52.91Z"/><path class="cls-28" d="M89.53,61.25l1.53-.9a.33.33,0,0,1,.22,0l.88.39c.07,0,.08.08,0,.11l-1.53.9a.24.24,0,0,1-.22,0l-.88-.38C89.48,61.34,89.47,61.29,89.53,61.25Z"/><path class="cls-28" d="M88.23,60.64l2-1.16a.35.35,0,0,1,.3,0l.8.34c.09,0,.1.11,0,.15l-2,1.17a.35.35,0,0,1-.3,0l-.8-.35C88.17,60.75,88.16,60.69,88.23,60.64Z"/><path class="cls-28" d="M102,51.12l.75-.44a.22.22,0,0,1,.21,0l.89.38c.07,0,.08.08,0,.11l-.74.44a.24.24,0,0,1-.22,0l-.89-.38C102,51.2,102,51.15,102,51.12Z"/><path class="cls-28" d="M101.8,52.65l2.3-1.36a.35.35,0,0,1,.3,0l.8.35c.09,0,.1.1,0,.15l-2.31,1.35a.33.33,0,0,1-.29,0l-.8-.35C101.74,52.76,101.73,52.69,101.8,52.65Z"/><path class="cls-28" d="M100.88,51.79l.75-.44a.28.28,0,0,1,.22,0l.88.39c.07,0,.08.07,0,.11l-.74.44a.28.28,0,0,1-.22,0l-.89-.38C100.84,51.87,100.83,51.82,100.88,51.79Z"/><path class="cls-28" d="M99.71,52.48l.75-.44a.28.28,0,0,1,.22,0l.88.39c.07,0,.08.07,0,.11l-.74.44a.28.28,0,0,1-.22,0l-.89-.38C99.67,52.56,99.66,52.51,99.71,52.48Z"/><path class="cls-28" d="M98.31,53.3l1-.58a.24.24,0,0,1,.22,0l.88.39c.07,0,.08.07,0,.11l-1,.58a.28.28,0,0,1-.22,0l-.89-.39C98.27,53.39,98.26,53.34,98.31,53.3Z"/><path class="cls-28" d="M100.65,53.32l.67-.4a.39.39,0,0,1,.3,0l.8.34c.09,0,.1.11,0,.15l-.68.4a.33.33,0,0,1-.29,0l-.81-.35C100.59,53.43,100.57,53.37,100.65,53.32Z"/><path class="cls-28" d="M99.54,54l.67-.4a.39.39,0,0,1,.3,0l.8.35c.09,0,.1.1,0,.15l-.68.4a.41.41,0,0,1-.29,0l-.81-.35C99.48,54.09,99.46,54,99.54,54Z"/><path class="cls-28" d="M98.43,54.63l.67-.4a.44.44,0,0,1,.3,0l.8.35c.09,0,.1.11,0,.15l-.68.4a.36.36,0,0,1-.29,0l-.81-.35C98.36,54.74,98.35,54.68,98.43,54.63Z"/><path class="cls-28" d="M97.32,55.29l.67-.4a.35.35,0,0,1,.3,0l.8.35c.09,0,.1.1,0,.15l-.68.39a.33.33,0,0,1-.29,0l-.81-.34C97.25,55.4,97.24,55.33,97.32,55.29Z"/><path class="cls-28" d="M96.21,55.94l.67-.4a.39.39,0,0,1,.3,0l.8.35c.09,0,.1.11,0,.15l-.68.4a.36.36,0,0,1-.29,0l-.81-.35C96.14,56.05,96.13,56,96.21,55.94Z"/><path class="cls-28" d="M95.1,56.59l.67-.39a.35.35,0,0,1,.3,0l.8.35c.09,0,.1.1,0,.15l-.68.39a.33.33,0,0,1-.29,0l-.81-.35C95,56.71,95,56.64,95.1,56.59Z"/><path class="cls-28" d="M94,57.25l.67-.4a.39.39,0,0,1,.3,0l.8.35c.09,0,.1.11,0,.15l-.68.4a.36.36,0,0,1-.29,0L94,57.4C93.92,57.36,93.91,57.29,94,57.25Z"/><path class="cls-28" d="M92.88,57.9l.67-.39a.35.35,0,0,1,.3,0l.8.34c.09,0,.1.11,0,.15l-.68.4a.33.33,0,0,1-.29,0l-.81-.35C92.81,58,92.8,58,92.88,57.9Z"/><path class="cls-28" d="M91.77,58.56l.67-.4a.39.39,0,0,1,.3,0l.8.35c.09,0,.1.1,0,.15l-.68.4a.41.41,0,0,1-.29,0l-.81-.35C91.7,58.67,91.69,58.6,91.77,58.56Z"/><path class="cls-28" d="M90.66,59.21l.67-.4a.44.44,0,0,1,.3,0l.8.35c.09,0,.1.11,0,.15l-.68.4a.36.36,0,0,1-.29,0l-.81-.35C90.59,59.32,90.58,59.26,90.66,59.21Z"/><path class="cls-28" d="M86.88,60l.66-.39a.41.41,0,0,1,.31,0l.79.35c.09,0,.1.11,0,.15l-.67.39a.37.37,0,0,1-.31,0l-.79-.34C86.81,60.16,86.8,60.09,86.88,60Z"/><path class="cls-28" d="M88,59.36l.66-.39A.41.41,0,0,1,89,59l.79.35c.09,0,.1.11,0,.15l-.67.39a.37.37,0,0,1-.31,0l-.78-.34C88,59.48,88,59.41,88,59.36Z"/><path class="cls-28" d="M89.2,58.67l.66-.39a.41.41,0,0,1,.31,0l.79.34c.09,0,.11.11,0,.16l-.66.39a.37.37,0,0,1-.31,0l-.79-.34C89.14,58.79,89.12,58.72,89.2,58.67Z"/><polygon class="cls-29" points="88.41 59.66 89.35 59.11 89.42 59.14 88.47 59.69 88.41 59.66"/><polygon class="cls-30" points="88.72 59.32 88.63 59.37 88.58 59.31 88.53 59.24 88.67 59.26 88.8 59.27 88.72 59.32"/><polygon class="cls-30" points="89.11 59.49 89.19 59.44 89.24 59.5 89.29 59.57 89.15 59.56 89.02 59.54 89.11 59.49"/><polygon class="cls-30" points="90.03 58.75 89.92 58.7 90.05 58.68 90.18 58.66 90.16 58.72 90.14 58.79 90.03 58.75"/><polygon class="cls-30" points="87.81 60.05 87.92 60.1 87.79 60.12 87.66 60.15 87.68 60.08 87.71 60.01 87.81 60.05"/><path class="cls-28" d="M102.53,53.59l.74-.44a.3.3,0,0,1,.23,0l.88.38c.06,0,.07.08,0,.11l-.74.44a.36.36,0,0,1-.23,0l-.88-.39C102.48,53.67,102.48,53.62,102.53,53.59Z"/><path class="cls-28" d="M101.43,54.24l.74-.43a.24.24,0,0,1,.22,0l.88.38c.07,0,.08.08,0,.11l-.74.44a.28.28,0,0,1-.22,0l-.88-.39C101.38,54.33,101.37,54.28,101.43,54.24Z"/><path class="cls-28" d="M100.32,54.89l.74-.43a.24.24,0,0,1,.22,0l.89.38c.06,0,.07.08,0,.12l-.74.43a.24.24,0,0,1-.22,0l-.88-.38C100.27,55,100.26,54.93,100.32,54.89Z"/><path class="cls-28" d="M99.21,55.55l.74-.44a.3.3,0,0,1,.23,0l.88.39c.07,0,.07.08,0,.11l-.74.44a.3.3,0,0,1-.23,0l-.88-.38C99.17,55.63,99.16,55.58,99.21,55.55Z"/><path class="cls-28" d="M98.11,56.2l.74-.44a.28.28,0,0,1,.22,0l.88.38c.07,0,.08.08,0,.11l-.74.44a.33.33,0,0,1-.22,0l-.88-.39C98.06,56.28,98.05,56.23,98.11,56.2Z"/><path class="cls-28" d="M97,56.85l.74-.43a.24.24,0,0,1,.22,0l.89.38c.06,0,.07.08,0,.11l-.74.44a.3.3,0,0,1-.23,0L97,57C97,56.94,96.94,56.89,97,56.85Z"/><path class="cls-28" d="M95.89,57.51l.74-.44a.3.3,0,0,1,.23,0l.88.38c.07,0,.08.08,0,.12L97,58a.24.24,0,0,1-.22,0l-.89-.38C95.85,57.59,95.84,57.54,95.89,57.51Z"/><path class="cls-28" d="M94.79,58.16l.74-.44a.28.28,0,0,1,.22,0l.88.39c.07,0,.08.08,0,.11l-.74.44a.28.28,0,0,1-.22,0l-.88-.38C94.74,58.24,94.73,58.19,94.79,58.16Z"/><path class="cls-28" d="M93.68,58.81l.74-.44a.3.3,0,0,1,.23,0l.88.38c.06,0,.07.08,0,.11l-.74.44a.3.3,0,0,1-.23,0l-.88-.39C93.63,58.89,93.63,58.84,93.68,58.81Z"/><path class="cls-28" d="M92.58,59.46l.74-.43a.24.24,0,0,1,.22,0l.88.38c.07,0,.08.08,0,.12L93.7,60a.28.28,0,0,1-.22,0l-.88-.38C92.53,59.55,92.52,59.5,92.58,59.46Z"/><path class="cls-28" d="M91.47,60.12l.74-.44a.28.28,0,0,1,.22,0l.88.38c.07,0,.08.08,0,.12l-.74.43a.24.24,0,0,1-.22,0l-.88-.38C91.42,60.2,91.41,60.15,91.47,60.12Z"/><path class="cls-28" d="M90.33,58l1-.59a.33.33,0,0,1,.22,0l.89.39c.06,0,.07.08,0,.11l-1,.59a.28.28,0,0,1-.22,0l-.89-.38C90.28,58.1,90.27,58.05,90.33,58Z"/><path class="cls-28" d="M91.71,57.2l1-.58a.24.24,0,0,1,.22,0l.89.38c.06,0,.07.08,0,.11l-1,.59a.26.26,0,0,1-.21,0l-.89-.39C91.66,57.28,91.65,57.23,91.71,57.2Z"/><path class="cls-28" d="M93.08,56.39l4.84-2.86a.28.28,0,0,1,.22,0l.89.38c.07,0,.07.08,0,.11L94.2,56.88a.24.24,0,0,1-.22,0l-.88-.39C93,56.48,93,56.43,93.08,56.39Z"/><path class="cls-31" d="M88.79,54.59l3.78-2.23a.6.6,0,0,1,.54,0l3.15,1.36c.19.09.23.32.07.41l-4,2.34a.35.35,0,0,1-.33,0l-3.16-1.37A.28.28,0,0,1,88.79,54.59Z"/><path class="cls-32" d="M108.74,53.53s-.06-.06,0-.08a.2.2,0,0,1,.17,0c.06,0,.06.06,0,.09A.2.2,0,0,1,108.74,53.53Z"/><path class="cls-32" d="M108.05,53.53s-.06-.06,0-.09a.25.25,0,0,1,.17,0c.05,0,.05.07,0,.09A.2.2,0,0,1,108.05,53.53Z"/><path class="cls-32" d="M107.19,54.23s-.06-.06,0-.08a.2.2,0,0,1,.17,0s.06.06,0,.09A.2.2,0,0,1,107.19,54.23Z"/><path class="cls-32" d="M106.65,53.13c-.05,0-.05-.06,0-.08a.2.2,0,0,1,.17,0s.06.06,0,.09A.2.2,0,0,1,106.65,53.13Z"/><path class="cls-32" d="M105.21,54s-.06-.06,0-.08a.2.2,0,0,1,.17,0s.06.06,0,.09A.25.25,0,0,1,105.21,54Z"/><path class="cls-32" d="M104,51.91s-.06-.06,0-.09a.25.25,0,0,1,.17,0s0,.06,0,.08A.2.2,0,0,1,104,51.91Z"/><path class="cls-32" d="M103.28,51.16s-.06-.06,0-.08a.2.2,0,0,1,.17,0s0,.06,0,.09A.2.2,0,0,1,103.28,51.16Z"/><path class="cls-32" d="M102.59,51.16c-.06,0-.06-.06,0-.09a.25.25,0,0,1,.17,0c.05,0,.06.07,0,.09A.2.2,0,0,1,102.59,51.16Z"/><path class="cls-32" d="M101.71,51.82s-.06-.06,0-.08a.2.2,0,0,1,.17,0s.06.06,0,.09A.2.2,0,0,1,101.71,51.82Z"/><path class="cls-32" d="M100.53,52.52s-.06-.06,0-.08a.18.18,0,0,1,.16,0c.06,0,.06.06,0,.09A.2.2,0,0,1,100.53,52.52Z"/><path class="cls-32" d="M99.29,53.28c-.05,0-.06-.06,0-.08a.2.2,0,0,1,.17,0c.06,0,.06.06,0,.09A.2.2,0,0,1,99.29,53.28Z"/><path class="cls-32" d="M103.61,52.16s-.06-.06,0-.09a.2.2,0,0,1,.17,0s0,.06,0,.08A.2.2,0,0,1,103.61,52.16Z"/><path class="cls-32" d="M105.11,52.65s-.06-.06,0-.09a.25.25,0,0,1,.17,0s0,.06,0,.08A.2.2,0,0,1,105.11,52.65Z"/><path class="cls-32" d="M104,54.64c-.05,0-.06-.06,0-.08a.2.2,0,0,1,.17,0s.06.06,0,.09A.25.25,0,0,1,104,54.64Z"/><path class="cls-32" d="M102.9,55.3c-.05,0-.06-.06,0-.08a.2.2,0,0,1,.17,0s.06.06,0,.09A.2.2,0,0,1,102.9,55.3Z"/><path class="cls-32" d="M101.85,55.94s-.06-.06,0-.09a.2.2,0,0,1,.17,0s0,.06,0,.08A.2.2,0,0,1,101.85,55.94Z"/><path class="cls-32" d="M100.68,56.61c-.05,0-.05-.06,0-.09a.25.25,0,0,1,.17,0s.06.06,0,.08A.2.2,0,0,1,100.68,56.61Z"/><path class="cls-32" d="M103.42,53.63s-.06-.06,0-.09a.2.2,0,0,1,.17,0s0,.06,0,.08A.2.2,0,0,1,103.42,53.63Z"/><path class="cls-32" d="M102.25,54.3s0-.06,0-.09a.2.2,0,0,1,.17,0s.06.06,0,.08A.2.2,0,0,1,102.25,54.3Z"/><path class="cls-32" d="M101.11,55s-.06-.06,0-.09a.25.25,0,0,1,.17,0s0,.06,0,.08A.2.2,0,0,1,101.11,55Z"/><path class="cls-32" d="M100.07,55.59s-.06-.06,0-.08a.2.2,0,0,1,.17,0s.06.06,0,.09A.2.2,0,0,1,100.07,55.59Z"/><path class="cls-32" d="M98.9,56.26c-.05,0-.06-.06,0-.08a.2.2,0,0,1,.17,0c.06,0,.06.06,0,.09A.2.2,0,0,1,98.9,56.26Z"/><path class="cls-32" d="M101.46,53.39s-.06-.06,0-.09a.25.25,0,0,1,.17,0s0,.07,0,.09A.2.2,0,0,1,101.46,53.39Z"/><path class="cls-32" d="M100.29,54.06c-.05,0-.05-.06,0-.09a.2.2,0,0,1,.17,0s.06.06,0,.08A.2.2,0,0,1,100.29,54.06Z"/><path class="cls-32" d="M99.15,54.72c-.05,0-.05-.06,0-.09a.2.2,0,0,1,.17,0s.06.06,0,.08A.2.2,0,0,1,99.15,54.72Z"/><path class="cls-32" d="M98.11,55.35s-.06-.06,0-.08a.2.2,0,0,1,.17,0s.06.06,0,.09A.25.25,0,0,1,98.11,55.35Z"/><path class="cls-32" d="M96.94,56s-.06-.06,0-.08a.2.2,0,0,1,.17,0c.05,0,.05.06,0,.09A.2.2,0,0,1,96.94,56Z"/><path class="cls-32" d="M95.93,56.65c-.06,0-.06-.06,0-.09a.2.2,0,0,1,.17,0s.06.06,0,.08A.18.18,0,0,1,95.93,56.65Z"/><path class="cls-32" d="M94.76,57.32c-.05,0-.06-.06,0-.09a.2.2,0,0,1,.17,0s.06.06,0,.08A.2.2,0,0,1,94.76,57.32Z"/><path class="cls-32" d="M93.62,58c-.06,0-.06-.06,0-.09a.25.25,0,0,1,.17,0s.06.06,0,.08A.2.2,0,0,1,93.62,58Z"/><path class="cls-32" d="M92.57,58.61s-.06-.06,0-.08a.2.2,0,0,1,.17,0s0,.06,0,.09A.2.2,0,0,1,92.57,58.61Z"/><path class="cls-32" d="M91.4,59.28c-.05,0-.05-.06,0-.08a.2.2,0,0,1,.17,0s.06.06,0,.09A.2.2,0,0,1,91.4,59.28Z"/><path class="cls-32" d="M97.92,56.88s0-.06,0-.08a.2.2,0,0,1,.17,0s.06.06,0,.09A.2.2,0,0,1,97.92,56.88Z"/><path class="cls-32" d="M96.76,57.55c-.06,0-.06-.06,0-.08a.2.2,0,0,1,.17,0s.06.06,0,.09A.2.2,0,0,1,96.76,57.55Z"/><path class="cls-32" d="M95.61,58.21s0-.06,0-.08a.2.2,0,0,1,.17,0s.06.06,0,.09A.2.2,0,0,1,95.61,58.21Z"/><path class="cls-32" d="M94.57,58.85s-.06-.06,0-.09a.25.25,0,0,1,.17,0c.06,0,.06.06,0,.08A.2.2,0,0,1,94.57,58.85Z"/><path class="cls-32" d="M93.4,59.52c-.05,0-.06-.06,0-.09a.25.25,0,0,1,.17,0s0,.06,0,.08A.2.2,0,0,1,93.4,59.52Z"/><path class="cls-32" d="M99.54,57.27c-.05,0-.05-.06,0-.09a.25.25,0,0,1,.17,0s.06.06,0,.08A.2.2,0,0,1,99.54,57.27Z"/><path class="cls-32" d="M98.46,57.93s-.06-.06,0-.09a.25.25,0,0,1,.17,0s0,.06,0,.08A.2.2,0,0,1,98.46,57.93Z"/><path class="cls-32" d="M97.29,58.6c-.05,0-.05-.06,0-.08a.2.2,0,0,1,.17,0s.06.06,0,.09A.25.25,0,0,1,97.29,58.6Z"/><path class="cls-32" d="M96.15,59.26c-.05,0-.06-.06,0-.08a.2.2,0,0,1,.17,0s0,.06,0,.09A.25.25,0,0,1,96.15,59.26Z"/><path class="cls-32" d="M95.16,59.92s-.06-.06,0-.09a.25.25,0,0,1,.17,0s.06.06,0,.08A.2.2,0,0,1,95.16,59.92Z"/><path class="cls-32" d="M94,60.59s-.06-.06,0-.08a.2.2,0,0,1,.17,0c.06,0,.06.06,0,.09A.25.25,0,0,1,94,60.59Z"/><path class="cls-32" d="M92.85,61.25s-.06-.06,0-.08a.2.2,0,0,1,.17,0s.06.06,0,.09A.25.25,0,0,1,92.85,61.25Z"/><path class="cls-32" d="M92.29,60.17c-.05,0-.06-.06,0-.09a.25.25,0,0,1,.17,0s.06.06,0,.08A.2.2,0,0,1,92.29,60.17Z"/><path class="cls-32" d="M91.34,58c-.06,0-.06-.06,0-.08a.2.2,0,0,1,.17,0c.05,0,.06.06,0,.09A.25.25,0,0,1,91.34,58Z"/><path class="cls-32" d="M93.15,57.13c-.05,0-.06-.06,0-.09a.2.2,0,0,1,.17,0s0,.06,0,.08A.2.2,0,0,1,93.15,57.13Z"/><path class="cls-32" d="M92.39,57.22s-.06-.06,0-.08a.2.2,0,0,1,.17,0s.06.06,0,.09A.25.25,0,0,1,92.39,57.22Z"/><path class="cls-32" d="M90.93,61c-.05,0-.06-.06,0-.08a.2.2,0,0,1,.17,0s.06.06,0,.09A.2.2,0,0,1,90.93,61Z"/><path class="cls-32" d="M89.71,60.32s-.06-.06,0-.09a.25.25,0,0,1,.17,0s0,.06,0,.08A.2.2,0,0,1,89.71,60.32Z"/><path class="cls-32" d="M90.41,61.29s-.06-.06,0-.09a.2.2,0,0,1,.17,0c.06,0,.06.07,0,.09A.2.2,0,0,1,90.41,61.29Z"/><path class="cls-32" d="M105.89,54.82s-.06-.06,0-.08a.2.2,0,0,1,.17,0s0,.06,0,.09A.2.2,0,0,1,105.89,54.82Z"/><path class="cls-32" d="M106.32,55s-.06-.06,0-.08a.2.2,0,0,1,.17,0s.06.06,0,.09A.2.2,0,0,1,106.32,55Z"/><path class="cls-32" d="M105,55.55s-.06-.06,0-.08a.2.2,0,0,1,.17,0c.05,0,.06.06,0,.09A.2.2,0,0,1,105,55.55Z"/><path class="cls-32" d="M103.8,56.19s-.06-.06,0-.08a.2.2,0,0,1,.17,0s.06.06,0,.09A.2.2,0,0,1,103.8,56.19Z"/><path class="cls-32" d="M102.65,56.86c-.05,0-.06-.06,0-.08a.2.2,0,0,1,.17,0s0,.06,0,.09A.2.2,0,0,1,102.65,56.86Z"/><path class="cls-32" d="M101.57,57.49s-.06-.06,0-.09a.2.2,0,0,1,.17,0s0,.06,0,.08A.2.2,0,0,1,101.57,57.49Z"/><path class="cls-32" d="M100.36,58.16s-.06-.06,0-.08a.2.2,0,0,1,.17,0s.06.06,0,.09A.25.25,0,0,1,100.36,58.16Z"/><path class="cls-32" d="M100.69,58.3s0-.06,0-.08a.2.2,0,0,1,.17,0c.05,0,.06.06,0,.09A.25.25,0,0,1,100.69,58.3Z"/><path class="cls-32" d="M99.32,58.85s-.06-.06,0-.09a.25.25,0,0,1,.17,0c.06,0,.06.06,0,.08A.2.2,0,0,1,99.32,58.85Z"/><path class="cls-32" d="M98.21,59.51s-.06-.06,0-.09a.25.25,0,0,1,.17,0s.06.07,0,.09A.2.2,0,0,1,98.21,59.51Z"/><path class="cls-32" d="M97.09,60.15s0-.06,0-.09a.25.25,0,0,1,.17,0s.06.06,0,.08A.2.2,0,0,1,97.09,60.15Z"/><path class="cls-32" d="M96.39,60.77s-.06-.06,0-.08a.2.2,0,0,1,.17,0s0,.06,0,.09A.2.2,0,0,1,96.39,60.77Z"/><path class="cls-32" d="M95.62,60.84c-.05,0-.06-.06,0-.09a.2.2,0,0,1,.17,0s0,.06,0,.08A.2.2,0,0,1,95.62,60.84Z"/><path class="cls-32" d="M95,61.37c-.06,0-.06-.06,0-.08a.2.2,0,0,1,.17,0s.06.06,0,.09A.2.2,0,0,1,95,61.37Z"/><path class="cls-32" d="M94.63,61.57s-.06-.06,0-.09a.2.2,0,0,1,.17,0s.06.06,0,.09A.2.2,0,0,1,94.63,61.57Z"/><path class="cls-32" d="M93.37,62.31c-.05,0-.06-.06,0-.08a.2.2,0,0,1,.17,0s0,.06,0,.09A.25.25,0,0,1,93.37,62.31Z"/></g></g><path class="cls-33" d="M106.87,40.2c.23-.14.37,0,.42.24l3.19,12.61L107,55,93.2,48.11Z"/><path class="cls-34" d="M99,68.92a.49.49,0,0,0,.21.36c.12.06.21,0,.21-.12a.43.43,0,0,0-.21-.36C99.12,68.73,99,68.79,99,68.92Z"/><path class="cls-35" d="M99.08,69a.34.34,0,0,0,.15.26c.08.05.15,0,.15-.09a.35.35,0,0,0-.15-.26C99.15,68.82,99.08,68.85,99.08,69Z"/><polygon class="cls-36" points="95.68 67.16 96.64 67.72 96.64 67.37 95.68 66.81 95.68 67.16"/><polygon class="cls-37" points="95.68 66.94 96.64 67.5 96.64 67.37 95.68 66.81 95.68 66.94"/><polygon class="cls-36" points="94.45 66.45 95.41 67.01 95.41 66.66 94.45 66.1 94.45 66.45"/><polygon class="cls-37" points="94.44 66.23 95.41 66.79 95.41 66.66 94.44 66.1 94.44 66.23"/><path class="cls-34" d="M97.68,68.14a.46.46,0,0,0,.21.36c.11.07.2,0,.2-.12a.47.47,0,0,0-.2-.36C97.77,68,97.68,68,97.68,68.14Z"/><path class="cls-35" d="M97.74,68.17a.36.36,0,0,0,.15.27.1.1,0,0,0,.15-.09.34.34,0,0,0-.15-.26C97.81,68,97.74,68.08,97.74,68.17Z"/><path class="cls-38" d="M114.89,64.2,112,62.55a.61.61,0,0,0-.64,0L107,65.07l0,0a.21.21,0,0,1,0-.31l4.38-2.52a.61.61,0,0,1,.64,0l2.88,1.66a.28.28,0,0,1,.11.38A.31.31,0,0,0,114.89,64.2Z"/><path class="cls-39" d="M111.38,54.52l-1.47.85a.06.06,0,0,1-.06,0l-.19-.12s0,0,0,0h0s0,0,0-.06l1.46-.84h.06l.2.11a.07.07,0,0,1,0,.06h0A.07.07,0,0,1,111.38,54.52Z"/><path class="cls-39" d="M112.65,55.28l-.82.47a.25.25,0,0,1-.24,0l-.82-.47a.1.1,0,0,1,0-.08h0a.1.1,0,0,1,0-.07l.82-.47a.26.26,0,0,1,.24,0l.82.47s0,0,0,.07h0A.07.07,0,0,1,112.65,55.28Z"/><path class="cls-39" d="M111.34,56l-.82.48a.33.33,0,0,1-.24,0l-.82-.48s0,0,0-.07h0s0,0,0-.07l.82-.48a.33.33,0,0,1,.24,0l.82.48s0,0,0,.07h0S111.37,56,111.34,56Z"/><path class="cls-39" d="M113.91,56l-1.51.87a.25.25,0,0,1-.24,0l-.82-.47a.1.1,0,0,1,0-.07h0a.1.1,0,0,1,0-.08l1.52-.87a.24.24,0,0,1,.23,0l.82.47a.08.08,0,0,1,0,.07h0A.08.08,0,0,1,113.91,56Z"/><path class="cls-39" d="M97.57,64.36a.1.1,0,0,1,0-.07h0a.1.1,0,0,1,0-.08l.82-.47a.25.25,0,0,1,.24,0l.81.47a.08.08,0,0,1,0,.08h0a.08.08,0,0,1,0,.07l-.81.47a.25.25,0,0,1-.24,0Z"/><path class="cls-39" d="M110.69,57.87l-.81.47a.25.25,0,0,1-.24,0l-.82-.47a.1.1,0,0,1,0-.08h0a.1.1,0,0,1,0-.07l.82-.47a.25.25,0,0,1,.24,0l.81.47a.08.08,0,0,1,0,.07h0A.08.08,0,0,1,110.69,57.87Z"/><path class="cls-39" d="M111.94,57.14l-.81.48a.33.33,0,0,1-.24,0l-.82-.48s0,0,0-.07h0s0,0,0-.07l.82-.47a.25.25,0,0,1,.24,0l.81.47s0,0,0,.07h0S112,57.12,111.94,57.14Z"/><path class="cls-39" d="M115.19,56.74l-2,1.16a.3.3,0,0,1-.23,0l-.82-.48s0,0,0-.07h0s0,0,0-.07l2-1.16a.3.3,0,0,1,.23,0l.82.48a.08.08,0,0,1,0,.07h0S115.23,56.72,115.19,56.74Z"/><path class="cls-39" d="M115.81,58.15h0a.08.08,0,0,1,0-.07l.84-.48a.22.22,0,0,1,.22,0l.83.48s.05,0,0,.07h0s0,.05,0,.07l-.83.48a.28.28,0,0,1-.22,0l-.84-.48A.09.09,0,0,1,115.81,58.15Z"/><path class="cls-39" d="M116.43,57.5,113.86,59a.34.34,0,0,1-.31,0l-.75-.43a.12.12,0,0,1-.06-.09h0a.12.12,0,0,1,.06-.09l2.57-1.48a.32.32,0,0,1,.3,0l.76.43a.12.12,0,0,1,.06.09h0A.12.12,0,0,1,116.43,57.5Z"/><path class="cls-39" d="M114.54,58.88h0s0,0,0-.07l.83-.48a.3.3,0,0,1,.23,0l.83.48a.09.09,0,0,1,0,.07h0a.08.08,0,0,1,0,.07l-.83.48a.24.24,0,0,1-.23,0l-.83-.48S114.53,58.91,114.54,58.88Z"/><path class="cls-39" d="M113.23,59.64h0a.06.06,0,0,1,0-.06l.83-.48a.22.22,0,0,1,.22,0l.83.48a.07.07,0,0,1,0,.06h0a.07.07,0,0,1,0,.06l-.83.48a.22.22,0,0,1-.22,0l-.83-.48A.06.06,0,0,1,113.23,59.64Z"/><path class="cls-39" d="M111.67,60.54h0a.08.08,0,0,1,0-.07l1.11-.64a.22.22,0,0,1,.22,0l.84.48a.08.08,0,0,1,0,.07h0a.09.09,0,0,1,0,.07l-1.11.64a.28.28,0,0,1-.22,0l-.84-.48A.09.09,0,0,1,111.67,60.54Z"/><path class="cls-39" d="M113.33,59.29l-.76.43a.32.32,0,0,1-.3,0l-.75-.43a.12.12,0,0,1-.06-.09h0a.12.12,0,0,1,.06-.1l.75-.43a.32.32,0,0,1,.3,0l.76.43a.12.12,0,0,1,.06.1h0A.12.12,0,0,1,113.33,59.29Z"/><path class="cls-39" d="M112.09,60l-.75.44a.32.32,0,0,1-.3,0l-.76-.44a.1.1,0,0,1-.06-.09h0a.11.11,0,0,1,.06-.09l.76-.43a.32.32,0,0,1,.3,0l.75.43a.11.11,0,0,1,.06.09h0A.1.1,0,0,1,112.09,60Z"/><path class="cls-39" d="M110.85,60.72l-.75.43a.32.32,0,0,1-.3,0l-.76-.43a.12.12,0,0,1-.06-.09h0a.1.1,0,0,1,.06-.09l.76-.44a.32.32,0,0,1,.3,0l.75.44s.07.05.06.09h0S110.89,60.69,110.85,60.72Z"/><path class="cls-39" d="M109.61,61.43l-.75.44a.32.32,0,0,1-.3,0l-.75-.44a.09.09,0,0,1-.07-.09h0s0-.06.07-.09l.75-.43a.32.32,0,0,1,.3,0l.75.43s.07.06.07.09h0A.09.09,0,0,1,109.61,61.43Z"/><path class="cls-39" d="M108.38,62.15l-.76.43a.32.32,0,0,1-.3,0l-.75-.43a.11.11,0,0,1-.06-.09h0a.1.1,0,0,1,.06-.09l.75-.44a.32.32,0,0,1,.3,0l.76.44a.1.1,0,0,1,.06.09h0A.11.11,0,0,1,108.38,62.15Z"/><path class="cls-39" d="M107.14,62.87l-.75.43a.34.34,0,0,1-.31,0l-.75-.43a.12.12,0,0,1-.06-.09h0a.12.12,0,0,1,.06-.09l.75-.43a.34.34,0,0,1,.31,0l.75.43a.12.12,0,0,1,.06.09h0A.12.12,0,0,1,107.14,62.87Z"/><path class="cls-39" d="M105.9,63.58l-.75.44a.39.39,0,0,1-.3,0l-.76-.44a.11.11,0,0,1-.06-.09h0a.11.11,0,0,1,.06-.09l.76-.44a.32.32,0,0,1,.3,0l.75.44a.11.11,0,0,1,.06.09h0A.11.11,0,0,1,105.9,63.58Z"/><path class="cls-39" d="M104.66,64.3l-.75.43a.32.32,0,0,1-.3,0l-.75-.43s-.07-.06-.07-.09h0s0-.06.07-.09l.75-.43a.32.32,0,0,1,.3,0l.75.43s.07.06.06.09h0S104.71,64.27,104.66,64.3Z"/><path class="cls-39" d="M103.42,65l-.75.44a.39.39,0,0,1-.3,0l-.75-.44c-.05,0-.07-.06-.06-.09h0s0-.07.06-.09l.75-.44a.39.39,0,0,1,.3,0l.75.44a.1.1,0,0,1,.07.09h0A.1.1,0,0,1,103.42,65Z"/><path class="cls-39" d="M100.18,67.19h0a.1.1,0,0,1,.07-.09l.74-.43a.34.34,0,0,1,.31,0l.36.2h0l.06,0h0L102,67a.1.1,0,0,1,.07.09h0s0,.07-.07.1l-.74.42a.29.29,0,0,1-.31,0l-.74-.42S100.18,67.23,100.18,67.19Z"/><path class="cls-39" d="M101.49,66.44h0s0-.07.07-.1l.74-.43a.34.34,0,0,1,.31,0l.74.43c.05,0,.07.06.07.1h0a.1.1,0,0,1-.07.09l-.74.43a.34.34,0,0,1-.31,0l-.74-.43A.1.1,0,0,1,101.49,66.44Z"/><path class="cls-39" d="M112.74,58.17l-.82.48a.3.3,0,0,1-.23,0l-.83-.48s0,0,0-.07h0s0,0,0-.07l.83-.48a.3.3,0,0,1,.23,0l.82.48s.05,0,.05.07h0S112.77,58.15,112.74,58.17Z"/><path class="cls-39" d="M111.51,58.88l-.83.48a.24.24,0,0,1-.23,0l-.82-.48s0,0,0-.07h0a.08.08,0,0,1,0-.07l.82-.47a.24.24,0,0,1,.23,0l.83.47s0,0,0,.07h0S111.54,58.86,111.51,58.88Z"/><path class="cls-39" d="M110.27,59.6l-.82.47a.24.24,0,0,1-.23,0l-.83-.47s0-.05,0-.07h0a.06.06,0,0,1,0-.07l.83-.48a.24.24,0,0,1,.23,0l.82.48a.08.08,0,0,1,0,.07h0A.1.1,0,0,1,110.27,59.6Z"/><path class="cls-39" d="M109,60.31l-.83.48a.3.3,0,0,1-.23,0l-.82-.48s0,0,0-.07h0s0,0,0-.07l.82-.48a.3.3,0,0,1,.23,0L109,60s0,0,0,.07h0S109.07,60.29,109,60.31Z"/><path class="cls-39" d="M107.8,61l-.82.48a.24.24,0,0,1-.23,0l-.83-.48s0,0,0-.07h0s0,0,0-.07l.83-.48a.3.3,0,0,1,.23,0l.82.48a.08.08,0,0,1,0,.07h0S107.84,61,107.8,61Z"/><path class="cls-39" d="M106.57,61.74l-.83.47a.24.24,0,0,1-.23,0l-.82-.47a.08.08,0,0,1,0-.07h0a.08.08,0,0,1,0-.07l.82-.47a.24.24,0,0,1,.23,0l.83.47s.05,0,0,.07h0S106.6,61.72,106.57,61.74Z"/><path class="cls-39" d="M105.33,62.45l-.82.48a.3.3,0,0,1-.23,0l-.83-.48s0-.05,0-.07h0s0,0,0-.07l.83-.48a.24.24,0,0,1,.23,0l.82.48s0,0,0,.07h0A.08.08,0,0,1,105.33,62.45Z"/><path class="cls-39" d="M104.1,63.16l-.83.48a.24.24,0,0,1-.23,0l-.82-.48s0,0,0-.07h0a.1.1,0,0,1,0-.07l.82-.48a.3.3,0,0,1,.23,0l.83.48a.1.1,0,0,1,.05.07h0S104.13,63.14,104.1,63.16Z"/><path class="cls-39" d="M102.86,63.88l-.82.47a.24.24,0,0,1-.23,0l-.83-.47a.09.09,0,0,1,0-.07h0a.09.09,0,0,1,0-.07l.83-.47a.24.24,0,0,1,.23,0l.82.47a.08.08,0,0,1,0,.07h0A.08.08,0,0,1,102.86,63.88Z"/><path class="cls-39" d="M102.75,65.69h0a.06.06,0,0,1,0-.06l1.11-.64a.22.22,0,0,1,.22,0l.83.48s.05,0,0,.06h0s0,0,0,.06l-1.11.64a.22.22,0,0,1-.22,0l-.83-.48A.06.06,0,0,1,102.75,65.69Z"/><path class="cls-39" d="M104.29,64.8h0a.07.07,0,0,1,0-.06l1.11-.65a.28.28,0,0,1,.22,0l.83.48a.08.08,0,0,1,0,.07h0s0,0,0,.06l-1.11.64a.22.22,0,0,1-.22,0l-.83-.48S104.29,64.82,104.29,64.8Z"/><path class="cls-39" d="M105.82,63.91h0a.08.08,0,0,1,.05-.07l5.41-3.12a.22.22,0,0,1,.22,0l.83.48s0,0,0,.07h0a.1.1,0,0,1,0,.07l-5.41,3.12a.22.22,0,0,1-.22,0l-.83-.48S105.82,63.94,105.82,63.91Z"/><path class="cls-39" d="M93.16,64.55s0,0,0,0l.91-.53a.11.11,0,0,1,.11,0l.21.12s0,0,0,0h0s0,0,0,0l-.91.53a.11.11,0,0,1-.11,0l-.21-.12s0,0,0,0h0Z"/><path class="cls-39" d="M109.66,55.36h0s0,0,0,0l-.92.53a.09.09,0,0,1-.1,0l-.21-.12s0,0,0,0h0l0,0,.91-.53a.11.11,0,0,1,.11,0l.21.12A.05.05,0,0,1,109.66,55.36Z"/><path class="cls-39" d="M108.39,56.09h0a0,0,0,0,1,0,0l-.91.52a.11.11,0,0,1-.11,0l-.21-.12,0,0h0s0,0,0,0l.91-.53h.11l.21.12A0,0,0,0,1,108.39,56.09Z"/><path class="cls-39" d="M107.12,56.82h0s0,0,0,0l-.91.53h-.11l-.21-.12s0,0,0,0h0s0,0,0,0l.91-.52a.11.11,0,0,1,.11,0l.21.12S107.12,56.81,107.12,56.82Z"/><path class="cls-39" d="M105.85,57.55h0s0,0,0,0l-.91.53a.11.11,0,0,1-.11,0l-.21-.12a0,0,0,0,1,0,0h0a0,0,0,0,1,0,0l.91-.52a.11.11,0,0,1,.11,0l.21.12S105.85,57.54,105.85,57.55Z"/><path class="cls-39" d="M104.58,58.29h0s0,0,0,0l-.91.53a.11.11,0,0,1-.11,0l-.21-.12s0,0,0,0h0s0,0,0,0l.91-.53a.11.11,0,0,1,.11,0l.21.12S104.59,58.27,104.58,58.29Z"/><path class="cls-39" d="M103.32,59h0a.05.05,0,0,1,0,0l-.91.52a.11.11,0,0,1-.11,0l-.21-.12,0,0h0s0,0,0,0l.91-.53h.11l.21.12A.05.05,0,0,1,103.32,59Z"/><path class="cls-39" d="M102.05,59.75h0a.05.05,0,0,1,0,0l-.92.53H101l-.21-.12,0,0h0a.05.05,0,0,1,0,0l.92-.52a.09.09,0,0,1,.1,0l.22.12Z"/><path class="cls-39" d="M100.78,60.48h0s0,0,0,0l-.92.53a.09.09,0,0,1-.1,0l-.22-.12,0,0h0l0,0,.92-.52a.11.11,0,0,1,.11,0l.21.12Z"/><path class="cls-39" d="M99.51,61.22h0l0,0-.92.53a.09.09,0,0,1-.1,0l-.21-.12s0,0,0,0h0s0,0,0,0l.91-.53a.11.11,0,0,1,.11,0l.21.12A.05.05,0,0,1,99.51,61.22Z"/><path class="cls-39" d="M98.24,62h0a0,0,0,0,1,0,0l-.91.52a.11.11,0,0,1-.11,0L97,62.52s0,0,0,0h0s0,0,0,0l.91-.53H98l.21.12A0,0,0,0,1,98.24,62Z"/><path class="cls-39" d="M97,62.68h0s0,0,0,0l-.91.53h-.11l-.21-.13s0,0,0,0h0s0,0,0,0l.91-.52a.11.11,0,0,1,.11,0l.21.12S97,62.67,97,62.68Z"/><path class="cls-39" d="M95.7,63.41h0s0,0,0,0l-.91.53a.11.11,0,0,1-.11,0L94.45,64a0,0,0,0,1,0,0h0a0,0,0,0,1,0,0l.91-.52a.11.11,0,0,1,.11,0l.21.12S95.71,63.4,95.7,63.41Z"/><path class="cls-39" d="M93.81,64.79,95.23,64a.24.24,0,0,1,.23,0l.82.47a.1.1,0,0,1,0,.07h0a.1.1,0,0,1,0,.08l-1.41.81a.26.26,0,0,1-.24,0l-.82-.47s0,0,0-.07h0S93.78,64.81,93.81,64.79Z"/><path class="cls-39" d="M108.22,56.48,109,56a.31.31,0,0,1,.23,0l.82.48s0,0,0,.07h0s0,0,0,.07l-.82.48a.31.31,0,0,1-.23,0l-.82-.48s0,0,0-.07h0S108.18,56.5,108.22,56.48Z"/><path class="cls-39" d="M107,57.2l.82-.48a.31.31,0,0,1,.23,0l.82.48s0,0,0,.07h0s0,.05,0,.07L108,58a.31.31,0,0,1-.23,0l-.82-.48s0,0,0-.07h0S106.93,57.22,107,57.2Z"/><path class="cls-39" d="M105.72,57.92l.82-.48a.33.33,0,0,1,.24,0l.82.48s.05,0,0,.07h0s0,.05,0,.07l-.82.48a.33.33,0,0,1-.24,0l-.82-.48s0,0,0-.07h0S105.69,57.94,105.72,57.92Z"/><path class="cls-39" d="M104.47,58.64l.82-.48a.33.33,0,0,1,.24,0l.82.48s.05,0,.05.07h0s0,0-.05.07l-.82.48a.33.33,0,0,1-.24,0l-.82-.48s0,0,0-.07h0S104.44,58.66,104.47,58.64Z"/><path class="cls-39" d="M103.23,59.36l.82-.48a.31.31,0,0,1,.23,0l.82.48s.05,0,.05.07h0s0,0-.05.07l-.82.48a.31.31,0,0,1-.23,0l-.82-.48s0,0,0-.07h0S103.19,59.38,103.23,59.36Z"/><path class="cls-39" d="M102,60.08l.82-.48a.31.31,0,0,1,.23,0l.82.48s.05,0,.05.07h0s0,0-.05.07l-.82.48a.31.31,0,0,1-.23,0l-.82-.48s0,0,0-.07h0S102,60.1,102,60.08Z"/><path class="cls-39" d="M100.73,60.8l.82-.48a.33.33,0,0,1,.24,0l.82.48s0,0,0,.07h0s0,0,0,.07l-.82.48a.33.33,0,0,1-.24,0l-.82-.48s0,0,0-.07h0S100.7,60.82,100.73,60.8Z"/><path class="cls-39" d="M99.48,61.52l.82-.48a.33.33,0,0,1,.24,0l.82.48s0,0,0,.07h0s0,.05,0,.07l-.82.48a.33.33,0,0,1-.24,0l-.82-.48s0,0,0-.07h0S99.45,61.54,99.48,61.52Z"/><path class="cls-39" d="M98.24,62.24l.82-.47a.24.24,0,0,1,.23,0l.82.47s0,0,0,.07h0s0,.05,0,.07l-.82.48a.31.31,0,0,1-.23,0l-.82-.48s0,0,0-.07h0S98.2,62.26,98.24,62.24Z"/><path class="cls-39" d="M97,63l.82-.47a.24.24,0,0,1,.23,0l.82.47s0,0,0,.07h0s0,.05,0,.07l-.82.48a.31.31,0,0,1-.23,0L97,63.23s0,0,0-.07h0S97,63,97,63Z"/><path class="cls-39" d="M95.74,63.68l.82-.47a.26.26,0,0,1,.24,0l.82.47s0,0,0,.07h0s0,0,0,.07l-.82.48a.25.25,0,0,1-.24,0L95.74,64s0,0,0-.07h0S95.71,63.7,95.74,63.68Z"/><path class="cls-39" d="M95.07,65.53l.82-.47a.25.25,0,0,1,.24,0l.81.47s0,0,0,.07h0s0,0,0,.07l-.81.48a.33.33,0,0,1-.24,0l-.82-.48s0,0,0-.07h0S95,65.55,95.07,65.53Z"/><path class="cls-39" d="M96.32,64.81l.82-.48a.33.33,0,0,1,.24,0l.81.48s0,0,0,.07h0s0,0,0,.07l-.81.47a.25.25,0,0,1-.24,0l-.82-.47s0,0,0-.07h0S96.29,64.83,96.32,64.81Z"/><path class="cls-39" d="M98.82,63.36l.82-.47a.25.25,0,0,1,.24,0l.81.47a.08.08,0,0,1,0,.07h0a.08.08,0,0,1,0,.07l-.81.47a.25.25,0,0,1-.24,0l-.82-.47a.1.1,0,0,1,0-.07h0A.1.1,0,0,1,98.82,63.36Z"/><path class="cls-39" d="M100.07,62.64l.82-.47a.25.25,0,0,1,.24,0l.81.47a.08.08,0,0,1,0,.07h0a.08.08,0,0,1,0,.07l-.81.47a.25.25,0,0,1-.24,0l-.82-.47a.1.1,0,0,1,0-.07h0A.1.1,0,0,1,100.07,62.64Z"/><path class="cls-39" d="M101.32,61.92l.82-.47a.25.25,0,0,1,.24,0l.81.47a.08.08,0,0,1,0,.07h0a.08.08,0,0,1,0,.08l-.81.47a.25.25,0,0,1-.24,0l-.82-.47a.1.1,0,0,1,0-.08h0A.1.1,0,0,1,101.32,61.92Z"/><path class="cls-39" d="M102.57,61.2l.82-.47a.25.25,0,0,1,.24,0l.81.47s0,0,0,.07h0s0,.05,0,.07l-.81.48a.33.33,0,0,1-.24,0l-.82-.48s0,0,0-.07h0S102.54,61.22,102.57,61.2Z"/><path class="cls-39" d="M103.82,60.48l.82-.48a.33.33,0,0,1,.24,0l.81.48s0,0,0,.07h0s0,0,0,.07l-.81.47a.25.25,0,0,1-.24,0l-.82-.47s0,0,0-.07h0S103.79,60.5,103.82,60.48Z"/><path class="cls-39" d="M105.07,59.75l.82-.47a.25.25,0,0,1,.24,0l.81.47a.08.08,0,0,1,0,.08h0a.08.08,0,0,1,0,.07l-.81.47a.25.25,0,0,1-.24,0l-.82-.47a.1.1,0,0,1,0-.07h0A.1.1,0,0,1,105.07,59.75Z"/><path class="cls-39" d="M106.32,59l.82-.47a.25.25,0,0,1,.24,0l.81.47a.08.08,0,0,1,0,.07h0a.08.08,0,0,1,0,.07l-.81.47a.25.25,0,0,1-.24,0l-.82-.47a.1.1,0,0,1,0-.07h0A.1.1,0,0,1,106.32,59Z"/><path class="cls-39" d="M107.57,58.31l.82-.47a.25.25,0,0,1,.24,0l.81.47a.08.08,0,0,1,0,.07h0a.08.08,0,0,1,0,.07l-.81.47a.25.25,0,0,1-.24,0l-.82-.47a.1.1,0,0,1,0-.07h0A.1.1,0,0,1,107.57,58.31Z"/><path class="cls-39" d="M96.36,66.28l1.71-1a.3.3,0,0,1,.23,0l.82.48a.08.08,0,0,1,0,.07h0s0,0,0,.07l-1.7,1a.3.3,0,0,1-.23,0l-.83-.48s0,0,0-.07h0S96.33,66.3,96.36,66.28Z"/><path class="cls-39" d="M97.67,67l2.21-1.28a.32.32,0,0,1,.3,0l.76.44a.1.1,0,0,1,.06.09h0a.12.12,0,0,1-.06.09l-2.21,1.28a.42.42,0,0,1-.31,0l-.75-.44a.11.11,0,0,1-.06-.09h0A.11.11,0,0,1,97.67,67Z"/><path class="cls-39" d="M100.38,65.41l.75-.43a.32.32,0,0,1,.3,0l.76.43a.12.12,0,0,1,.06.09h0a.12.12,0,0,1-.06.09l-.76.43a.32.32,0,0,1-.3,0l-.75-.43a.12.12,0,0,1-.06-.09h0A.12.12,0,0,1,100.38,65.41Z"/><path class="cls-39" d="M99,67.71l.74-.43a.36.36,0,0,1,.32,0l.74.43a.11.11,0,0,1,.06.09h0a.12.12,0,0,1-.06.1l-.74.43a.36.36,0,0,1-.32,0L99,68a.12.12,0,0,1-.06-.1h0A.11.11,0,0,1,99,67.71Z"/><path class="cls-39" d="M99.75,64.32l.83-.48a.22.22,0,0,1,.22,0l.83.48s.05,0,.05.07h0a.1.1,0,0,1-.05.07l-.83.48a.28.28,0,0,1-.22,0l-.83-.48a.1.1,0,0,1,0-.07h0S99.72,64.34,99.75,64.32Z"/><path class="cls-39" d="M98.51,65l.83-.48a.31.31,0,0,1,.23,0l.82.48s0,0,0,.07h0s0,0,0,.07l-.82.48a.24.24,0,0,1-.23,0l-.83-.48a.08.08,0,0,1,0-.07h0A.08.08,0,0,1,98.51,65Z"/><path class="cls-28" d="M109.91,55.23l1.47-.85a.07.07,0,0,0,0-.11l-.2-.11h-.06l-1.46.84s0,.09,0,.11l.19.12A.06.06,0,0,0,109.91,55.23Z"/><path class="cls-28" d="M108.72,55.91l.92-.53s0,0,0-.06l-.21-.12a.11.11,0,0,0-.11,0l-.91.53s0,0,0,.06l.21.12A.09.09,0,0,0,108.72,55.91Z"/><path class="cls-28" d="M107.46,56.64l.91-.52a0,0,0,0,0,0-.07l-.21-.12h-.11l-.91.53s0,0,0,.06l.21.12A.11.11,0,0,0,107.46,56.64Z"/><path class="cls-28" d="M106.19,57.38l.91-.53s0-.05,0-.06l-.21-.12a.11.11,0,0,0-.11,0l-.91.52s0,.05,0,.06l.21.13Z"/><path class="cls-28" d="M104.92,58.11l.91-.53s0,0,0-.06l-.21-.12a.11.11,0,0,0-.11,0l-.91.52a0,0,0,0,0,0,.07l.21.12A.11.11,0,0,0,104.92,58.11Z"/><path class="cls-28" d="M103.65,58.84l.91-.53s0,0,0-.06l-.21-.12a.11.11,0,0,0-.11,0l-.91.53s0,0,0,.06l.21.12A.11.11,0,0,0,103.65,58.84Z"/><path class="cls-28" d="M102.38,59.57l.91-.52a0,0,0,0,0,0-.07l-.21-.12H103l-.91.53s0,0,0,.06l.21.12A.11.11,0,0,0,102.38,59.57Z"/><path class="cls-28" d="M101.11,60.31l.92-.53s0-.05,0-.06l-.22-.12a.09.09,0,0,0-.1,0l-.92.52s0,.05,0,.06l.21.13Z"/><path class="cls-28" d="M99.84,61l.92-.53s0,0,0-.06l-.21-.12a.11.11,0,0,0-.11,0l-.92.52a0,0,0,0,0,0,.07l.22.12A.09.09,0,0,0,99.84,61Z"/><path class="cls-28" d="M98.57,61.77l.92-.53s0,0,0-.06l-.21-.12a.11.11,0,0,0-.11,0l-.91.53s0,0,0,.06l.21.12A.09.09,0,0,0,98.57,61.77Z"/><path class="cls-28" d="M97.31,62.5l.91-.52a0,0,0,0,0,0-.07L98,61.79H97.9l-.91.53s0,0,0,.06l.21.12A.11.11,0,0,0,97.31,62.5Z"/><path class="cls-28" d="M96,63.24l.91-.53s0-.05,0-.06l-.21-.12a.11.11,0,0,0-.11,0l-.91.52s0,.05,0,.06l.21.13Z"/><path class="cls-28" d="M94.77,64l.91-.53s0,0,0-.06l-.21-.12a.11.11,0,0,0-.11,0l-.91.52a0,0,0,0,0,0,.07l.21.12A.11.11,0,0,0,94.77,64Z"/><path class="cls-28" d="M93.5,64.7l.91-.53s0,0,0-.06L94.2,64a.11.11,0,0,0-.11,0l-.91.53s0,0,0,.06l.21.12A.11.11,0,0,0,93.5,64.7Z"/><path class="cls-28" d="M111.83,55.61l.82-.47a.08.08,0,0,0,0-.14l-.82-.47a.25.25,0,0,0-.24,0l-.82.47a.08.08,0,0,0,0,.14l.82.47A.26.26,0,0,0,111.83,55.61Z"/><path class="cls-28" d="M94.87,65.4l1.41-.81a.08.08,0,0,0,0-.14L95.46,64a.24.24,0,0,0-.23,0l-1.42.81a.08.08,0,0,0,0,.14l.82.47A.25.25,0,0,0,94.87,65.4Z"/><path class="cls-28" d="M110.52,56.37l.82-.48c.06,0,.06-.1,0-.13l-.82-.48a.33.33,0,0,0-.24,0l-.82.48c-.06,0-.06.09,0,.13l.82.48A.33.33,0,0,0,110.52,56.37Z"/><path class="cls-28" d="M109.27,57.09l.82-.48c.06,0,.06-.1,0-.13l-.82-.48a.31.31,0,0,0-.23,0l-.82.48c-.07,0-.07.09,0,.13l.82.48A.31.31,0,0,0,109.27,57.09Z"/><path class="cls-28" d="M108,57.81l.82-.48c.07,0,.07-.1,0-.13l-.82-.48a.31.31,0,0,0-.23,0l-.82.48c-.07,0-.07.09,0,.13l.82.48A.31.31,0,0,0,108,57.81Z"/><path class="cls-28" d="M106.78,58.53l.82-.48c.06,0,.06-.1,0-.13l-.82-.48a.33.33,0,0,0-.24,0l-.82.48c-.06,0-.06.09,0,.13l.82.48A.33.33,0,0,0,106.78,58.53Z"/><path class="cls-28" d="M105.53,59.25l.82-.48a.07.07,0,0,0,0-.13l-.82-.48a.33.33,0,0,0-.24,0l-.82.48a.07.07,0,0,0,0,.13l.82.48A.33.33,0,0,0,105.53,59.25Z"/><path class="cls-28" d="M104.28,60l.82-.48c.07,0,.07-.09,0-.13l-.82-.48a.31.31,0,0,0-.23,0l-.82.48c-.07,0-.07.1,0,.13l.82.48A.31.31,0,0,0,104.28,60Z"/><path class="cls-28" d="M103,60.69l.82-.48c.07,0,.07-.09,0-.13L103,59.6a.31.31,0,0,0-.23,0l-.82.48c-.07,0-.07.1,0,.13l.82.48A.31.31,0,0,0,103,60.69Z"/><path class="cls-28" d="M101.79,61.41l.82-.48c.06,0,.06-.09,0-.13l-.82-.48a.33.33,0,0,0-.24,0l-.82.48c-.06,0-.06.1,0,.13l.82.48A.33.33,0,0,0,101.79,61.41Z"/><path class="cls-28" d="M100.54,62.13l.82-.48c.06,0,.06-.09,0-.13l-.82-.48a.33.33,0,0,0-.24,0l-.82.48c-.06,0-.06.1,0,.13l.82.48A.33.33,0,0,0,100.54,62.13Z"/><path class="cls-28" d="M99.29,62.85l.82-.48c.07,0,.07-.09,0-.13l-.82-.47a.24.24,0,0,0-.23,0l-.82.47c-.07,0-.07.1,0,.13l.82.48A.31.31,0,0,0,99.29,62.85Z"/><path class="cls-28" d="M98,63.57l.82-.48c.07,0,.07-.09,0-.13L98,62.49a.24.24,0,0,0-.23,0L97,63c-.07,0-.07.1,0,.13l.82.48A.31.31,0,0,0,98,63.57Z"/><path class="cls-28" d="M96.8,64.29l.82-.48c.06,0,.06-.09,0-.13l-.82-.47a.25.25,0,0,0-.24,0l-.82.47c-.06,0-.06.1,0,.13l.82.48A.33.33,0,0,0,96.8,64.29Z"/><path class="cls-28" d="M112.4,56.74l1.51-.87c.07,0,.07-.1,0-.14l-.82-.47a.24.24,0,0,0-.23,0l-1.52.87a.08.08,0,0,0,0,.14l.82.47A.25.25,0,0,0,112.4,56.74Z"/><path class="cls-28" d="M96.13,66.14l.81-.48a.07.07,0,0,0,0-.13l-.81-.47a.25.25,0,0,0-.24,0l-.82.47a.07.07,0,0,0,0,.13l.82.48A.33.33,0,0,0,96.13,66.14Z"/><path class="cls-28" d="M97.38,65.41l.81-.47c.07,0,.07-.1,0-.13l-.81-.48a.33.33,0,0,0-.24,0l-.82.48c-.06,0-.06.09,0,.13l.82.47A.25.25,0,0,0,97.38,65.41Z"/><path class="cls-28" d="M98.63,64.69l.81-.47c.07,0,.07-.1,0-.14l-.81-.47a.25.25,0,0,0-.24,0l-.82.47a.08.08,0,0,0,0,.14l.82.47A.25.25,0,0,0,98.63,64.69Z"/><path class="cls-28" d="M99.88,64l.81-.47c.07,0,.07-.1,0-.14l-.81-.47a.25.25,0,0,0-.24,0l-.82.47a.08.08,0,0,0,0,.14l.82.47A.25.25,0,0,0,99.88,64Z"/><path class="cls-28" d="M101.13,63.25l.81-.47c.07,0,.07-.1,0-.14l-.81-.47a.25.25,0,0,0-.24,0l-.82.47a.08.08,0,0,0,0,.14l.82.47A.25.25,0,0,0,101.13,63.25Z"/><path class="cls-28" d="M102.38,62.53l.81-.47c.07,0,.07-.1,0-.14l-.81-.47a.25.25,0,0,0-.24,0l-.82.47a.08.08,0,0,0,0,.14l.82.47A.25.25,0,0,0,102.38,62.53Z"/><path class="cls-28" d="M103.63,61.81l.81-.48c.07,0,.07-.09,0-.13l-.81-.47a.25.25,0,0,0-.24,0l-.82.47c-.06,0-.06.1,0,.13l.82.48A.33.33,0,0,0,103.63,61.81Z"/><path class="cls-28" d="M104.88,61.08l.81-.47c.07,0,.07-.1,0-.13l-.81-.48a.33.33,0,0,0-.24,0l-.82.48c-.06,0-.06.09,0,.13l.82.47A.25.25,0,0,0,104.88,61.08Z"/><path class="cls-28" d="M106.13,60.36l.81-.47c.07,0,.07-.1,0-.14l-.81-.47a.25.25,0,0,0-.24,0l-.82.47a.08.08,0,0,0,0,.14l.82.47A.25.25,0,0,0,106.13,60.36Z"/><path class="cls-28" d="M107.38,59.64l.81-.47c.07,0,.07-.1,0-.14l-.81-.47a.25.25,0,0,0-.24,0l-.82.47a.08.08,0,0,0,0,.14l.82.47A.25.25,0,0,0,107.38,59.64Z"/><path class="cls-28" d="M108.63,58.92l.81-.47c.07,0,.07-.1,0-.14l-.81-.47a.25.25,0,0,0-.24,0l-.82.47a.08.08,0,0,0,0,.14l.82.47A.25.25,0,0,0,108.63,58.92Z"/><path class="cls-28" d="M109.88,58.2l.81-.47c.07,0,.07-.1,0-.14l-.81-.47a.25.25,0,0,0-.24,0l-.82.47a.08.08,0,0,0,0,.14l.82.47A.25.25,0,0,0,109.88,58.2Z"/><path class="cls-28" d="M111.13,57.48l.81-.48c.07,0,.07-.09,0-.13l-.81-.47a.25.25,0,0,0-.24,0l-.82.47c-.06,0-.06.1,0,.13l.82.48A.33.33,0,0,0,111.13,57.48Z"/><path class="cls-28" d="M113.19,57.76l2-1.16c.07,0,.07-.09,0-.13l-.82-.48a.3.3,0,0,0-.23,0l-2,1.16c-.06,0-.06.1,0,.13l.82.48A.3.3,0,0,0,113.19,57.76Z"/><path class="cls-28" d="M97.42,66.89l1.7-1c.07,0,.07-.09,0-.13l-.82-.48a.3.3,0,0,0-.23,0l-1.71,1c-.06,0-.06.1,0,.13l.83.48A.3.3,0,0,0,97.42,66.89Z"/><path class="cls-28" d="M98.73,67.59l2.21-1.28c.08,0,.08-.13,0-.17l-.76-.44a.32.32,0,0,0-.3,0L97.67,67c-.08,0-.08.12,0,.17l.75.44A.42.42,0,0,0,98.73,67.59Z"/><path class="cls-28" d="M116.91,58.56l.83-.48c.06,0,.06-.1,0-.13l-.83-.48a.22.22,0,0,0-.22,0l-.84.48c-.06,0-.06.09,0,.13l.84.48A.28.28,0,0,0,116.91,58.56Z"/><path class="cls-28" d="M113.86,58.84l2.57-1.48a.1.1,0,0,0,0-.18l-.76-.43a.32.32,0,0,0-.3,0l-2.57,1.48a.1.1,0,0,0,0,.18l.75.43A.34.34,0,0,0,113.86,58.84Z"/><path class="cls-28" d="M115.64,59.29l.83-.48c.06,0,.06-.09,0-.13l-.83-.48a.3.3,0,0,0-.23,0l-.83.48c-.06,0-.06.09,0,.13l.83.48A.24.24,0,0,0,115.64,59.29Z"/><path class="cls-28" d="M114.33,60l.83-.48a.06.06,0,0,0,0-.12l-.83-.48a.22.22,0,0,0-.22,0l-.83.48c-.07,0-.07.09,0,.12l.83.48A.22.22,0,0,0,114.33,60Z"/><path class="cls-28" d="M112.77,61l1.11-.64c.06,0,.06-.1,0-.13L113,59.7a.22.22,0,0,0-.22,0l-1.11.64c-.06,0-.06.09,0,.13l.84.48A.28.28,0,0,0,112.77,61Z"/><path class="cls-28" d="M112.57,59.58l.76-.43a.1.1,0,0,0,0-.18l-.76-.43a.32.32,0,0,0-.3,0l-.75.43a.1.1,0,0,0,0,.18l.75.43A.32.32,0,0,0,112.57,59.58Z"/><path class="cls-28" d="M111.34,60.3l.75-.44c.08,0,.08-.12,0-.17l-.75-.43a.32.32,0,0,0-.3,0l-.76.43c-.08.05-.08.13,0,.17l.76.44A.32.32,0,0,0,111.34,60.3Z"/><path class="cls-28" d="M110.1,61l.75-.43c.08,0,.08-.13,0-.17L110.1,60a.32.32,0,0,0-.3,0l-.76.44c-.08,0-.08.12,0,.17l.76.43A.32.32,0,0,0,110.1,61Z"/><path class="cls-28" d="M108.86,61.73l.75-.44c.09,0,.09-.12,0-.17l-.75-.43a.32.32,0,0,0-.3,0l-.75.43c-.09.05-.09.13,0,.17l.75.44A.32.32,0,0,0,108.86,61.73Z"/><path class="cls-28" d="M107.62,62.44l.76-.43c.08,0,.08-.13,0-.17l-.76-.44a.32.32,0,0,0-.3,0l-.75.44c-.08,0-.08.12,0,.17l.75.43A.32.32,0,0,0,107.62,62.44Z"/><path class="cls-28" d="M106.39,63.16l.75-.43a.1.1,0,0,0,0-.18l-.75-.43a.34.34,0,0,0-.31,0l-.75.43a.1.1,0,0,0,0,.18l.75.43A.34.34,0,0,0,106.39,63.16Z"/><path class="cls-28" d="M105.15,63.88l.75-.44c.08,0,.08-.12,0-.17l-.75-.44a.32.32,0,0,0-.3,0l-.76.44c-.08,0-.08.12,0,.17l.76.44A.39.39,0,0,0,105.15,63.88Z"/><path class="cls-28" d="M103.91,64.59l.75-.43c.09,0,.09-.13,0-.18l-.75-.43a.32.32,0,0,0-.3,0l-.75.43c-.09.05-.09.13,0,.18l.75.43A.32.32,0,0,0,103.91,64.59Z"/><path class="cls-28" d="M102.67,65.31l.75-.44c.09-.05.09-.12,0-.17l-.75-.44a.39.39,0,0,0-.3,0l-.75.44c-.09,0-.09.12,0,.17l.75.44A.39.39,0,0,0,102.67,65.31Z"/><path class="cls-28" d="M101.43,66l.76-.43a.1.1,0,0,0,0-.18l-.76-.43a.32.32,0,0,0-.3,0l-.75.43a.1.1,0,0,0,0,.18l.75.43A.32.32,0,0,0,101.43,66Z"/><path class="cls-28" d="M100,68.32l.74-.43c.09,0,.09-.13,0-.18l-.74-.43a.36.36,0,0,0-.32,0l-.74.43a.1.1,0,0,0,0,.18l.74.43A.36.36,0,0,0,100,68.32Z"/><path class="cls-28" d="M101.3,67.57l.74-.42c.09-.05.09-.13,0-.18l-.74-.43a.34.34,0,0,0-.31,0l-.74.43c-.09,0-.09.13,0,.18l.74.42A.34.34,0,0,0,101.3,67.57Z"/><path class="cls-28" d="M102.61,66.82l.74-.43c.09,0,.09-.13,0-.18l-.74-.43a.34.34,0,0,0-.31,0l-.74.43c-.09.05-.09.13,0,.18l.74.43A.34.34,0,0,0,102.61,66.82Z"/><polygon class="cls-29" points="100.68 67.38 101.73 66.78 101.67 66.74 100.62 67.35 100.68 67.38"/><polygon class="cls-30" points="101.34 67.17 101.25 67.23 101.38 67.25 101.52 67.27 101.48 67.19 101.44 67.11 101.34 67.17"/><polygon class="cls-30" points="100.98 66.96 101.08 66.9 100.94 66.88 100.81 66.86 100.84 66.94 100.88 67.01 100.98 66.96"/><polygon class="cls-30" points="102.41 66.34 102.51 66.4 102.54 66.32 102.58 66.24 102.45 66.26 102.31 66.28 102.41 66.34"/><polygon class="cls-30" points="99.93 67.77 99.83 67.71 99.8 67.79 99.76 67.87 99.9 67.85 100.03 67.83 99.93 67.77"/><path class="cls-28" d="M111.92,58.51l.82-.48c.06,0,.06-.09,0-.13l-.82-.48a.3.3,0,0,0-.23,0l-.83.48c-.06,0-.06.09,0,.13l.83.48A.3.3,0,0,0,111.92,58.51Z"/><path class="cls-28" d="M110.68,59.22l.83-.48c.06,0,.06-.09,0-.13l-.83-.47a.24.24,0,0,0-.23,0l-.82.47c-.07,0-.07.1,0,.13l.82.48A.24.24,0,0,0,110.68,59.22Z"/><path class="cls-28" d="M109.45,59.93l.82-.47c.06,0,.06-.1,0-.13l-.82-.48a.24.24,0,0,0-.23,0l-.83.48c-.06,0-.06.09,0,.13l.83.47A.24.24,0,0,0,109.45,59.93Z"/><path class="cls-28" d="M108.21,60.65l.83-.48c.06,0,.06-.1,0-.13l-.83-.48a.3.3,0,0,0-.23,0l-.82.48c-.07,0-.07.09,0,.13l.82.48A.3.3,0,0,0,108.21,60.65Z"/><path class="cls-28" d="M107,61.36l.82-.48c.07,0,.07-.09,0-.13l-.82-.48a.3.3,0,0,0-.23,0l-.83.48c-.06,0-.06.1,0,.13l.83.48A.24.24,0,0,0,107,61.36Z"/><path class="cls-28" d="M105.74,62.07l.83-.47a.08.08,0,0,0,0-.14l-.83-.47a.24.24,0,0,0-.23,0l-.82.47a.08.08,0,0,0,0,.14l.82.47A.24.24,0,0,0,105.74,62.07Z"/><path class="cls-28" d="M104.51,62.79l.82-.48c.07,0,.07-.1,0-.13l-.82-.48a.24.24,0,0,0-.23,0l-.83.48c-.06,0-.06.09,0,.13l.83.48A.3.3,0,0,0,104.51,62.79Z"/><path class="cls-28" d="M103.27,63.5l.83-.48c.06,0,.06-.09,0-.13l-.83-.48a.3.3,0,0,0-.23,0l-.82.48c-.06,0-.06.1,0,.13l.82.48A.24.24,0,0,0,103.27,63.5Z"/><path class="cls-28" d="M102,64.21l.82-.47c.07,0,.07-.1,0-.14l-.82-.47a.24.24,0,0,0-.23,0l-.83.47a.08.08,0,0,0,0,.14l.83.47A.24.24,0,0,0,102,64.21Z"/><path class="cls-28" d="M100.8,64.93l.83-.48c.06,0,.06-.1,0-.13l-.83-.48a.22.22,0,0,0-.22,0l-.83.48c-.06,0-.06.09,0,.13l.83.48A.28.28,0,0,0,100.8,64.93Z"/><path class="cls-28" d="M99.57,65.64l.82-.48c.07,0,.07-.09,0-.13l-.82-.48a.31.31,0,0,0-.23,0l-.83.48c-.06,0-.06.1,0,.13l.83.48A.31.31,0,0,0,99.57,65.64Z"/><path class="cls-28" d="M103.85,66.09l1.11-.64a.06.06,0,0,0,0-.12l-.83-.48a.22.22,0,0,0-.22,0l-1.11.64c-.07,0-.07.09,0,.12l.83.48A.22.22,0,0,0,103.85,66.09Z"/><path class="cls-28" d="M105.39,65.2l1.11-.64c.06,0,.06-.09,0-.13l-.83-.48a.28.28,0,0,0-.22,0l-1.11.65a.06.06,0,0,0,0,.12l.83.48A.22.22,0,0,0,105.39,65.2Z"/><path class="cls-28" d="M106.92,64.32l5.41-3.12c.06,0,.06-.1,0-.13l-.83-.48a.22.22,0,0,0-.22,0l-5.41,3.12c-.06,0-.06.1,0,.13l.83.48A.22.22,0,0,0,106.92,64.32Z"/><path class="cls-40" d="M126.05,45.14c0,4.48,1,10.16,5.88,8.11,3-1.27,5.87-3.63,5.87-8.11S135.17,37,131.93,37,126.05,40.66,126.05,45.14Z"/><path class="cls-41" d="M140.59,54.46c-.37-4.66-3.54-12.77-3.54-12.77l-5.87,3.12s1.26,10.35.75,15.43C131.39,65.55,140.59,54.46,140.59,54.46Z"/><path class="cls-42" d="M141.62,53.81s.19-3.17-.56-2.71-8.2,3.92-9.32,5.5S127.4,63,127.4,63Z"/><path class="cls-43" d="M141.9,53.06a21.92,21.92,0,0,0,1.68,3.73l-13.94,4.1s.23-1.12,2.94-3.73S141.9,53.06,141.9,53.06Z"/><path class="cls-44" d="M142.57,55.58c-15.65,3-18.66,6.61-20,10.34S120,83.07,119.25,85.68s4.66,6.9,7.46,7.46S140.5,87,141.25,84.75s5.43-14.82,6-20.78S145.14,55.09,142.57,55.58Z"/><path class="cls-45" d="M124.75,63.27c-7.41-.84-11.61-1-12.72-.28s7,7.13,9.22,7S124.75,63.27,124.75,63.27Z"/><path class="cls-46" d="M126.71,60.75c6.46,0,2.09,10.63.28,13.56s-11.89,4.34-15.1,4.2-9.51-13.15-7.27-13.29,10.34,6,10.34,6S125.31,60.75,126.71,60.75Z"/><path class="cls-9" d="M128.94,101.23,141.08,92c2.36-1.36,3-5.3,4.29-8.19,2.07-4.82,4.47-5.08,5.69-10.65.67-3.07-3.53-5.84-5.89-4.48l-12.86,7.42c-2.36,1.37-3.38,5.19-4.29,8.2-1.85,6.19-3.76,12.3-3.76,12.3C123.78,99.92,126.58,102.59,128.94,101.23Z"/><path class="cls-15" d="M129.87,100.9l12.86-7.43c2.36-1.36,3.05-5.3,4.29-8.19,2.07-4.81,2.87-6.32,4.09-11.89.67-3.07-1.93-4.6-4.29-3.24L134,77.58c-2.36,1.36-3.38,5.18-4.29,8.19-1.85,6.19-3.76,12.16-3.76,12.16C125.36,100.82,127.51,102.26,129.87,100.9Z"/><path class="cls-7" d="M112.63,94.44c-4.36,15.5-4.19,16.59-3,17.9s1.68-1.21,2.89-4.85C114.38,102,115,97,116.17,97S112.63,94.44,112.63,94.44Z"/><path class="cls-47" d="M139,48.77c-2.68,1.79-4.85-1.67-5.13-3.26s-1.77-.74-2.42,2-.47-2-.93-3.36-3,1.77-5.69,1.21-4.47-7-1.68-7.45,2.8,1.86,2.8,1.86,2-6.62,7.46-5,7.92,4.75,7,8.2S139.85,48.21,139,48.77Z"/><path class="cls-47" d="M132.3,44.58a37,37,0,0,0-.1,8.76s-3.72,1.31-4.84.93-.56-3.63-.56-3.63a1.77,1.77,0,0,0,2.7,0c1.31-1.49,1.31-3.92,1.59-6.15S132.3,44.58,132.3,44.58Z"/><path class="cls-40" d="M105,66.34c2.82,1-.45-3.39-1.74-3.42s-2.08-.26-2.41.07.65,1.58,1,2.19S104.34,66.11,105,66.34Z"/><path class="cls-40" d="M112.35,63.87c2.93.66-.49-4.09-1.77-4s-2.83.29-3.12.65,1.89,1.73,2.33,2.29A5.63,5.63,0,0,0,112.35,63.87Z"/><path class="cls-48" d="M73.89,57.11l-1.27,0L60,50.51a.58.58,0,0,1,0-1L78.4,38.08A1.52,1.52,0,0,1,79.89,38l1.52.77Z"/><path class="cls-49" d="M61,49.37a.43.43,0,0,1,.23-.36L79.84,37.42a1.38,1.38,0,0,1,1.22,0L93.48,44s.07,0,.06.09h0v.06s0,0,0,0,0,0,0,0h0v.12h0v.1h0s0,0,0,0a0,0,0,0,1,0,0v.08h0v.1h0v.06s0,0,0,0,0,0,0,0v0h0a.12.12,0,0,1-.06.1l-1.67,1a.33.33,0,0,1-.29,0,.31.31,0,0,0-.28,0L75.75,55.67h0v.1h0s0,0,0,0v.1h0v0a.09.09,0,0,1-.06.09l-1.67,1a.31.31,0,0,1-.28,0L61.31,50.46a.43.43,0,0,1-.26-.35v0h0V50h0v-.1h0v-.12h0v-.1h0v-.12h0v-.1Z"/><path class="cls-50" d="M91.53,45.22h0a.31.31,0,0,0-.28,0L75.67,54.94c-.08.05-.08.12,0,.17h0c.08,0,.09.11,0,.16l-1.68,1a.28.28,0,0,1-.28,0L61.29,49.7a.36.36,0,0,1,0-.69L79.84,37.42a1.38,1.38,0,0,1,1.22,0L93.48,44c.08,0,.08.11,0,.16l-1.68,1.05A.34.34,0,0,1,91.53,45.22Z"/><path class="cls-51" d="M73.48,42,68.77,45a.21.21,0,0,0,0,.35l3.41,1.81a.53.53,0,0,0,.53,0l4.61-2.87a.28.28,0,0,0,0-.48L74,42A.57.57,0,0,0,73.48,42Z"/><path class="cls-39" d="M74.88,54.29h0v0h0v0h0v0s0,0,0,0l1-.6a.13.13,0,0,1,.12,0l.23.12a.05.05,0,0,1,0,0h0v0h0v0h0v0a0,0,0,0,1,0,0l-1,.6a.13.13,0,0,1-.12,0l-.23-.12A.05.05,0,0,1,74.88,54.29Z"/><path class="cls-39" d="M76.22,53.46v0h0v0h0v0h0s0,0,0,0l1-.6a.13.13,0,0,1,.12,0l.23.12s0,0,0,0h0v0s0,0,0,0,0,0,0,0v0h0s0,0,0,0l-1,.6a.11.11,0,0,1-.11,0l-.23-.13Z"/><path class="cls-39" d="M77.56,52.62h0v0h0s0,0,0,0,0,0,0,0v0h0s0,0,0,0l1-.61a.14.14,0,0,1,.11,0l.24.12a.08.08,0,0,1,0,0v0h0v0h0v0h0s0,0,0,0l-1,.6a.13.13,0,0,1-.12,0l-.23-.12S77.56,52.64,77.56,52.62Z"/><path class="cls-39" d="M78.9,51.79v0h0v0h0v0h0a0,0,0,0,1,0,0l1-.6A.13.13,0,0,1,80,51l.23.12s0,0,0,0h0v0h0v0h0a.06.06,0,0,1,0,.05l-1,.6a.17.17,0,0,1-.12,0l-.23-.12S78.89,51.8,78.9,51.79Z"/><path class="cls-39" d="M80.23,51h0v0h0v0h0s0,0,0,0l1-.6a.17.17,0,0,1,.12,0l.23.13s0,0,0,0,0,0,0,0,0,0,0,0a0,0,0,0,1,0,0h0v0h0v0h0a0,0,0,0,1,0,0l-1,.6a.14.14,0,0,1-.11,0L80.26,51S80.23,51,80.23,51Z"/><path class="cls-39" d="M81.57,50.12h0v0h0v0h0s0,0,0,0,0,0,0,0l1-.6a.13.13,0,0,1,.12,0l.23.12a0,0,0,0,1,0,0h0v0h0v0s0,0,0,0,0,0,0,0h0v0a.05.05,0,0,1,0,0l-1,.6a.11.11,0,0,1-.11,0l-.24-.12A0,0,0,0,1,81.57,50.12Z"/><path class="cls-39" d="M82.91,49.28h0s0,0,0,0,0,0,0,0h0v0h0a.05.05,0,0,1,0,0l1-.6a.14.14,0,0,1,.11,0l.23.13s0,0,0,0h0v0h0v0h0s0,0,0,0l-1,.6a.16.16,0,0,1-.12,0l-.23-.13S82.9,49.3,82.91,49.28Z"/><path class="cls-39" d="M84.24,48.45h0v0h0v0h0v0s0,0,0,0l1-.6a.13.13,0,0,1,.12,0l.23.12a.05.05,0,0,1,0,0h0v0h0v0h0v0a0,0,0,0,1,0,0l-1,.6a.13.13,0,0,1-.12,0l-.23-.12A.05.05,0,0,1,84.24,48.45Z"/><path class="cls-39" d="M85.58,47.62v0h0v0h0v0h0s0,0,0,0l1-.6a.13.13,0,0,1,.12,0l.23.12s0,0,0,0h0s0,0,0,0,0,0,0,0h0v0h0a.05.05,0,0,1,0,0l-1,.6a.11.11,0,0,1-.11,0l-.23-.12S85.58,47.63,85.58,47.62Z"/><path class="cls-39" d="M86.92,46.78h0v0h0s0,0,0,0,0,0,0,0h0s0,0,0,0l1-.6A.11.11,0,0,1,88,46l.24.12a0,0,0,0,1,0,0v0h0v0h0v0s0,0,0,0,0,0,0,0l-1,.6a.13.13,0,0,1-.12,0l-.23-.12S86.92,46.8,86.92,46.78Z"/><path class="cls-39" d="M88.26,46s0,0,0,0,0,0,0,0a0,0,0,0,1,0,0h0v0h0v0h0a0,0,0,0,1,0,0l1-.6a.11.11,0,0,1,.11,0l.23.12a.05.05,0,0,1,0,0h0v0h0v0h0s0,0,0,0l-1,.6a.13.13,0,0,1-.12,0L88.28,46S88.25,46,88.26,46Z"/><path class="cls-39" d="M89.59,45.11h0v0h0v0h0s0,0,0,0l1-.6a.17.17,0,0,1,.12,0l.23.13s0,0,0,0,0,0,0,0h0v0h0v0h0a0,0,0,0,1,0,0l-1,.6a.17.17,0,0,1-.12,0l-.23-.13S89.59,45.13,89.59,45.11Z"/><path class="cls-39" d="M90.93,44.28h0v0h0v0h0v0s0,0,0,0l1-.6a.13.13,0,0,1,.12,0l.23.12a0,0,0,0,1,0,0h0v0h0s0,0,0,0,0,0,0,0h0v0a.05.05,0,0,1,0,0l-1,.6a.11.11,0,0,1-.11,0L91,44.32A.08.08,0,0,1,90.93,44.28Z"/><path class="cls-39" d="M91.57,43.56l-1.48.93a.27.27,0,0,1-.26,0L88.94,44a.1.1,0,0,1-.06-.07v0h0v0h0v0h0s0-.06.05-.08l1.48-.93a.31.31,0,0,1,.25,0l.9.48a.09.09,0,0,1,.06.08h0v0h0v0h0S91.61,43.54,91.57,43.56Z"/><path class="cls-52" d="M76.39,53l-.86.54a.25.25,0,0,1-.25,0l-.9-.48s-.06,0-.06-.07v0h0v0h0v0h0a.08.08,0,0,1,.05-.08l.86-.54a.28.28,0,0,1,.25,0l.9.48a.09.09,0,0,1,.06.08h0v0h0v0h0S76.43,53,76.39,53Z"/><path class="cls-39" d="M77.71,52.21l-.87.54a.25.25,0,0,1-.25,0l-.9-.48a.08.08,0,0,1,0-.07v0h0v0h0s0,0,0,0v0h0a.1.1,0,0,1,.05-.08l.87-.54a.28.28,0,0,1,.25,0l.9.48a.08.08,0,0,1,0,.08h0v0h0v0h0A.1.1,0,0,1,77.71,52.21Z"/><path class="cls-39" d="M79,51.39l-.86.54a.25.25,0,0,1-.25,0l-.9-.48a.1.1,0,0,1-.06-.07v0h0v0h0v0h0a.08.08,0,0,1,0-.08l.86-.54a.28.28,0,0,1,.25,0l.9.48a.09.09,0,0,1,.06.08h0v0h0v0h0S79.06,51.37,79,51.39Z"/><path class="cls-39" d="M80.34,50.57l-.87.54a.25.25,0,0,1-.25,0l-.9-.48a.08.08,0,0,1,0-.07v0h0v0h0v0h0a.1.1,0,0,1,0-.08l.87-.54a.28.28,0,0,1,.25,0l.9.48a.08.08,0,0,1,0,.08h0v0h0s0,0,0,0v0h0A.1.1,0,0,1,80.34,50.57Z"/><path class="cls-39" d="M81.65,49.75l-.86.54a.25.25,0,0,1-.25,0l-.9-.48a.1.1,0,0,1-.06-.07v0h0v0h0v0h0s0-.06,0-.08l.86-.54a.28.28,0,0,1,.25,0l.9.48a.09.09,0,0,1,.06.08h0v0h0v0h0S81.69,49.73,81.65,49.75Z"/><path class="cls-39" d="M83,48.93l-.87.54a.25.25,0,0,1-.25,0L81,49a.08.08,0,0,1,0-.07v0h0v0h0s0,0,0,0v0h0a.1.1,0,0,1,0-.08l.87-.54a.28.28,0,0,1,.25,0l.9.48a.08.08,0,0,1,.05.08h0v0h0s0,0,0,0h0A.1.1,0,0,1,83,48.93Z"/><path class="cls-39" d="M84.28,48.11l-.86.54a.25.25,0,0,1-.25,0l-.9-.48a.1.1,0,0,1-.06-.07v0h0v0h0v0h0s0-.06.05-.08l.86-.54a.28.28,0,0,1,.25,0l.9.48a.09.09,0,0,1,.06.08h0v0h0v0h0S84.32,48.09,84.28,48.11Z"/><path class="cls-39" d="M85.6,47.29l-.87.54a.28.28,0,0,1-.25,0l-.9-.48a.08.08,0,0,1,0-.08h0v0h0v0h0a.1.1,0,0,1,0-.08l.87-.54a.27.27,0,0,1,.25,0l.9.48a.08.08,0,0,1,0,.08h0v0h0s0,0,0,0v0h0A.1.1,0,0,1,85.6,47.29Z"/><path class="cls-39" d="M86.91,46.47l-.86.54a.28.28,0,0,1-.25,0l-.9-.48a.09.09,0,0,1-.06-.08h0v0h0v0h0s0-.06,0-.08l.86-.54a.28.28,0,0,1,.25,0l.9.48a.09.09,0,0,1,.06.08h0v0h0v0h0A.08.08,0,0,1,86.91,46.47Z"/><path class="cls-39" d="M88.23,45.65l-.87.54a.28.28,0,0,1-.25,0l-.9-.48a.08.08,0,0,1,0-.08h0v0h0s0,0,0,0h0v0h0a.1.1,0,0,1,0-.08l.87-.54a.27.27,0,0,1,.25,0l.9.48a.08.08,0,0,1,0,.08h0v0h0s0,0,0,0a0,0,0,0,1,0,0h0A.1.1,0,0,1,88.23,45.65Z"/><path class="cls-39" d="M89.54,44.83l-.86.54a.28.28,0,0,1-.25,0l-.9-.48a.09.09,0,0,1-.06-.08h0v0h0v0h0s0-.06,0-.08l.86-.54a.28.28,0,0,1,.25,0l.9.48a.09.09,0,0,1,.06.08h0v0h0v0h0A.08.08,0,0,1,89.54,44.83Z"/><path class="cls-39" d="M90.19,42.82l-.86.54a.31.31,0,0,1-.25,0l-.9-.48a.08.08,0,0,1-.05-.08h0v0h0s0,0,0,0h0v0h0a.14.14,0,0,1,0-.09l.86-.53a.27.27,0,0,1,.26,0l.89.48s.06,0,.06.07v0h0v0h0v0h0S90.23,42.8,90.19,42.82Z"/><path class="cls-39" d="M88.88,43.64l-.86.54a.3.3,0,0,1-.26,0l-.9-.48a.1.1,0,0,1,0-.08h0v0h0v0h0a.07.07,0,0,1,0-.08l.87-.54a.27.27,0,0,1,.25,0l.9.48a.08.08,0,0,1,0,.08h0v0h0s0,0,0,0h0A.1.1,0,0,1,88.88,43.64Z"/><path class="cls-39" d="M86.24,45.29l-.86.53a.25.25,0,0,1-.25,0l-.9-.48s-.06,0-.06-.07v0h0v0h0v0h0a.08.08,0,0,1,0-.08l.86-.54a.33.33,0,0,1,.26,0l.89.48a.09.09,0,0,1,.06.08h0v0h0v0h0A.11.11,0,0,1,86.24,45.29Z"/><path class="cls-39" d="M84.92,46.11l-.86.54a.28.28,0,0,1-.25,0l-.9-.47a.08.08,0,0,1,0-.08h0v0h0s0,0,0,0v0h0v0a.1.1,0,0,1,.05-.08l.86-.54a.3.3,0,0,1,.26,0l.89.47a.09.09,0,0,1,.06.08h0v0h0v0h0v0S85,46.08,84.92,46.11Z"/><path class="cls-39" d="M83.61,46.93l-.86.54a.34.34,0,0,1-.26,0l-.9-.48a.1.1,0,0,1,0-.08h0v0h0v0h0s0-.06,0-.09l.86-.53a.25.25,0,0,1,.25,0l.9.47s.05,0,.05.08v0h0v0h0v0h0A.1.1,0,0,1,83.61,46.93Z"/><path class="cls-39" d="M82.29,47.75l-.86.54a.3.3,0,0,1-.26,0l-.89-.48a.09.09,0,0,1-.06-.08h0v0h0v0h0s0-.06,0-.08l.86-.54a.28.28,0,0,1,.25,0l.9.48s.06.05,0,.07v0s0,0,0,0h0v0h0v0h0A.08.08,0,0,1,82.29,47.75Z"/><path class="cls-39" d="M81,48.57l-.86.54a.28.28,0,0,1-.25,0l-.9-.48a.09.09,0,0,1-.06-.08h0v0h0v0h0a.08.08,0,0,1,0-.08l.86-.54a.3.3,0,0,1,.26,0l.89.48a.09.09,0,0,1,.06.08h0v0h0v0h0A.08.08,0,0,1,81,48.57Z"/><path class="cls-39" d="M79.65,49.4l-.86.53a.25.25,0,0,1-.25,0l-.9-.48a.08.08,0,0,1,0-.07v0h0v0h0v0h0a.1.1,0,0,1,0-.08l.86-.54a.3.3,0,0,1,.26,0l.89.48a.09.09,0,0,1,.06.08h0v0h0v0h0S79.69,49.37,79.65,49.4Z"/><path class="cls-39" d="M78.34,50.22l-.86.53a.27.27,0,0,1-.26,0l-.9-.47a.1.1,0,0,1,0-.08h0v0h0v0h0v0s0-.06,0-.08l.86-.54a.28.28,0,0,1,.25,0l.9.47a.08.08,0,0,1,0,.08h0v0h0v0s0,0,0,0h0v0A.15.15,0,0,1,78.34,50.22Z"/><path class="cls-52" d="M77,51l-.86.54a.3.3,0,0,1-.26,0L75,51.11A.09.09,0,0,1,75,51h0v0h0v0h0v0s0,0,0-.08l.86-.53a.25.25,0,0,1,.25,0l.9.47s.06,0,0,.08h0v0h0v0h0v0h0A.08.08,0,0,1,77,51Z"/><path class="cls-39" d="M88.78,42.06,87,43.18a.28.28,0,0,1-.25,0l-.9-.48s-.06-.05,0-.08h0s0,0,0,0,0,0,0,0h0v0h0a.08.08,0,0,1,0-.08l1.8-1.12a.23.23,0,0,1,.24,0l.91.48a.08.08,0,0,1,0,.07v0h0v0s0,0,0,0h0v0h0A.1.1,0,0,1,88.78,42.06Z"/><path class="cls-39" d="M87.35,41.36,85,42.81a.38.38,0,0,1-.33,0l-.82-.44a.1.1,0,0,1-.07-.1h0v0h0v0h0s0-.07.07-.1l2.33-1.46a.36.36,0,0,1,.32,0l.82.44s.08.06.07.1h0v0h0v0h0A.14.14,0,0,1,87.35,41.36Z"/><path class="cls-39" d="M84.49,43.14l-.79.49a.35.35,0,0,1-.33,0l-.82-.44a.1.1,0,0,1-.07-.09v0h0v0h0v0h0a.13.13,0,0,1,.07-.1l.79-.5a.36.36,0,0,1,.32,0l.83.44s.07.06.07.1h0v0h0v0h0v0S84.54,43.11,84.49,43.14Z"/><path class="cls-39" d="M85.93,40.62l-.78.48a.37.37,0,0,1-.34,0L84,40.68a.1.1,0,0,1-.07-.1h0v0h0v0h0a.13.13,0,0,1,.07-.11l.78-.48a.37.37,0,0,1,.34,0l.81.44a.1.1,0,0,1,.07.1h0v0h0v0h0A.1.1,0,0,1,85.93,40.62Z"/><path class="cls-39" d="M85.21,44.29l-.87.55a.31.31,0,0,1-.25,0l-.9-.49s-.06,0,0-.07v0h0v0h0v0h0s0,0,.05-.08l.87-.54a.26.26,0,0,1,.24,0l.91.48a.08.08,0,0,1,0,.08h0v0h0s0,0,0,0h0v0h0A.08.08,0,0,1,85.21,44.29Z"/><path class="cls-39" d="M86.51,43.48l-.87.54a.23.23,0,0,1-.24,0l-.91-.48s-.06,0,0-.07v0h0s0,0,0,0h0v0h0v0h0a.08.08,0,0,1,0-.08l.87-.54a.28.28,0,0,1,.25,0l.9.48s.06,0,0,.08h0s0,0,0,0h0v0h0v0h0A.08.08,0,0,1,86.51,43.48Z"/><path class="cls-52" d="M66,51.6a.08.08,0,0,1,0-.07L67,51a.29.29,0,0,1,.24,0l.91.49s0,0,0,.07h0v0h0v0h0v0s0,.05,0,.07l-.88.55a.25.25,0,0,1-.24,0l-.91-.49s0,0,0-.07h0v0h0s0,0,0,0h0Z"/><path class="cls-52" d="M73.07,55.27l1.54-1a.06.06,0,0,1,.07,0l.21.12a.07.07,0,0,1,0,.06h0v0h0v0h0a.08.08,0,0,1,0,.07l-1.54,1a0,0,0,0,1-.07,0l-.21-.11a.06.06,0,0,1,0-.06h0v0h0v0h0v0A0,0,0,0,1,73.07,55.27Z"/><path class="cls-52" d="M71.67,54.5l.87-.54a.31.31,0,0,1,.25,0l.9.48a.08.08,0,0,1,0,.08h0v0h0v0h0v0a.1.1,0,0,1,0,.08l-.87.54a.28.28,0,0,1-.25,0l-.9-.48s-.05,0-.05-.07h0v0h0v0h0s0,0,0,0,0,0,0,0A.1.1,0,0,1,71.67,54.5Z"/><path class="cls-52" d="M73.05,53.64l.87-.54a.31.31,0,0,1,.25,0l.9.48a.08.08,0,0,1,.05.08h0v0h0s0,0,0,0h0v0h0a.14.14,0,0,1,0,.09l-.87.53a.25.25,0,0,1-.25,0l-.9-.48s0,0,0-.07v0h0v0h0s0,0,0,0h0A.1.1,0,0,1,73.05,53.64Z"/><path class="cls-52" d="M70.29,53.76l1.59-1a.27.27,0,0,1,.26,0l.89.47a.09.09,0,0,1,.06.08h0v0h0v0h0v0s0,.06,0,.08l-1.59,1a.27.27,0,0,1-.26,0l-.89-.47a.09.09,0,0,1-.06-.08h0v0h0v0h0v0S70.25,53.78,70.29,53.76Z"/><path class="cls-39" d="M87.55,44.18s.06,0,0,.08h0s0,0,0,0h0v0h0v0h0a.08.08,0,0,1,0,.08L86.7,45a.3.3,0,0,1-.26,0l-.89-.48a.09.09,0,0,1-.06-.08h0v0h0v0h0s0-.06.05-.08l.86-.54a.28.28,0,0,1,.25,0Z"/><path class="cls-52" d="M73.68,51.64l.86-.53a.27.27,0,0,1,.26,0l.89.48a.1.1,0,0,1,.06.07v0h0v0h0v0h0s0,.06,0,.08l-.86.54a.28.28,0,0,1-.25,0l-.9-.48s-.06,0,0-.08h0v0h0v0h0A.11.11,0,0,1,73.68,51.64Z"/><path class="cls-52" d="M72.36,52.47l.86-.54a.3.3,0,0,1,.26,0l.89.48a.09.09,0,0,1,.06.08h0v0h0v0h0s0,.06-.05.08l-.86.54a.28.28,0,0,1-.25,0l-.9-.48a.08.08,0,0,1-.05-.08h0v0h0s0,0,0,0h0v0h0A.1.1,0,0,1,72.36,52.47Z"/><path class="cls-52" d="M68.88,53,71,51.7a.31.31,0,0,1,.25,0l.9.49s.06,0,0,.07h0s0,0,0,0h0v0h0v0a.1.1,0,0,1,0,.08L70,53.77a.25.25,0,0,1-.24,0l-.91-.48a.08.08,0,0,1,0-.08h0v0h0s0,0,0,0v0h0A.1.1,0,0,1,68.88,53Z"/><path class="cls-52" d="M67.53,52.25l2.71-1.69a.36.36,0,0,1,.32,0l.83.44s.07.06.07.1h0v0h0v0h0a.14.14,0,0,1-.06.11L68.69,53a.38.38,0,0,1-.33,0l-.82-.44c-.05,0-.07-.06-.07-.1h0v0h0v0h0v0S67.48,52.28,67.53,52.25Z"/><path class="cls-52" d="M69.51,50.7h0v0h0v0h0a.07.07,0,0,1,0,.08l-.88.54a.23.23,0,0,1-.24,0L67.44,51a.08.08,0,0,1,0-.08h0v0h0s0,0,0,0h0a.1.1,0,0,1,.05-.08l.88-.55a.25.25,0,0,1,.24,0l.91.48A.1.1,0,0,1,69.51,50.7Z"/><path class="cls-52" d="M70.89,49.84h0v0h0v0h0a.08.08,0,0,1,0,.08l-.87.55a.26.26,0,0,1-.24,0l-.91-.48s-.06,0,0-.08h0v0h0v0h0a.08.08,0,0,1,0-.08l.87-.54a.26.26,0,0,1,.24,0l.92.48A.1.1,0,0,1,70.89,49.84Z"/><path class="cls-52" d="M72.53,48.81h0v0h0s0,0,0,0v0h0v0a.08.08,0,0,1-.05.07l-1.17.73a.25.25,0,0,1-.24,0l-.91-.49s0,0,0-.07h0v0h0v0h0s0,0,0,0v0a.1.1,0,0,1,0-.07l1.17-.73a.26.26,0,0,1,.24,0l.91.49S72.53,48.78,72.53,48.81Z"/><path class="cls-52" d="M70.79,50.21l.8-.49a.33.33,0,0,1,.32,0l.83.44a.1.1,0,0,1,.07.09v0h0v0h0v0h0s0,.07-.06.1L72,51a.38.38,0,0,1-.33,0l-.82-.44s-.08-.06-.07-.1h0s0,0,0,0h0v0h0v0A.14.14,0,0,1,70.79,50.21Z"/><path class="cls-52" d="M72.1,49.4l.79-.5a.38.38,0,0,1,.33,0l.82.44s.07.06.07.1h0v0h0s0,0,0,0h0a.13.13,0,0,1-.07.11l-.79.49a.33.33,0,0,1-.32,0l-.83-.44a.1.1,0,0,1-.07-.1h0v0h0v0h0S72.05,49.43,72.1,49.4Z"/><path class="cls-52" d="M73.4,48.58l.8-.49a.33.33,0,0,1,.32,0l.83.44a.1.1,0,0,1,.07.09v0h0v0h0v0h0s0,.07-.06.1l-.8.5a.36.36,0,0,1-.32,0l-.82-.44s-.08-.06-.07-.1,0,0,0,0v0h0v0h0v0A.14.14,0,0,1,73.4,48.58Z"/><path class="cls-52" d="M74.71,47.77l.79-.5a.38.38,0,0,1,.33,0l.82.44s.07.06.07.1h0v0h0v0s0,0,0,0h0a.13.13,0,0,1-.07.11l-.79.49a.33.33,0,0,1-.32,0l-.83-.44a.1.1,0,0,1-.07-.09v0h0v0h0v0h0S74.66,47.8,74.71,47.77Z"/><path class="cls-39" d="M76,47l.8-.49a.33.33,0,0,1,.32,0l.83.44A.12.12,0,0,1,78,47v0h0v0h0v0h0a.12.12,0,0,1-.06.1l-.8.5a.36.36,0,0,1-.32,0L76,47.28s-.07-.06-.07-.1h0v0h0v0h0v0A.14.14,0,0,1,76,47Z"/><path class="cls-39" d="M77.32,46.14l.79-.5a.38.38,0,0,1,.33,0l.82.44s.07.06.07.1h0v0h0v0h0s0,0,0,0h0a.13.13,0,0,1-.07.11l-.79.49a.35.35,0,0,1-.33,0l-.82-.44a.1.1,0,0,1-.07-.09v0h0v0h0v0h0S77.27,46.17,77.32,46.14Z"/><path class="cls-39" d="M78.62,45.32l.8-.49a.33.33,0,0,1,.32,0l.83.44a.12.12,0,0,1,.07.09v0h0v0h0v0h0a.12.12,0,0,1-.06.1l-.8.5a.36.36,0,0,1-.32,0l-.83-.44s-.07-.06-.07-.1h0v0h0v0h0A.14.14,0,0,1,78.62,45.32Z"/><path class="cls-39" d="M79.93,44.51l.79-.5a.38.38,0,0,1,.33,0l.82.44s.07.06.07.1h0v0h0v0h0v0s0,.07-.06.1l-.79.49a.35.35,0,0,1-.33,0l-.82-.44a.1.1,0,0,1-.07-.09v0h0v0h0v0h0S79.88,44.54,79.93,44.51Z"/><path class="cls-39" d="M81.23,43.69l.8-.49a.33.33,0,0,1,.32,0l.83.44a.12.12,0,0,1,.07.09v0h0v0h0v0h0a.12.12,0,0,1-.06.1l-.8.5a.36.36,0,0,1-.32,0L81.24,44s-.07-.06-.07-.1h0v0h0v0h0A.14.14,0,0,1,81.23,43.69Z"/><path class="cls-39" d="M84.64,41.23h0v0h0v0h0v0a.13.13,0,0,1-.07.1l-.78.49a.35.35,0,0,1-.33,0l-.39-.21h0l-.07,0h0l-.35-.19c-.05,0-.08-.06-.08-.1h0v0h0v0h0v0h0s0-.07.06-.1l.78-.49a.37.37,0,0,1,.34,0l.81.43S84.64,41.19,84.64,41.23Z"/><path class="cls-39" d="M83.26,42.09h0v0h0v0h0v0h0s0,.07-.07.1l-.77.49a.37.37,0,0,1-.34,0l-.81-.43s-.08-.06-.08-.1h0v0h0v0h0v0s0-.07.06-.1l.78-.49a.37.37,0,0,1,.34,0l.81.43S83.26,42.05,83.26,42.09Z"/><path class="cls-52" d="M71.47,51.39l.87-.54a.25.25,0,0,1,.24,0l.91.48a.1.1,0,0,1,.05.08h0v0h0v0h0a.07.07,0,0,1,0,.08l-.87.55a.28.28,0,0,1-.25,0l-.9-.48a.1.1,0,0,1-.06-.07v0h0v0h0v0h0S71.43,51.41,71.47,51.39Z"/><path class="cls-52" d="M72.77,50.58l.87-.54a.25.25,0,0,1,.24,0l.91.48a.08.08,0,0,1,0,.08h0v0h0s0,0,0,0,0,0,0,0h0a.1.1,0,0,1,0,.08l-.87.54a.28.28,0,0,1-.25,0l-.9-.48a.09.09,0,0,1-.06-.08h0v0h0v0h0A.08.08,0,0,1,72.77,50.58Z"/><path class="cls-52" d="M74.07,49.77l.87-.55a.25.25,0,0,1,.24,0l.91.48a.08.08,0,0,1,0,.07v0h0s0,0,0,0h0v0h0a.08.08,0,0,1-.05.08l-.87.54a.28.28,0,0,1-.25,0l-.9-.48S74,50,74,50s0,0,0,0h0v0h0v0h0A.08.08,0,0,1,74.07,49.77Z"/><path class="cls-52" d="M75.37,49l.87-.55a.31.31,0,0,1,.25,0l.9.49s.06,0,0,.07,0,0,0,0,0,0,0,0h0v0h0v0s0,0,0,.08l-.87.54a.29.29,0,0,1-.24,0l-.91-.48s-.06-.05,0-.08h0v0h0s0,0,0,0h0v0h0v0A.08.08,0,0,1,75.37,49Z"/><path class="cls-39" d="M76.67,48.14l.87-.54a.31.31,0,0,1,.25,0l.9.48a.09.09,0,0,1,.06.08h0v0h0v0h0v0a.08.08,0,0,1,0,.07l-.87.55a.29.29,0,0,1-.24,0l-.91-.49s-.05,0-.05-.07h0v0h0v0s0,0,0,0h0v0h0S76.64,48.17,76.67,48.14Z"/><path class="cls-39" d="M78,47.33l.87-.54a.28.28,0,0,1,.25,0l.9.48a.09.09,0,0,1,.06.08h0v0h0v0h0s0,.06,0,.08l-.87.55a.25.25,0,0,1-.24,0L78,47.61a.1.1,0,0,1,0-.07v0h0v0h0v0h0A.07.07,0,0,1,78,47.33Z"/><path class="cls-39" d="M79.27,46.52l.87-.54a.25.25,0,0,1,.25,0l.91.48a.1.1,0,0,1,0,.08h0v0h0v0h0a.07.07,0,0,1,0,.08l-.88.54a.25.25,0,0,1-.24,0l-.91-.48a.1.1,0,0,1,0-.08h0v0h0v0h0A.07.07,0,0,1,79.27,46.52Z"/><path class="cls-39" d="M80.58,45.71l.87-.55a.25.25,0,0,1,.24,0l.91.48a.1.1,0,0,1,.05.07v0h0v0h0v0h0a.07.07,0,0,1,0,.08l-.87.54a.28.28,0,0,1-.25,0l-.9-.48a.09.09,0,0,1-.06-.08h0v0h0v0h0S80.54,45.73,80.58,45.71Z"/><path class="cls-39" d="M81.88,44.9l.87-.55a.29.29,0,0,1,.24,0l.91.49s0,0,0,.07h0v0h0v0h0v0a.15.15,0,0,1,0,.08l-.87.54a.31.31,0,0,1-.25,0l-.9-.49s-.06,0-.06-.07h0v0h0v0h0v0A.08.08,0,0,1,81.88,44.9Z"/><path class="cls-39" d="M81.93,43h0v0s0,0,0,0a0,0,0,0,1,0,0h0v0h0a.08.08,0,0,1,0,.08l-1.17.73a.29.29,0,0,1-.24,0l-.91-.49a.08.08,0,0,1,0-.07v0h0v0h0v0h0s0-.05,0-.08l1.17-.73a.25.25,0,0,1,.24,0l.91.48A.08.08,0,0,1,81.93,43Z"/><path class="cls-39" d="M80.31,44h0v0h0v0h0v0a.08.08,0,0,1,0,.07l-1.17.73a.24.24,0,0,1-.23,0l-.92-.49a.08.08,0,0,1,0-.07h0v0h0v0h0a.07.07,0,0,1,0-.08l1.17-.73a.29.29,0,0,1,.24,0l.91.49S80.31,43.93,80.31,44Z"/><path class="cls-52" d="M78.7,45v0h0v0h0v0h0a.08.08,0,0,1,0,.08L73,48.73a.25.25,0,0,1-.24,0l-.91-.48a.08.08,0,0,1,0-.08h0v0s0,0,0,0h0v0h0a.08.08,0,0,1,.05-.08l5.7-3.56a.25.25,0,0,1,.24,0l.91.48A.1.1,0,0,1,78.7,45Z"/><path class="cls-53" d="M74.61,54.31l-1.54,1a.06.06,0,0,0,0,.11l.21.12a.06.06,0,0,0,.07,0l1.54-1a.06.06,0,0,0,0-.11l-.21-.12A.06.06,0,0,0,74.61,54.31Z"/><path class="cls-28" d="M75.86,53.52l-1,.6a0,0,0,0,0,0,.07l.23.12a.13.13,0,0,0,.12,0l1-.6a0,0,0,0,0,0-.07L76,53.52A.13.13,0,0,0,75.86,53.52Z"/><path class="cls-28" d="M77.2,52.69l-1,.6a0,0,0,0,0,0,.07l.23.12a.13.13,0,0,0,.12,0l1-.6a0,0,0,0,0,0-.07l-.23-.12A.13.13,0,0,0,77.2,52.69Z"/><path class="cls-28" d="M78.54,51.85l-1,.61s0,0,0,.06l.23.13a.17.17,0,0,0,.12,0l1-.6a0,0,0,0,0,0-.07l-.24-.12A.14.14,0,0,0,78.54,51.85Z"/><path class="cls-28" d="M79.87,51l-1,.6a0,0,0,0,0,0,.07l.24.12a.11.11,0,0,0,.11,0l1-.6s0-.05,0-.07L80,51A.13.13,0,0,0,79.87,51Z"/><path class="cls-28" d="M81.21,50.19l-1,.6s0,.05,0,.06l.23.13a.16.16,0,0,0,.12,0l1-.6s0,0,0-.06l-.23-.13A.17.17,0,0,0,81.21,50.19Z"/><path class="cls-28" d="M82.55,49.35l-1,.6a0,0,0,0,0,0,.07l.23.12a.13.13,0,0,0,.12,0l1-.6a0,0,0,0,0,0-.07l-.23-.12A.13.13,0,0,0,82.55,49.35Z"/><path class="cls-28" d="M83.89,48.52l-1,.6s0,.05,0,.07l.23.12a.11.11,0,0,0,.11,0l1-.6s0-.05,0-.06L84,48.51A.14.14,0,0,0,83.89,48.52Z"/><path class="cls-28" d="M85.22,47.68l-1,.6a0,0,0,0,0,0,.07l.23.12a.13.13,0,0,0,.12,0l1-.6s0,0,0-.07l-.23-.12A.13.13,0,0,0,85.22,47.68Z"/><path class="cls-28" d="M86.56,46.85l-1,.6a0,0,0,0,0,0,.07l.23.12a.13.13,0,0,0,.12,0l1-.6a0,0,0,0,0,0-.07l-.23-.12A.13.13,0,0,0,86.56,46.85Z"/><path class="cls-28" d="M87.9,46l-1,.6s0,.05,0,.06l.23.13a.17.17,0,0,0,.12,0l1-.6a0,0,0,0,0,0-.07L88,46A.11.11,0,0,0,87.9,46Z"/><path class="cls-28" d="M89.24,45.18l-1,.6s0,0,0,.07l.23.12a.11.11,0,0,0,.11,0l1-.6s0,0,0-.07l-.23-.12A.11.11,0,0,0,89.24,45.18Z"/><path class="cls-28" d="M90.57,44.35l-1,.6s0,0,0,.06l.23.13a.13.13,0,0,0,.12,0l1-.6s0-.05,0-.06l-.23-.13A.17.17,0,0,0,90.57,44.35Z"/><path class="cls-28" d="M91.91,43.51l-1,.6a0,0,0,0,0,0,.07l.23.12a.13.13,0,0,0,.12,0l1-.6a0,0,0,0,0,0-.07L92,43.51A.13.13,0,0,0,91.91,43.51Z"/><path class="cls-53" d="M72.54,54l-.87.54a.08.08,0,0,0,0,.15l.9.48a.31.31,0,0,0,.25,0l.86-.54a.08.08,0,0,0,0-.15l-.9-.48A.31.31,0,0,0,72.54,54Z"/><path class="cls-28" d="M90.41,42.81l-1.48.93c-.07,0-.07.11,0,.14l.9.48a.25.25,0,0,0,.25,0l1.49-.92c.07,0,.06-.11,0-.15l-.9-.48A.31.31,0,0,0,90.41,42.81Z"/><path class="cls-53" d="M73.92,53.1l-.87.54a.08.08,0,0,0,0,.15l.9.47a.28.28,0,0,0,.25,0l.86-.54c.07,0,.07-.11,0-.15l-.9-.48A.31.31,0,0,0,73.92,53.1Z"/><path class="cls-53" d="M75.23,52.28l-.86.54a.08.08,0,0,0,0,.15l.9.47a.28.28,0,0,0,.25,0l.87-.54c.07,0,.06-.11,0-.15l-.9-.48A.28.28,0,0,0,75.23,52.28Z"/><path class="cls-28" d="M76.55,51.46l-.87.54a.08.08,0,0,0,0,.15l.9.47a.28.28,0,0,0,.25,0l.86-.54c.07,0,.07-.11,0-.15l-.9-.48A.28.28,0,0,0,76.55,51.46Z"/><path class="cls-28" d="M77.86,50.64l-.86.54a.08.08,0,0,0,0,.15l.9.47a.28.28,0,0,0,.25,0l.87-.54c.07,0,.06-.11,0-.15l-.9-.48A.28.28,0,0,0,77.86,50.64Z"/><path class="cls-28" d="M79.18,49.82l-.87.54c-.07,0-.06.11,0,.14l.9.48a.28.28,0,0,0,.25,0l.86-.54c.07,0,.07-.11,0-.15l-.9-.48A.28.28,0,0,0,79.18,49.82Z"/><path class="cls-28" d="M80.49,49l-.86.54c-.07,0-.07.11,0,.14l.9.48a.28.28,0,0,0,.25,0l.87-.54c.07,0,.06-.11,0-.15l-.9-.48A.28.28,0,0,0,80.49,49Z"/><path class="cls-28" d="M81.81,48.18l-.87.54c-.07,0-.06.11,0,.14l.9.48a.25.25,0,0,0,.25,0L83,48.8c.07,0,.07-.11,0-.15l-.9-.48A.28.28,0,0,0,81.81,48.18Z"/><path class="cls-28" d="M83.12,47.36l-.86.54c-.07,0-.07.11,0,.14l.9.48a.25.25,0,0,0,.25,0l.87-.53c.07,0,.06-.11,0-.15l-.9-.48A.28.28,0,0,0,83.12,47.36Z"/><path class="cls-28" d="M84.44,46.54l-.87.54c-.07,0-.06.11,0,.14l.9.48a.25.25,0,0,0,.25,0l.86-.53c.07,0,.07-.11,0-.15l-.9-.48A.27.27,0,0,0,84.44,46.54Z"/><path class="cls-28" d="M85.75,45.72l-.86.54c-.07,0-.07.11,0,.14l.9.48a.25.25,0,0,0,.25,0l.87-.54c.07,0,.06-.1,0-.14l-.9-.48A.28.28,0,0,0,85.75,45.72Z"/><path class="cls-28" d="M87.07,44.9l-.87.54c-.07,0-.06.11,0,.14l.9.48a.25.25,0,0,0,.25,0l.86-.54c.07,0,.07-.1,0-.14l-.9-.48A.27.27,0,0,0,87.07,44.9Z"/><path class="cls-28" d="M88.38,44.08l-.86.54c-.07,0-.07.11,0,.14l.9.48a.25.25,0,0,0,.25,0l.87-.54c.07,0,.06-.1,0-.14l-.9-.48A.28.28,0,0,0,88.38,44.08Z"/><path class="cls-53" d="M71.88,52.77l-1.59,1a.08.08,0,0,0,0,.15l.9.48a.31.31,0,0,0,.25,0l1.6-1c.07,0,.07-.11,0-.15l-.89-.47A.27.27,0,0,0,71.88,52.77Z"/><path class="cls-28" d="M89,42.07l-.86.53c-.07,0-.06.11,0,.15l.89.48a.3.3,0,0,0,.26,0l.86-.54c.07,0,.07-.11,0-.14l-.89-.48A.27.27,0,0,0,89,42.07Z"/><path class="cls-28" d="M87.72,42.89l-.87.54c-.06,0-.06.1,0,.14l.9.48A.28.28,0,0,0,88,44l.86-.54c.07,0,.07-.1,0-.14l-.9-.48A.27.27,0,0,0,87.72,42.89Z"/><path class="cls-28" d="M86.4,43.71l-.86.54c-.07,0-.07.11,0,.14l.9.48a.25.25,0,0,0,.25,0l.86-.53c.07,0,.07-.11,0-.15l-.9-.48A.28.28,0,0,0,86.4,43.71Z"/><path class="cls-28" d="M85.08,44.53l-.86.54c-.07,0-.07.11,0,.15l.89.47a.3.3,0,0,0,.26,0l.86-.54c.07,0,.06-.11,0-.15l-.89-.48A.33.33,0,0,0,85.08,44.53Z"/><path class="cls-28" d="M83.76,45.35l-.86.54c-.07,0-.06.11,0,.15l.89.48a.33.33,0,0,0,.26,0l.86-.54c.07,0,.07-.11,0-.15L84,45.35A.3.3,0,0,0,83.76,45.35Z"/><path class="cls-28" d="M82.45,46.18l-.86.53c-.07,0-.07.11,0,.15l.9.48a.28.28,0,0,0,.25,0l.86-.54a.08.08,0,0,0,0-.15l-.9-.47A.25.25,0,0,0,82.45,46.18Z"/><path class="cls-28" d="M81.13,47l-.86.54c-.07,0-.07.1,0,.14l.9.48a.28.28,0,0,0,.25,0l.86-.54c.07,0,.07-.11,0-.14l-.9-.48A.28.28,0,0,0,81.13,47Z"/><path class="cls-28" d="M79.81,47.82l-.86.54c-.07,0-.07.11,0,.14l.89.48a.27.27,0,0,0,.26,0l.86-.53c.07,0,.06-.11,0-.15l-.89-.48A.3.3,0,0,0,79.81,47.82Z"/><path class="cls-28" d="M78.49,48.64l-.86.54c-.07,0-.06.11,0,.15l.89.47a.27.27,0,0,0,.26,0l.86-.53c.07,0,.07-.11,0-.15l-.89-.48A.3.3,0,0,0,78.49,48.64Z"/><path class="cls-28" d="M77.18,49.46l-.86.54a.08.08,0,0,0,0,.15l.9.48a.31.31,0,0,0,.25,0l.86-.54a.08.08,0,0,0,0-.15l-.9-.47A.28.28,0,0,0,77.18,49.46Z"/><path class="cls-53" d="M75.86,50.29l-.86.53c-.07,0-.07.11,0,.15l.9.48a.28.28,0,0,0,.25,0L77,50.9a.08.08,0,0,0,0-.15l-.9-.47A.25.25,0,0,0,75.86,50.29Z"/><path class="cls-53" d="M74.54,51.11l-.86.53c-.07,0-.07.11,0,.15l.89.48a.3.3,0,0,0,.26,0l.86-.54c.07,0,.06-.11,0-.14l-.89-.48A.27.27,0,0,0,74.54,51.11Z"/><path class="cls-53" d="M73.22,51.93l-.86.54c-.07,0-.06.11,0,.14l.89.48a.27.27,0,0,0,.26,0l.86-.54c.07,0,.07-.1,0-.14l-.89-.48A.3.3,0,0,0,73.22,51.93Z"/><path class="cls-53" d="M71,51.7,68.88,53c-.07,0-.06.1,0,.14l.9.48a.28.28,0,0,0,.25,0l2.11-1.31a.07.07,0,0,0,0-.14l-.9-.49A.31.31,0,0,0,71,51.7Z"/><path class="cls-28" d="M87.62,41.31l-1.8,1.12c-.07,0-.06.1,0,.14l.91.48A.28.28,0,0,0,87,43l1.79-1.12c.07,0,.07-.1,0-.14l-.91-.48A.23.23,0,0,0,87.62,41.31Z"/><path class="cls-28" d="M86.19,40.6l-2.33,1.46c-.09,0-.09.13,0,.18l.83.44a.33.33,0,0,0,.32,0l2.33-1.45c.09-.06.09-.14,0-.19l-.82-.44A.36.36,0,0,0,86.19,40.6Z"/><path class="cls-53" d="M67,51l-.88.55a.08.08,0,0,0,0,.14l.92.48a.26.26,0,0,0,.24,0l.87-.54a.07.07,0,0,0,0-.14L67.21,51A.29.29,0,0,0,67,51Z"/><path class="cls-53" d="M70.24,50.56l-2.71,1.69c-.09.06-.09.14,0,.19l.83.44a.36.36,0,0,0,.32,0l2.71-1.69c.09-.06.09-.14,0-.19l-.83-.44A.36.36,0,0,0,70.24,50.56Z"/><path class="cls-53" d="M68.31,50.14l-.88.55c-.06,0-.06.1,0,.14l.91.49a.29.29,0,0,0,.24,0l.87-.55c.07,0,.07-.1,0-.14l-.91-.48A.25.25,0,0,0,68.31,50.14Z"/><path class="cls-53" d="M69.68,49.29l-.87.54c-.07,0-.07.1,0,.14l.91.49a.29.29,0,0,0,.24,0l.88-.55a.08.08,0,0,0,0-.14l-.92-.48A.26.26,0,0,0,69.68,49.29Z"/><path class="cls-53" d="M71.33,48.26,70.16,49c-.06,0-.06.1,0,.14l.91.48a.26.26,0,0,0,.24,0l1.17-.73c.06,0,.06-.1,0-.13l-.91-.49A.26.26,0,0,0,71.33,48.26Z"/><path class="cls-53" d="M71.59,49.72l-.8.49c-.08.06-.08.14,0,.19l.83.44a.36.36,0,0,0,.32,0l.79-.5c.09,0,.09-.14,0-.18l-.83-.44A.33.33,0,0,0,71.59,49.72Z"/><path class="cls-53" d="M72.89,48.9l-.79.5c-.09.05-.09.14,0,.18l.82.44a.35.35,0,0,0,.33,0l.79-.49c.09-.06.08-.14,0-.19l-.82-.44A.38.38,0,0,0,72.89,48.9Z"/><path class="cls-53" d="M74.2,48.09l-.8.49c-.08.06-.08.14,0,.19l.83.44a.36.36,0,0,0,.32,0l.79-.5c.09-.05.09-.14,0-.18l-.83-.44A.33.33,0,0,0,74.2,48.09Z"/><path class="cls-53" d="M75.5,47.27l-.79.5c-.09,0-.09.14,0,.18l.82.44a.33.33,0,0,0,.32,0l.8-.49c.09-.06.08-.14,0-.19l-.82-.44A.38.38,0,0,0,75.5,47.27Z"/><path class="cls-28" d="M76.81,46.46,76,47c-.08.06-.08.14,0,.19l.83.44a.36.36,0,0,0,.32,0l.79-.5c.09,0,.09-.13,0-.18l-.83-.44A.33.33,0,0,0,76.81,46.46Z"/><path class="cls-28" d="M78.11,45.64l-.79.5a.1.1,0,0,0,0,.19l.83.43a.33.33,0,0,0,.32,0l.8-.49c.09-.06.08-.14,0-.19l-.82-.44A.38.38,0,0,0,78.11,45.64Z"/><path class="cls-28" d="M79.42,44.83l-.8.49c-.08.06-.08.14,0,.19l.82.44a.38.38,0,0,0,.33,0l.79-.5c.09,0,.09-.13,0-.18l-.83-.44A.33.33,0,0,0,79.42,44.83Z"/><path class="cls-28" d="M80.72,44l-.79.5a.1.1,0,0,0,0,.19l.83.43a.33.33,0,0,0,.32,0l.8-.49c.08-.06.08-.14,0-.19L81.05,44A.38.38,0,0,0,80.72,44Z"/><path class="cls-28" d="M82,43.2l-.8.49c-.08.06-.08.14,0,.19l.82.44a.38.38,0,0,0,.33,0l.79-.5c.09-.05.09-.13,0-.18l-.83-.44A.33.33,0,0,0,82,43.2Z"/><path class="cls-28" d="M83.33,42.38l-.79.5a.1.1,0,0,0,0,.19l.83.44a.36.36,0,0,0,.32,0l.8-.49c.08-.06.08-.14,0-.19l-.83-.44A.36.36,0,0,0,83.33,42.38Z"/><path class="cls-28" d="M84.77,39.87l-.78.48c-.09.06-.09.15,0,.2l.81.43a.38.38,0,0,0,.33,0l.78-.49c.1-.06.09-.14,0-.19l-.81-.44A.37.37,0,0,0,84.77,39.87Z"/><path class="cls-28" d="M83.41,40.71l-.78.49c-.09,0-.08.14,0,.19l.81.43a.37.37,0,0,0,.34,0l.78-.48c.09-.06.09-.15,0-.2l-.81-.43A.37.37,0,0,0,83.41,40.71Z"/><path class="cls-28" d="M82,41.57l-.78.49c-.09,0-.08.14,0,.19l.81.43a.37.37,0,0,0,.34,0l.78-.48c.09-.06.09-.15,0-.2l-.81-.43A.37.37,0,0,0,82,41.57Z"/><polygon class="cls-29" points="84.09 40.89 82.99 41.58 83.06 41.62 84.16 40.93 84.09 40.89"/><polygon class="cls-30" points="83.38 41.15 83.49 41.08 83.34 41.06 83.2 41.05 83.24 41.13 83.28 41.21 83.38 41.15"/><polygon class="cls-30" points="83.78 41.36 83.68 41.43 83.83 41.44 83.97 41.46 83.93 41.38 83.89 41.3 83.78 41.36"/><polygon class="cls-30" points="82.27 42.08 82.16 42.02 82.13 42.1 82.09 42.19 82.23 42.16 82.38 42.13 82.27 42.08"/><polygon class="cls-30" points="84.88 40.45 84.99 40.51 85.02 40.42 85.06 40.34 84.92 40.36 84.77 40.39 84.88 40.45"/><path class="cls-53" d="M72.34,50.85l-.87.54c-.07,0-.07.11,0,.14l.91.49a.29.29,0,0,0,.24,0l.87-.55c.07,0,.07-.1,0-.14l-.91-.48A.25.25,0,0,0,72.34,50.85Z"/><path class="cls-53" d="M73.64,50l-.87.54c-.07,0-.07.1,0,.14l.91.48a.25.25,0,0,0,.24,0l.87-.55c.07,0,.07-.1,0-.14L73.88,50A.25.25,0,0,0,73.64,50Z"/><path class="cls-53" d="M74.94,49.22l-.87.55c-.07,0-.07.1,0,.14l.91.48a.25.25,0,0,0,.24,0l.87-.54c.07,0,.07-.1,0-.14l-.91-.48A.25.25,0,0,0,74.94,49.22Z"/><path class="cls-53" d="M76.24,48.41l-.87.55c-.07,0-.06.1,0,.14l.9.48a.28.28,0,0,0,.25,0L77.4,49a.07.07,0,0,0,0-.14l-.9-.49A.31.31,0,0,0,76.24,48.41Z"/><path class="cls-28" d="M77.54,47.6l-.87.54c-.06,0-.06.11,0,.15l.9.48a.31.31,0,0,0,.25,0l.87-.54c.06,0,.06-.11,0-.15l-.9-.48A.31.31,0,0,0,77.54,47.6Z"/><path class="cls-28" d="M78.84,46.79l-.87.54a.07.07,0,0,0,0,.14l.9.49a.31.31,0,0,0,.25,0L80,47.4c.07,0,.06-.1,0-.14l-.9-.48A.28.28,0,0,0,78.84,46.79Z"/><path class="cls-28" d="M80.14,46l-.87.54c-.06,0-.06.1,0,.14l.9.48a.25.25,0,0,0,.25,0l.87-.54c.07,0,.06-.1,0-.14L80.39,46A.25.25,0,0,0,80.14,46Z"/><path class="cls-28" d="M81.45,45.16l-.87.55c-.07,0-.07.1,0,.14l.91.48a.26.26,0,0,0,.24,0l.87-.54c.07,0,.07-.1,0-.14l-.91-.48A.25.25,0,0,0,81.45,45.16Z"/><path class="cls-28" d="M82.75,44.35l-.87.55c-.07,0-.07.1,0,.14l.91.48a.25.25,0,0,0,.24,0L83.9,45c.07,0,.07-.11,0-.14L83,44.34A.29.29,0,0,0,82.75,44.35Z"/><path class="cls-28" d="M84.05,43.54l-.87.54c-.07,0-.07.11,0,.14l.91.49a.29.29,0,0,0,.24,0l.87-.54c.07,0,.07-.11,0-.15l-.91-.48A.26.26,0,0,0,84.05,43.54Z"/><path class="cls-28" d="M85.35,42.73l-.87.54a.07.07,0,0,0,0,.14l.91.48a.28.28,0,0,0,.25,0l.87-.55c.06,0,.06-.1,0-.14l-.9-.48A.28.28,0,0,0,85.35,42.73Z"/><path class="cls-28" d="M80.73,42.39l-1.17.73a.07.07,0,0,0,0,.14l.91.49a.29.29,0,0,0,.24,0L81.89,43c.06,0,.06-.1,0-.14L81,42.39A.25.25,0,0,0,80.73,42.39Z"/><path class="cls-28" d="M79.1,43.41l-1.17.73c-.06,0-.06.1,0,.14l.91.48a.23.23,0,0,0,.24,0L80.26,44c.06-.05.06-.11,0-.14l-.91-.49A.29.29,0,0,0,79.1,43.41Z"/><path class="cls-53" d="M77.49,44.41,71.79,48c-.07,0-.06.1,0,.14l.92.49a.27.27,0,0,0,.23,0L78.65,45c.06,0,.06-.1,0-.14l-.91-.48A.25.25,0,0,0,77.49,44.41Z"/><path class="cls-32" d="M76.07,50.77a.25.25,0,0,0-.19,0,.06.06,0,0,0,0,.11.21.21,0,0,0,.19,0A.06.06,0,0,0,76.07,50.77Z"/><path class="cls-32" d="M77.33,50a.23.23,0,0,0-.18,0,.06.06,0,0,0,0,.11.21.21,0,0,0,.19,0S77.39,50,77.33,50Z"/><path class="cls-32" d="M78.67,49.15a.19.19,0,0,0-.19,0s0,.08,0,.1a.19.19,0,0,0,.18,0A.06.06,0,0,0,78.67,49.15Z"/><path class="cls-32" d="M76.43,49a.19.19,0,0,0-.19,0s0,.07,0,.1a.19.19,0,0,0,.18,0S76.48,49,76.43,49Z"/><path class="cls-32" d="M77.76,48.09a.23.23,0,0,0-.18,0,.06.06,0,0,0,0,.11.21.21,0,0,0,.19,0S77.82,48.12,77.76,48.09Z"/><path class="cls-32" d="M77.06,46.91a.19.19,0,0,0-.18,0,.06.06,0,0,0,0,.11.25.25,0,0,0,.19,0C77.12,47,77.12,46.94,77.06,46.91Z"/><path class="cls-32" d="M78.31,46.16a.19.19,0,0,0-.18,0c-.06,0,0,.08,0,.11a.23.23,0,0,0,.18,0C78.37,46.24,78.36,46.19,78.31,46.16Z"/><path class="cls-32" d="M79.65,45.31a.21.21,0,0,0-.19,0s0,.08,0,.11a.21.21,0,0,0,.19,0S79.7,45.34,79.65,45.31Z"/><path class="cls-32" d="M81,44.47a.19.19,0,0,0-.18,0c-.06,0,0,.08,0,.11a.23.23,0,0,0,.18,0C81,44.55,81,44.5,81,44.47Z"/><path class="cls-32" d="M82.23,43.7a.21.21,0,0,0-.19,0c-.05,0-.05.08,0,.11a.23.23,0,0,0,.18,0A.06.06,0,0,0,82.23,43.7Z"/><path class="cls-32" d="M83.56,42.85a.19.19,0,0,0-.18,0s0,.08,0,.11a.21.21,0,0,0,.19,0C83.62,42.92,83.62,42.88,83.56,42.85Z"/><path class="cls-32" d="M79,47.37a.19.19,0,0,0-.18,0s0,.08,0,.1a.21.21,0,0,0,.19,0S79.06,47.4,79,47.37Z"/><path class="cls-32" d="M80.34,46.52a.21.21,0,0,0-.19,0c-.05,0,0,.08,0,.11a.17.17,0,0,0,.18,0S80.39,46.54,80.34,46.52Z"/><path class="cls-32" d="M81.65,45.68a.19.19,0,0,0-.18,0s0,.08,0,.1a.21.21,0,0,0,.19,0S81.71,45.71,81.65,45.68Z"/><path class="cls-32" d="M82.92,44.91a.19.19,0,0,0-.18,0s0,.08,0,.1a.21.21,0,0,0,.19,0S83,44.94,82.92,44.91Z"/><path class="cls-32" d="M84.26,44.06a.21.21,0,0,0-.19,0s0,.08,0,.11a.17.17,0,0,0,.18,0S84.31,44.08,84.26,44.06Z"/><path class="cls-32" d="M80,48.31a.23.23,0,0,0-.18,0,.06.06,0,0,0,0,.11.21.21,0,0,0,.19,0C80,48.39,80,48.34,80,48.31Z"/><path class="cls-32" d="M81.31,47.52a.21.21,0,0,0-.19,0,.06.06,0,0,0,0,.11.18.18,0,0,0,.19,0S81.36,47.54,81.31,47.52Z"/><path class="cls-32" d="M82.64,46.66a.19.19,0,0,0-.18,0,.06.06,0,0,0,0,.11.25.25,0,0,0,.19,0S82.69,46.69,82.64,46.66Z"/><path class="cls-32" d="M84,45.83a.21.21,0,0,0-.19,0,.06.06,0,0,0,0,.11.18.18,0,0,0,.19,0C84,45.9,84,45.85,84,45.83Z"/><path class="cls-32" d="M85.28,45.08a.23.23,0,0,0-.18,0c-.06,0,0,.08,0,.11a.19.19,0,0,0,.18,0A.06.06,0,0,0,85.28,45.08Z"/><path class="cls-32" d="M86.62,44.23a.18.18,0,0,0-.19,0c-.05,0-.05.08,0,.1a.21.21,0,0,0,.19,0A.06.06,0,0,0,86.62,44.23Z"/><path class="cls-32" d="M87.93,43.39a.23.23,0,0,0-.18,0c-.06,0,0,.08,0,.11a.19.19,0,0,0,.18,0A.06.06,0,0,0,87.93,43.39Z"/><path class="cls-32" d="M85.55,43.24a.19.19,0,0,0-.18,0c-.05,0-.05.08,0,.1a.21.21,0,0,0,.19,0S85.6,43.27,85.55,43.24Z"/><path class="cls-32" d="M80.82,43a.21.21,0,0,0-.19,0s0,.08,0,.11a.19.19,0,0,0,.18,0C80.87,43.11,80.87,43.07,80.82,43Z"/><path class="cls-32" d="M79.09,44.34a.21.21,0,0,0-.19,0c-.05,0-.05.08,0,.11a.17.17,0,0,0,.18,0S79.14,44.36,79.09,44.34Z"/><path class="cls-32" d="M79.22,43.84a.21.21,0,0,0-.19,0s0,.08,0,.11a.23.23,0,0,0,.18,0A.06.06,0,0,0,79.22,43.84Z"/><path class="cls-32" d="M87.13,42.25a.19.19,0,0,0-.18,0,.06.06,0,0,0,0,.11.19.19,0,0,0,.19,0S87.19,42.27,87.13,42.25Z"/><path class="cls-32" d="M85.64,41.6a.18.18,0,0,0-.19,0s0,.08,0,.1a.21.21,0,0,0,.19,0A.06.06,0,0,0,85.64,41.6Z"/><path class="cls-32" d="M87.78,41.86a.21.21,0,0,0-.19,0s0,.08,0,.1a.19.19,0,0,0,.18,0A.06.06,0,0,0,87.78,41.86Z"/><path class="cls-32" d="M75.31,52.74a.19.19,0,0,0-.18,0,.06.06,0,0,0,0,.11.19.19,0,0,0,.19,0C75.37,52.81,75.37,52.76,75.31,52.74Z"/><path class="cls-32" d="M75.74,53a.19.19,0,0,0-.18,0s0,.08,0,.1a.21.21,0,0,0,.19,0S75.79,53,75.74,53Z"/><path class="cls-32" d="M76.8,52a.25.25,0,0,0-.19,0s0,.08,0,.11a.19.19,0,0,0,.18,0A.06.06,0,0,0,76.8,52Z"/><path class="cls-32" d="M78.07,51.18a.21.21,0,0,0-.19,0s0,.08,0,.11a.19.19,0,0,0,.18,0C78.12,51.25,78.12,51.2,78.07,51.18Z"/><path class="cls-32" d="M79.4,50.34a.19.19,0,0,0-.18,0,.06.06,0,0,0,0,.11.19.19,0,0,0,.18,0C79.46,50.41,79.45,50.36,79.4,50.34Z"/><path class="cls-32" d="M80.64,49.55a.19.19,0,0,0-.18,0,.06.06,0,0,0,0,.11.21.21,0,0,0,.19,0S80.7,49.57,80.64,49.55Z"/><path class="cls-32" d="M82,48.66a.19.19,0,0,0-.18,0,.06.06,0,0,0,0,.11.25.25,0,0,0,.19,0C82,48.74,82,48.69,82,48.66Z"/><path class="cls-32" d="M82.32,48.85a.21.21,0,0,0-.19,0,.06.06,0,0,0,0,.11.18.18,0,0,0,.19,0C82.37,48.92,82.37,48.87,82.32,48.85Z"/><path class="cls-32" d="M83.37,47.89a.21.21,0,0,0-.19,0,.06.06,0,0,0,0,.11.21.21,0,0,0,.19,0S83.42,47.91,83.37,47.89Z"/><path class="cls-32" d="M84.67,47.07a.19.19,0,0,0-.18,0s0,.08,0,.1a.21.21,0,0,0,.19,0S84.73,47.1,84.67,47.07Z"/><path class="cls-32" d="M86,46.25a.25.25,0,0,0-.19,0,.06.06,0,0,0,0,.11.21.21,0,0,0,.19,0A.06.06,0,0,0,86,46.25Z"/><path class="cls-32" d="M87.23,45.7a.19.19,0,0,0-.18,0s0,.08,0,.1a.21.21,0,0,0,.19,0C87.29,45.78,87.29,45.73,87.23,45.7Z"/><path class="cls-32" d="M87.3,45.21a.21.21,0,0,0-.19,0s0,.08,0,.11a.18.18,0,0,0,.19,0S87.35,45.24,87.3,45.21Z"/><path class="cls-32" d="M88.4,44.72a.21.21,0,0,0-.19,0,.06.06,0,0,0,0,.11.18.18,0,0,0,.19,0S88.45,44.74,88.4,44.72Z"/><path class="cls-32" d="M88.77,44.45a.19.19,0,0,0-.18,0s0,.08,0,.1a.21.21,0,0,0,.19,0S88.82,44.48,88.77,44.45Z"/><path class="cls-32" d="M90.26,43.53a.17.17,0,0,0-.18,0s0,.07,0,.1a.21.21,0,0,0,.19,0S90.32,43.56,90.26,43.53Z"/><path class="cls-38" d="M77.32,44,74,42.23a.52.52,0,0,0-.54,0l-4.71,2.94-.07.07a.2.2,0,0,1,.06-.28L73.48,42A.57.57,0,0,1,74,42l3.28,1.75a.28.28,0,0,1,.13.34A.37.37,0,0,0,77.32,44Z"/><path class="cls-34" d="M68.66,54a.47.47,0,0,0,.23.36c.12.07.21,0,.21-.13a.49.49,0,0,0-.23-.36C68.75,53.84,68.66,53.9,68.66,54Z"/><path class="cls-54" d="M68.72,54.07a.35.35,0,0,0,.17.27c.08,0,.15,0,.15-.1a.32.32,0,0,0-.17-.26C68.79,53.93,68.72,54,68.72,54.07Z"/><polygon class="cls-54" points="71.65 55.83 72.67 56.37 72.66 56.01 71.64 55.47 71.65 55.83"/><polygon class="cls-37" points="71.64 55.61 72.66 56.15 72.66 56.01 71.63 55.47 71.64 55.61"/><polygon class="cls-54" points="70.35 55.14 71.37 55.68 71.36 55.32 70.33 54.78 70.35 55.14"/><polygon class="cls-37" points="70.34 54.91 71.36 55.46 71.36 55.32 70.33 54.77 70.34 54.91"/><path class="cls-34" d="M67.24,53.28a.51.51,0,0,0,.23.37c.12.06.21,0,.21-.13a.51.51,0,0,0-.23-.37C67.33,53.09,67.24,53.15,67.24,53.28Z"/><path class="cls-54" d="M67.3,53.32a.35.35,0,0,0,.17.26c.08.05.15,0,.15-.1a.35.35,0,0,0-.17-.26C67.37,53.17,67.3,53.22,67.3,53.32Z"/><path class="cls-55" d="M73.88,56.4l3-14.14a1.39,1.39,0,0,1,.62-.89L96.19,29.71a.23.23,0,0,1,.3,0,1.86,1.86,0,0,1,.54.66c.07.23-.4.46-.7.58L93.57,44.12,74.79,55.83,74.37,57Z"/><path class="cls-56" d="M94.06,44.71l3-14.16a.24.24,0,0,0-.36-.26L78,42a1.39,1.39,0,0,0-.62.89L74.37,57Z"/><path class="cls-57" d="M85.7,43.61c-.14.67.15,1,.63.72a2.77,2.77,0,0,0,1.12-1.71c.13-.68-.15-1-.64-.72A2.8,2.8,0,0,0,85.7,43.61Z"/><path class="cls-58" d="M69.12,47.42c2,0,4.33.37,3.87.75s-1.68.14-1.26.7,3.34,1.59,3.16,2.1-1.81,1-3,1-3.59-2.7-3.59-2.7Z"/><path class="cls-58" d="M72.24,43.65c.47,3.91,2.29,6.7,2.13,5.44s1.2-.67,1.2-.67l.75-3.58a18.17,18.17,0,0,0-2.59-2.22C73,42.25,72.24,43.65,72.24,43.65Z"/><path class="cls-59" d="M58.63,18.39c5.78,6.71,11.56,17,11.56,17s4.76,7.09,4,8.11a2.36,2.36,0,0,1-2.52,1c-.46-.28-6.34-5.88-6.89-6.53s-5.41-8.85-5.41-8.85l-.75-10.35Z"/><path class="cls-60" d="M47.94,14.31c-9.23,4-9,10.29-8.67,12,.66,3.29,2.24,16.29.91,22-.54,2.32,4,2.57,5.73,1.82a55,55,0,0,0,6.15-2.93,37.15,37.15,0,0,0,7.48-5c2.38-1.82,1.68-14,1.4-17.89S57.59,15.43,54.65,15,47.94,14.31,47.94,14.31Z"/><path class="cls-61" d="M45.59,14.29c-2.71,1.95-1.78,2.89-1.78,2.89a8.31,8.31,0,0,1,3.36,2.05c1.4,1.49,1.77,4.66,1.77,4.66l2.61.56.28,3.17s4.29,11.09,4.75,13.14,1.31-.65,1.22-6.15.27-11.84.27-11.84l-1.3.09.28-2.42s-2.24-4.29-3.17-5.69S45.59,14.29,45.59,14.29Z"/><path class="cls-62" d="M49.27,6.13c-2.8,10.63-4.2,9.79-2.24,11.05s6.75,5.41,7.22,6.71c2.89,8,1.61.62.84-1.12-1.77-4-.37-11.19-.37-11.19Z"/><path class="cls-58" d="M60.45,8.37c-.84,5.45-.7,11-6.57,8.53a7.72,7.72,0,0,1-5-7.41c0-4.1,0-8.95,4.47-8.53C56.09,1.22,61.33,2.64,60.45,8.37Z"/><path class="cls-42" d="M46.52,13.35l-1.31,3a51.52,51.52,0,0,1,5.41,3.91c.93,1,4.47,5.41,5.22,8.67a32.91,32.91,0,0,1,.74,6.43s0-9.72-.09-10.25a22.94,22.94,0,0,0-1.3-4.57C54.81,19.6,54,18,54,18s.84,4.38,1.4,6.33-2-2-3-4.56-1.4-3-1.4-3S46.24,14,46.52,13.35Z"/><path class="cls-61" d="M45.4,14.85a27.32,27.32,0,0,1,6.52,7.08c2.24,3.45,1.68,3.91,1.68,3.91L49,20.53a21.28,21.28,0,0,0-3.44-3.07,5,5,0,0,1-1.68-1.31Z"/><path class="cls-63" d="M42.79,17.83c-6.25,5.87-2,12.86-.75,14.54S49.41,44,52.67,46s14.36,4.43,15,4.1,2.15-1.82,1.59-2.84-9.84-5.92-12.26-6.62c-2.18-.63-5.39-6.7-6.39-10.25C47.78,20,42.79,17.83,42.79,17.83Z"/><path class="cls-64" d="M47.59,11.86c.63-2.58.7-2.79.56-3.56S46.82,1.73,47.66.68s8.18-.77,9.44.07,5.73,1.82,5.73,1.82-6.15,4.75-8.6,3.07S50.6,5.57,50.8,9.49s-1-1.05-1.39-1.19-.56,2.31-.56,2.31Z"/></g></g></g></svg>