<svg xmlns="http://www.w3.org/2000/svg" viewBox="0 0 963.91 558.53"><defs><style>.cls-1{isolation:isolate;}.cls-2{fill:#2296d3;}.cls-3,.cls-4{fill:#6ec7ef;}.cls-14,.cls-3{opacity:0.2;}.cls-3,.cls-36{mix-blend-mode:overlay;}.cls-5{fill:#5d5d6d;}.cls-6{fill:#6c6c7a;}.cls-7{fill:#41404f;}.cls-8{fill:#6ed5ef;}.cls-9{fill:#6ea7ef;}.cls-10{fill:#e6e7e8;}.cls-11{fill:#565668;}.cls-12{fill:#878796;}.cls-13,.cls-36{fill:#ec983b;}.cls-14{fill:#2b3990;mix-blend-mode:multiply;}.cls-15{fill:#363142;}.cls-16{fill:#a55932;}.cls-17{fill:#f7ca82;}.cls-18{fill:#d1d3d4;}.cls-19{fill:#f7b378;}.cls-20{fill:#f1f2f2;}.cls-21{fill:#1c75bc;}.cls-22{fill:#b64d50;}.cls-23{fill:#9d5932;}.cls-24{fill:#c49a6c;}.cls-25{fill:#8e4d50;}.cls-26{fill:#ef4661;}.cls-27{fill:#ef5f61;}.cls-28{fill:#fba140;}.cls-29{fill:#f9dc32;}.cls-30{fill:#ffe252;}.cls-31{fill:#414042;}.cls-32{fill:#00a79d;}.cls-33{fill:#10c1b0;}.cls-34{fill:#585866;}.cls-35{fill:#bcbec0;}</style></defs><title>live_classes_1</title><g class="cls-1"><g id="Layer_2" data-name="Layer 2"><g id="Layer_1-2" data-name="Layer 1"><polygon class="cls-2" points="407.79 72.58 414.16 75.03 416.47 74.55 415.05 71.15 407.6 66.85 400.33 66.85 395.14 68.23 398.63 71.3 407.79 72.58"/><polygon class="cls-2" points="404.83 87.83 411.76 88.79 421.16 86.5 423.54 84.63 419.16 83.53 416.45 80.6 416.34 80.47 414.15 79.21 407.78 75.54 406.57 74.83 399.3 74.26 398.62 74.46 395.12 75.5 392.55 76.27 400.67 82.77 404.83 87.83"/><path class="cls-2" d="M436.39,94.14l2.46-1.43-9.5-2.63c-.33-.09-4.33.22-4.54.24l1.59,3.58Z"/><polygon class="cls-2" points="458.68 104.88 459.14 105.19 459.94 105.61 460.59 105.95 464.72 108.13 468.69 110.22 468.75 110.25 469.31 108.68 468.7 108.26 464.73 105.61 460.6 102.85 459.95 102.42 460.61 101.27 464.74 101.94 463.89 99.07 458.35 96.63 456.95 97.44 458.7 99.21 456.94 99.69 455.89 99.98 454.17 101.84 456.93 103.7 458.68 104.88"/><polygon class="cls-2" points="477.45 110.09 478.18 110.46 480.47 111.62 483.28 112.36 488.63 114.81 493.19 114.33 498.76 116.15 504.23 119.31 509.34 118.44 518.44 122.11 524.33 123.29 522.33 119.46 514.21 113.76 506.39 112.04 504.91 113.47 498.19 111.43 494.1 109.46 489.06 108.23 483.31 107.8 479.94 105.15 477.46 105.19 478.19 107.07 477.46 106.74 471.24 103.94 468.71 104.2 471.54 107.1 477.45 110.09"/><polygon class="cls-2" points="437.59 102.08 436.92 102.57 434.46 104.38 442.67 110.73 442.39 119.29 442.39 119.53 435.13 120.29 428.93 118.05 425.13 117.19 424.07 120.96 427.67 129.42 431.7 128.32 440.71 130 448.95 127.22 455.95 124.98 460.89 122.11 457.28 112.7 456.62 110.97 454.15 109.94 446.44 106.72 446.09 103.08 437.73 102.09 437.59 102.08"/><polygon class="cls-2" points="391.93 151.72 390.24 151.65 390.35 153.38 390.52 156.28 395.98 158.2 397.4 161.69 403.35 162.17 403.71 157.13 403.73 156.86 403.78 152.51 401.39 152.08 400.33 152.04 391.93 151.72"/><polygon class="cls-2" points="263.81 160.16 264.42 162.11 264.48 162.12 265.05 162.24 267.01 162.64 268.6 161.72 268.66 159.56 268.74 156.46 268.36 155.93 267.09 154.12 265.58 151.97 260.45 149.71 258.85 149.8 264.5 154.78 265.06 157.58 264.49 158.76 263.81 160.16"/><polygon class="cls-2" points="520.52 126.39 518.43 125.88 509.59 123.73 509.32 123.62 504.22 121.4 502.23 120.53 499.19 123.06 498.74 123.2 495.99 124 493.17 124.83 498.66 131.43 493.15 132.67 491.65 133.01 488.53 135.4 489.53 136.74 488.52 137.71 485.59 140.56 471.39 140.18 457.72 145.43 457.27 153.94 462.9 157.19 475.76 153.56 494.27 157.77 507.82 161.21 516.85 166.23 521.67 166.21 522.93 162.69 527.3 162.93 540.69 165.9 553.39 164.27 566.2 159.64 567.8 159.06 572.12 159.68 573.96 159.94 573.66 158.63 572.13 157.96 565.39 155 562.51 149.33 572.14 153.37 570.47 149.55 564.51 146.1 561.36 143.14 544.3 136.15 540.02 135.4 533.56 130.9 524.32 127.71 520.52 126.39"/><path class="cls-2" d="M269.94,174.25l.2.06.38.1.52.15.58.17.19.05.18.06.19,0,.65.19.14,0,.24.07.1,0,.24.07.1,0,.49.13.13,0h.08l0,0h.06a.12.12,0,0,0,.11,0h0a.4.4,0,0,0,.11-.14.21.21,0,0,0,0-.06.54.54,0,0,0,.07-.13.91.91,0,0,0,.07-.14l.06-.15a.77.77,0,0,0,.07-.16l.06-.16s0-.07,0-.11l.06-.17a.19.19,0,0,1,0-.08,1,1,0,0,0,0-.14l0-.05a.3.3,0,0,1,0-.09l1-2.35-2.33-3.13-5.18-1.4h-.15l-1.59.07-2.55.11,0,0-.62.25-2.63,1.07,1,1.72Z"/><polygon class="cls-2" points="523 176.27 517.86 174.97 516.82 174.71 515.95 174.49 515.4 174.36 512.82 173.49 512.26 173.3 512.46 172.56 512.82 171.25 509.52 170.48 509.27 170.78 506.32 174.26 506.76 178.32 512.24 179.97 512.76 180.13 520.24 182.38 524.93 180.81 523 176.27"/><polygon class="cls-2" points="504.35 204.85 504.42 201.84 499.58 200.24 494.02 201.94 492.54 202.8 497.5 206.05 504.35 204.85"/><polygon class="cls-2" points="517.19 198.74 510.69 201.56 509.38 203.94 510.05 205.86 509.37 206.25 507.66 207.24 504.4 207.21 504.34 207.21 503.13 207.2 500.66 208.53 501.49 210.26 500.65 210.52 499.68 210.83 497.49 210.04 494.8 209.06 495.31 211.16 497.49 212.26 500.64 213.86 501.22 214.15 501.48 214.28 501.84 214.47 509.52 214.99 512.56 213.78 513.23 213.5 512.56 212.07 515.18 209.49 515.58 206 518.85 204.1 519.12 203.94 518.86 201.41 520.91 199.17 517.19 198.74"/><polygon class="cls-2" points="325.14 142.17 342.37 143.16 345.56 144.48 347.83 144.74 351.66 142.76 356.57 142.59 361.87 145.65 367.93 145.96 368.16 146.02 370.45 146.61 370.29 146.95 370 147.54 368.03 148.21 367.92 148.2 363.86 148.09 361.86 148.71 361.55 148.81 361.39 150.24 361.85 150.37 364.37 151.1 367.92 150.88 370.44 150.73 371.38 150.67 373.94 149.19 374.88 146.78 375.11 146.2 380.39 145.06 380.54 143.14 375.86 140.44 373.99 140.13 369.71 139.41 368.18 138.43 374 137.79 382.38 140.01 391.94 145.53 400.34 148.42 407.02 148.33 412.65 147.22 412.92 147.17 413.25 147.11 412.92 145.6 412.66 144.38 412.93 142.5 422.51 135.88 422.29 134.28 418.88 133.7 416.34 133.27 415.48 133.34 412.8 133.56 410.53 132.93 409.62 132.67 407.42 130.93 410.54 128.87 415.5 128.4 418.9 126.08 417.43 120.79 411.06 117.35 407.92 117.64 404.8 119.41 398.24 120.05 392.93 122.42 387.12 123.64 381.09 123.16 378.07 121.99 374.94 122.23 373.3 123.01 371.23 123.99 370.41 124.38 366.49 125.17 365.94 124.69 365.29 124.14 365.94 122.33 371.25 118.76 373.84 113.13 374.06 112.67 373.86 106.88 375.9 102.82 380.43 100.91 398.31 103.9 409.95 104.04 417.73 107.77 424.22 106.83 424.32 106.81 424.23 103.99 426.31 102.51 426.38 102.46 430.8 99.31 429.97 97.87 426.39 97.59 424.79 97.46 418.66 96.97 416.07 96.48 411.74 95.68 409.4 95.24 404.81 92.34 402.53 90.89 400.65 87.91 400.37 87.45 392.53 82 390.75 80.76 385.35 74.4 384.25 68.81 379.6 63.64 365.11 53.75 362.24 49.2 362.19 49.12 362.25 44.86 353.77 39.42 353.46 39.22 353.78 36.35 341.02 27.46 330.27 22.39 321.83 20.1 318.87 21.15 311.26 18.66 302.51 17.61 301.86 18.86 306.99 22.58 306.26 23.49 301.85 22.31 300.72 22.01 292.2 18.14 282.79 18.23 278.92 19.34 275.87 20.53 276.63 22.58 275.86 23.24 274.24 24.64 262.01 22.15 259.7 22.92 263.1 24.78 270.13 27.41 275.85 28 276.61 28.08 282.19 28.66 291.29 33.24 298.97 34.63 299.22 35.44 298.97 35.49 293.54 36.64 296.1 37.74 298.96 37.76 299.22 37.76 303.44 37.78 305.77 38.94 305.04 42.04 305.76 42.64 307.94 44.48 308.78 47.35 307.93 47.96 305.5 49.74 306.66 51.84 306.61 52.13 306.02 55.09 305.48 55.42 288.87 65.53 286.71 70.34 280.88 73.92 276.75 74.88 276.32 74.68 275.1 74.12 276.32 72.06 273.68 71.39 270.14 72.78 262.38 73.26 257.12 75.45 249.2 76.7 238.82 80.81 229.54 87.26 226.19 93.52 221.35 99.02 212.95 102.56 208.85 107.24 203.67 110.64 202.95 114.13 205.02 115.32 207.41 115.18 208.05 112.12 212.5 109.63 214.54 107.1 226.39 100.31 227.8 101.69 226.38 103.03 225.67 103.7 220.57 106.67 219.84 109.39 214.53 112.81 212.48 114.13 210.63 115.32 208.1 119.1 208.03 119.89 207.9 121.5 207.78 122.83 207.58 122.98 207.39 123.14 206.31 123.99 205.49 124.64 203.59 125.08 200.65 131.86 205.23 139.08 213.11 145.34 214.16 155.38 217.71 158.2 214.14 161.01 213.83 161.25 212.05 162.65 212.19 173.59 214.03 176.17 217.74 175.6 218.97 175.41 220.77 177.16 221.38 177.75 218.96 179.27 214.01 182.37 212.75 183.16 210.94 184.3 204.92 185.88 198.98 186.55 186.31 193.53 179.22 194.01 176.09 195.82 175.16 206.53 171.13 209.35 170 213.55 166.88 216.43 167.89 233.68 167.37 234 135.81 253.53 133.2 257.87 114.34 269.47 113.38 275.78 107.47 281 103.95 281.52 97.83 288.91 99.2 297.58 103.83 298.72 110.07 293.94 116.21 290.38 117.19 287.13 129.28 284.96 130.92 283.75 131.9 281.51 137.08 282.09 140.92 280.75 146.65 282.16 150.51 284.25 154.69 283.37 159.49 277.12 160.69 274.38 165.88 278.26 172.05 278.77 179.51 275.46 187.66 276.1 197.7 272.37 207.66 270.87 216.57 272.08 229.12 272.21 241.86 268 255.68 260.86 269.54 259.21 278.19 252.26 274.94 241.61 266.65 234.41 264.91 228.76 264.68 228 263.85 225.3 260.75 222.75 264.7 220.45 268.19 213.83 262.54 208.15 261.92 196.75 252.63 188.08 249.2 184.7 246.78 184.06 245.97 184.19 242.8 184.71 242.49 184.76 239.85 184.38 239.39 182.85 242.81 182.15 245.99 180.43 243.34 179.28 239.93 179.09 234.64 178.45 229.91 178.52 227.7 177.24 224.39 174.95 224.2 174.82 217.76 170.49 228.94 162.84 229.85 159.92 230.35 158.31 224.38 154.36 231.73 150.09 241.84 149.07 243.71 147.86 239.18 144.74 227.96 143.97 224.57 143.11 222.45 142.57 220.21 136.83 235.57 128.17 248.77 128.04 258.47 130.08 267.74 134.67 271.15 134.35 276.22 136.26 278.55 140.66 276.2 143.43 275.88 143.81 274.67 144.44 268.58 147.6 267.11 149.87 268.38 150.86 271.29 150.44 277.47 147.42 278.53 146.91 279.52 146.42 289.52 143.81 305.53 143.33 313.61 142.09 318.87 139.03 323.99 138.55 325.15 139.51 323.98 140.18 322.92 140.8 323.98 141.51 324.96 142.16 325.14 142.17"/><polygon class="cls-2" points="793.73 353.66 791.41 361.66 788.5 364.59 787.63 365.45 787.64 365.96 787.66 370.74 790.14 370.65 792.37 365.13 795.49 362.94 794.99 353.5 793.73 353.66"/><polygon class="cls-2" points="787.64 378.47 787.63 378.47 787.02 377.99 786.14 374 784.1 372.82 782.4 373.8 782.03 376.13 777.9 377.25 775.33 378.55 776.33 380.84 777.54 381.23 778.41 379.76 783.44 382.22 790.04 382.47 790.97 381.04 788.9 379.45 787.64 378.47"/><polygon class="cls-2" points="426.74 370.17 410.93 375.65 405.34 380.18 404.25 381.46 407.01 383.05 413.01 384.1 423.4 381.83 433.39 378.2 439.66 377.5 447.01 374 448.64 371 438.4 369.66 426.74 370.17"/><polygon class="cls-2" points="743.26 389.83 740.89 388.46 740.64 388.48 736.76 388.63 738.92 390.69 736.95 391.65 737.06 393.11 737.12 393.98 738.91 393.8 739.2 393.77 740.63 393.63 740.7 393.63 741.57 393.12 743.6 391.93 743.44 390.94 743.26 389.83"/><path class="cls-2" d="M777.54,383.87l-1-1.05-.23,0-1-.1-2.23-.23.13,2.68-.14.09-3,1.92-8.24,1.34-10.12-.26-2.49-.86-4.5,1.08,2.15.86,4.18,1,4,1.94a17.81,17.81,0,0,0,2.14,1.88l.18.09h0a.31.31,0,0,0,.15,0h.53l.16,0h.29l.2,0,.2,0h.14l.21,0h.14l.24,0h.17l.21,0h.19l.3,0,.23,0,.4,0,.21,0,.3,0,.21,0,.37,0h.12l.39,0,.31,0,.29,0,.24,0,.17,0,.54-.06.16,0,.33,0h0l1.2-.13.19,0h.14l.33,0,.35,0h.07l5.91-3.44.14-.08.48-.28,1.84-1.67.79-.71,1.21-1.1.87-.78.21-.2-.21-.23Z"/><polygon class="cls-2" points="695.28 398.79 693.92 400.92 693.63 403.42 696.82 402.73 699.97 399.27 701 398.15 699.97 398.27 695.28 398.79"/><path class="cls-2" d="M882.48,344.48l-27.72-16.76L845,327.4,828.5,314.72l-33.89-19.57-6.93-.7-4.31-2-6.6-.64L773.09,284l-6.29-3.51-5.73-1.14c-.81-.48-16.23-9.5-16.57-9.83a11,11,0,0,0-2.13-.36c-2.67-.33-6.91-.69-7.22-.71L734.7,266l7.68-3.18-9.5-7.14-10-2.1L705.1,247l-3.84,2.23-7-.64-1.53,1.92-8,.44-1.74,4.21-5.5.77-1.27,0-3.39-.1-4.36-.12,1-.94.63-.63,2.79-2.77,6.45-8-6.73-3-5.16,2.49L670,247l-2.68,1.56-1.49.86-9.39-6.95-8.15-.89-19.07-7.2-1-4.4-4.4-.38-5.49,2.68-1.47-.14-2.74-.24-7.18-.64-2.15-.2-3.23-5.41,5.4-.07,7.17,3.38,2.74-.83-.12-3-7-6.31-1.25-7.21L602,208.22l-6.94-.7-12.44-1.73-5.84-1.59-12.32.13-3.52.76-14.19.7-8.68,2.87-.75,2.62,4.52,2.61,4.63,1-.31,3.63-3.84,2.36,1,2.07,0,0h.09l3-.35.17,0,3.2,1,5.93-1.91,5.94-.51,3-3.38,7.79-1.6,6.49-.82,3.18-1.6,4.3,1.47,1.11,1-1.12.82-2.06,1.54-2.24.31-3.18.44-1,.14-5.53,1.7-1.49.47-1.2,2.73.91.9,1,.95,3.64.71,6.84,3.56.55,1.22-.56.2-1.85.69-5-3.19-1.19-.77-2.45-.43-.75-.14-1.13.24-1,.21.17,1.18-.17.09-2.95,1.6-1.11-1.15v-1.34l-2.07-.13-1-.06-1.64-.1-3.52,1.54-.79.06-4.87.41-1.05-.57-3.2-1.74-3.28-1.79-1-.55-2.23-1.22L538,223.66l-2.72-1.48-1.34-2,3.35-1,.72-.22,2.08-1.79-1.55-.77-1.25.19-3.2.49-2.91,1.81-3.46.8-5-1.63-7.5-.33h-.06l-1.94-.09-.67,0-3-.14-7-.31-.63-.3-.37-.18-.83-.4-1.54-.75-3.13.23-.67-.31-.52-.23-3.39-1.53-2.7.6,1.18,1.94.28,3-.29.18-1.18.73-3.51,2.18-8.38-1.08-8.21-4.43-4.2-1.15L453,222.21l-1.79,3.28,2.73,1.83,1.34,2.78h2.14l.47,0h.66l.5,0h.11l.44,0h.08l.47,0h.53l.37,0h0l.19,0h0l.18,0h.13l0,0h.07c.25.14,4.18,2,4.38,2.06l6.36,0,2.55-.91,10.89-.18,2.49,1.52,3.78-1.52,6.46,3.25,6.44,1.24,1.58,1.48-1.58,1.36-1.21,1-.06,3.68,1.1,1.17,1.47,1.56-.57,1.76-1.23,1.78-.79.32-2.5,1,1,1.44,1.8,0,2.27.05h.06l2.21-2.24,1.32-.77,1,1.24.09.07.06,0,.92.7.9-1.1-.08-3,0-.62-1.37-3.4-.39-1,.4-2.82,3.62-2.48,1.81-.1,1,.76-.66,1-.34.2-1.47.85.68,2.58.78.41,1,.53.3.16,1.68,6-1.7,1.28-1.13.84L515.35,253l-1.22,3.11-.08,1.48,2.16,1.81-.9.91-1.27.32-2.19.54-.33,1.25,1.09,1.09,1.43-.14.38,0,1.78-1.12,2.66-1.66.48-1.53,2.06-.91,2.73,0,3.13-.29,3.56,2.34,5.61-.09,1.81-1.44,4.85-2.63,9.74-.09,5.79,1.91-.57,1.1-2.39.62-1.81,1,.42,1.58,4.34,1,.21,0,2.38-2.05,4.12-1,5.13,3.16L569,264.37l-3.38.14-.28.09-3.59,1.2-.31,2.87,1.09.89,2.47,2v2h0l-3.2,1.86-.38-.19-9-4.45-2.49-3-6.87-3.1-2.89-1.3-1.94-.34-1.8-.32-3.61-.63-2,.34-3.57.61-.29.05-2.85,1.58-.6.33.59.87.59.85.23.34,4.65,5.26,9.18,3.49,1.09,2.82-1.1.74-3.83,2.61-2,.35-2.66.46-6.92.19-8.36-3.78-3.06-.81-9-5.59-2.25-5.21-4.22-1.77-5.27,2-2.31-.18-.68-2.59-2-2.58-.1-2.63-1.57-1.22-.24-.19-5-3.9-.23-.19.24-1.57,5-2.35,1.29-3.05L473.12,241l-.66-.34-6.34-3.3-.38-.19-4-.37h-.14l-.3,0-1.24-.12-4.18-2.81-.56-.37-1.34-.9,0,0-.67-1.43-2-.12-5.32-.31-14,.67-5.69,1.86c-.42,0-8.41.48-9,.53s-21.47,3.62-22.57,3.81l-2.3,1.85-19,6.3-2.52,2.87-5,2.68.46,5-.48.34L361,259.91l.84,12.55,3.64,1.34L372,274l5.19,2.87.46,2.94,9.47,1,6.84,3.95,1.14,6,6,4.08-6,3.83-.14.09-2.64,1.68-4.84,1-1.81,10.14-13.27,7.71-1.07,5-12,3-10,5.92-.2,3.32-5,2.67-1.41,2.88-8.44,6.18-1.63,4.4-4.16,2.42-.53,4.14L324,361.44l1.25,6.06,15.65,5.35,20.69.13,6.27-1,4.72-2.23,7.8-.45,9.45-2.93,6.36-3.44,12.55.64L416,365l15.69-8.1,1.08-3.05,12.73-8,4.55-1.05,5,1.11L458,344.3l23.27-.2,11.22-.66,7.41-3.26,5.12-.47,3.2-1.58-1-2.57-.06-.16-5.35-3.15-2.52-1.48-.31,0-3.71-.58-.14,0-1.7-.26-.43-2.72,2.14-1.25.42-11.95,2.89-1.67,1.78-4.88,6.35-4.54.15-.1-.13-4.14,3.39-2.74,2.84-8.65,1.31-1.82,2.4.82,1.17,2.57,1.57.72-1.57,1.3-.4.33-.64,3.92,0,.17-.45,2.31-3.37,2-.39,4.35-2.55,2-.62,7.56-2.05,2.72-5.92,3.35v2.49h0L499,324.12l2.26,1.69h0l.54.41,8.49.91,6.46,2.86,11.73.67,1.57.91,14.2,1,9.73-1.25,3.17-3.47-.3-2.65-.41-3.56,0-.35-1.47-1-.14-.08-1-.63-5.49-.91-1.45-.24-.49-.52-.31-.33-.19-.2.19-.29.57-.88.86-1.36.83-1.29-1.54.47-.71.22-.55.17-1.73-.81,2.29-2.39.72-4.74,3.86-2.05H553l1.09,3.39.85,4.3,1.5,3.92,4.15,3.73,1.26,3.49,13.74,8.32c.07.19,1.26,3.87,1.51,4.3a6.88,6.88,0,0,0,1.51,1c1,.56,2,1.09,2.05,1.12l-.25,3.22-3.19,1.18.34,2.2,3.08.57,1.8.34,1.9,1.38-1.9.66L578,349.12l-.37.35-.35.33-3.3,3.1-1.55,3.21-.9,2.05-4.68,3L565.41,365l-1.14,2.48-4.76,4.3,2.82,2.4,3.55.42,6.68-1,9-3.68,8.73-2,8.5-.62,12-.81,5.93-2.3,3.32.21,3.93,2,3,.28L628,369.4l.41,5.9-.43.37-.72.63-2.52,2.16-4.06,2.23-.37,2.13,1.33,1.21,3.08.7,1.66,1.6-.86,1.72-.81.71-2.7,2.41-.33,1.63-.53,2.64-11.46,6.66L607.62,405l-.81,2.84-3.51,2.74-1,2.87-.27,2.39,1.66.89,3.74-1.15,4.38-3.57.29-7.58,6-4.78,7.69-2.68,2.65,1.53.59,7.33-.61.36-.92.53-1.87,1.09,2.87.48.53.09,5.3.89,13.18-4.71,3.38-5.42,1-8.16,3.3-1.28,7.59.32,3.65,2.11.45,2.16,4.07.45,15,1.14L700,394l8.89-3,4-3.06,1.41-2.48,2.85-2.94.72-8,2.25-1.47.76-.49.61-.4,4.3.83,2.19-.64-.88-1.78L720.83,367l-.75-.44.76-1.85,9.13-.44,3.41.83v1.27h0l-3.42.88-.53.14.12,1.21.41,0,3.41.28h0l1.77.14,3.76,2.16L736.4,373l-.65,2.43,1.55,1.14-1.22,1.84-.34.5-1.49,2.25,1.48,2.11.62.89.93.29,3.37,1.05,3.94-4.59.07-6.18L747,373l3.85-.83,4.06-2.23,4.59-.15,2.82,1.63,5.36-.62,5.84-2.35,7-4.06,5.1-3.82,3.68-5.89-1.3-5.78-.06-.24-4.12-4,4.6-5,8.24-2.22L809,340.66l8.94,4h7.92l6.48-2.24,8.38,2.68-1,3.51L834.79,352l-4.63,3.19-5.44,10.2,2.88,4.21,5.83-1.21,6.35-6.12,1.17-6.18,8.56-3.19,7.83,2.61,10.72-1.17.94-.1-.92-6.38,5.5.13,6.84,2.16,7.14-1.33Z"/><polygon class="cls-2" points="681.88 412.37 674.55 414.52 675.3 416.19 674.54 416.78 672.83 418.1 674.53 419.27 675.29 419.79 675.4 419.87 677.14 422.02 676.41 423.69 677.14 423.81 678.73 424.07 680.26 423.18 681.76 422.31 680.27 419.92 681.82 416.91 685.77 414.61 687.9 411.07 685.5 410.26 681.88 412.37"/><polygon class="cls-2" points="673.15 429.81 673.63 428.09 671.64 426.95 667.65 427.97 665.97 430.34 668.69 429.91 673.15 429.81"/><polygon class="cls-2" points="594.68 404.14 592.47 405.43 591.59 412.94 588.51 415.11 587.68 420.21 584.47 422.64 584.48 431.85 587.38 433.52 591.22 432.73 595.49 429.39 595.74 422.52 597.34 420.63 598.53 412.65 596.5 405.19 594.68 404.14"/><polygon class="cls-2" points="659.23 436.46 659.68 438.04 660.27 438.06 662.05 438.08 662.27 438 664.85 437.03 664.77 438.9 664.85 438.89 665.95 438.78 667.17 438.66 668.66 437.91 672.93 435.79 673.13 434.6 673.33 433.45 673.14 433.42 668.68 432.76 667.55 432.58 665.97 431.67 665.73 431.54 661.31 431.65 660.29 432.68 662.28 434.78 660.28 435.88 659.23 436.46"/><path class="cls-2" d="M644,428.52l-7.93-.57-18.07.24-5.53-.14-5.5,4.44,0,4.21,6.13,4.58,4,.34,7-2.3,6.06-.11,3.12-1.44,1.68-3,5.26-2.78,4,.1.08-.1h0l0,0,0,0,.1-.13h0l.07-.1.14-.18,0,0a1,1,0,0,0,.08-.11l.15-.2,0,0,.06-.08v0l.14-.19a.21.21,0,0,1,0-.06l.05-.08.11-.18,0-.06,0-.05.07-.13a.08.08,0,0,1,0-.05h0s0,0,0,0a.19.19,0,0,0,0-.1C645.42,429.91,644.08,428.59,644,428.52Z"/><polygon class="cls-2" points="593.8 438.9 591.2 437.1 590.19 436.39 587.37 435.95 586.03 435.74 584.97 437.22 586.87 438.71 587.37 439.05 590.97 441.53 593.47 443.26 593.79 443.48 596.24 445.16 598.72 446.59 601.52 446.4 601.1 444.44 599.04 442.38 596.8 441.95 593.8 440.22 593.48 440.04 593.61 439.58 593.8 438.9"/><polygon class="cls-2" points="603.51 447.45 602.18 447.94 602.49 450.11 605.42 450.47 607.07 449.51 605.22 447.71 603.51 447.45"/><polygon class="cls-2" points="635.3 443.65 637.61 444.04 641.22 446.11 645.56 447.66 649.27 446.95 649.3 446.26 645.3 445.66 639.67 442.41 637.68 442.14 635.03 441.78 634.06 441.64 633.36 441.84 630.23 442.73 630.15 442.75 627.22 444.51 624.18 445.36 622.77 445.75 621.95 447.43 617.72 449.65 617.28 450.33 617.06 450.66 618.22 451.33 621.14 450.44 626.12 448.03 626.58 447.81 628.11 447.84 628.1 448 628.07 448.86 626.57 449.8 625.07 450.75 624.38 452.31 625.64 453.03 626.57 452.8 627.93 452.45 628.09 452.34 631.75 449.94 632.15 448.79 633.22 447.55 634.1 447.52 634.79 447.5 635.29 447.79 637.56 449.1 637.6 449.11 638.8 449.39 639.42 448.6 637.6 447.45 635.36 446.02 635.3 445.94 634.38 444.67 634.11 444.3 634.81 443.92 635.3 443.65"/><polygon class="cls-2" points="655.41 453.55 657.72 452.21 654.49 449.96 652.29 450.03 649.29 451.06 649.25 451.07 647.89 451.54 648.64 453.07 649.25 452.99 649.29 452.99 652.46 452.61 655.41 453.55"/><polygon class="cls-2" points="611.3 454.43 608.49 453.57 608.5 455.48 614.43 458.9 617.04 459.33 617.45 459.4 617.68 458.11 617.04 457.75 611.3 454.43"/><polygon class="cls-2" points="670.38 469.92 667.62 468.32 661.95 467.44 661.08 467.3 658.25 466.86 657.8 465.33 661.09 463.42 661.96 461.12 657.7 459.26 657.44 459.15 655.68 459.21 655.39 459.79 655.02 460.55 655.39 461.33 655.75 462.09 655.92 462.46 655.43 463.39 655.02 463.29 653.06 462.84 650.64 463.8 650.54 464.88 654.02 467.78 655.66 470.72 655.86 471.06 655.85 471.12 655.12 477.38 654.73 477.85 651.84 481.33 652.46 484.74 656.93 485.79 659.78 484.77 663.1 487.32 664.36 495.03 667.67 497.84 669.54 497.52 671.48 490.25 674.11 487.83 674.71 477.51 671.16 473.55 670.38 469.92"/><polygon class="cls-2" points="644.02 488.37 633.32 494.4 624.25 496.4 622.64 494.98 622.36 494.74 620.44 493.06 622.38 486.37 627.64 483.88 632.1 483.02 632.75 481.3 622.82 476.9 610.93 475.94 607.48 477.38 605.15 474.89 588.3 472.6 568 471.54 556.59 468.2 548.83 468.87 537.47 474.32 521.84 482.06 514.59 484.17 514.95 489.14 522.71 490.19 531.48 494.3 544.37 497.55 553.16 504.91 551.71 510.36 553.14 512.13 554.04 513.23 551.69 515.52 545.83 521.26 550.65 527.09 563.38 532.35 581.7 529.96 607.1 527.66 621.07 517.05 628.3 512.27 630.09 507.78 638.15 502.52 642.56 494.97 649.14 490.38 648.63 487.41 644.02 488.37"/><polygon class="cls-2" points="533.5 530.66 534.14 536.11 540.57 534.23 545.45 532.54 542.51 528.24 533.5 530.66"/><polygon class="cls-3" points="574.04 500.38 746.51 400.79 837.84 453.61 665.37 553.2 574.04 500.38"/><polygon class="cls-3" points="521 133.88 693.47 34.28 784.79 87.11 612.32 186.7 521 133.88"/><polygon class="cls-3" points="216.26 505.7 388.74 406.11 480.06 458.94 307.59 558.53 216.26 505.7"/><polygon class="cls-3" points="700.12 279.34 872.59 179.75 963.91 232.58 791.44 332.17 700.12 279.34"/><polygon class="cls-3" points="0 165.35 172.47 65.75 263.8 118.58 91.32 218.18 0 165.35"/><polygon class="cls-3" points="216.26 124.84 388.74 25.24 480.06 78.07 307.59 177.66 216.26 124.84"/><polygon class="cls-4" points="761.9 109.36 761.9 191.82 634.41 118.07 634.41 35.6 761.9 109.36"/><path class="cls-5" d="M764.08,247.86l-28.2,18-12.57,11.62L243.11,380.7l-8-7.38-35.58-7.49v27.63h0a4.57,4.57,0,0,0,2.29,4.11l5.71,3.3,174,100.67h0a8.41,8.41,0,0,0,8.43,0L748.71,294.43,770.6,281.8a8.12,8.12,0,0,0,4.09-7.38h0V246.8Z"/><path class="cls-6" d="M774.69,274.42h0V246.8l-10.62,1.06-28.2,18-12.57,11.62-157.78,33.9L387,465.62v36.95a8.28,8.28,0,0,0,3-1L748.71,294.43,770.6,281.8A8.12,8.12,0,0,0,774.69,274.42Z"/><polygon class="cls-7" points="221.49 389.9 221.49 400.54 211.71 394.88 211.71 384.24 221.49 389.9"/><polygon class="cls-7" points="234.83 397.56 234.83 408.2 225.05 402.55 225.05 391.91 234.83 397.56"/><polygon class="cls-7" points="248.18 405.23 248.18 415.87 238.39 410.22 238.39 399.58 248.18 405.23"/><polygon class="cls-7" points="372.78 477.75 372.78 488.39 342.33 470.75 342.33 460.11 372.78 477.75"/><polygon class="cls-7" points="431.03 458.78 431.03 469.42 461.48 451.78 461.48 441.14 431.03 458.78"/><polygon class="cls-4" points="241.81 348.62 570.47 158.84 744.5 259.51 415.84 449.29 241.81 348.62"/><polygon class="cls-8" points="570.47 158.84 415.84 449.29 241.81 348.62 570.47 158.84"/><polygon class="cls-9" points="730.96 267.32 744.5 259.51 570.47 158.84 556.93 166.66 730.96 267.32"/><polygon class="cls-9" points="415.84 449.28 429.38 441.46 255.35 340.79 241.81 348.61 415.84 449.28"/><polygon class="cls-10" points="740.49 259.42 735.12 256.31 725.8 261.69 731.18 264.8 740.49 259.42"/><polygon class="cls-10" points="733.91 255.62 728.53 252.51 719.22 257.89 724.59 261 733.91 255.62"/><polygon class="cls-10" points="727.32 251.81 721.95 248.71 712.63 254.09 718.01 257.19 727.32 251.81"/><polygon class="cls-10" points="720.74 248.01 715.37 244.9 706.05 250.28 711.42 253.39 720.74 248.01"/><polygon class="cls-10" points="662.2 214.33 646.92 205.44 637.6 210.82 652.89 219.71 662.2 214.33"/><polygon class="cls-10" points="424.36 440.85 409.07 431.95 399.76 437.33 415.04 446.23 424.36 440.85"/><polygon class="cls-10" points="343.28 394.04 328 385.15 318.68 390.53 333.97 399.42 343.28 394.04"/><polygon class="cls-10" points="271.41 352.38 256.13 343.48 246.81 348.86 262.09 357.76 271.41 352.38"/><path class="cls-7" d="M770.61,240l-.32-.18-174-100.67h0a8.43,8.43,0,0,0-8.44,0L237.59,341.32,201.81,362a4.61,4.61,0,0,0,0,8l5.71,3.3,174,100.67h0a8.41,8.41,0,0,0,8.43,0L748.71,266.81l21.89-12.62A8.21,8.21,0,0,0,770.61,240ZM415.84,449.29l-174-100.67L570.47,158.84l174,100.67Z"/><path class="cls-11" d="M732.1,296.65l-.05,0a1.59,1.59,0,0,0-.13-.13l0,0-.15-.15,0-.05-.11-.12a.21.21,0,0,0,0-.06c0-.05-.07-.09-.1-.15l0,0-.12-.21-.12-.23v0c0-.07-.06-.13-.08-.19l0-.06a.76.76,0,0,0,0-.11l-.06-.19,0-.12-.05-.17,0-.14,0-.14,0-.16s0-.09,0-.13l0-.18a.49.49,0,0,0,0-.12c0-.07,0-.14,0-.22a.28.28,0,0,1,0-.09c0-.1,0-.22,0-.32s0-.22,0-.32v-.11c0-.08,0-.15,0-.23a.45.45,0,0,1,0-.11,1.94,1.94,0,0,1,0-.24s0-.06,0-.09,0-.23.05-.34v0c0-.1,0-.2,0-.3a.5.5,0,0,0,0-.12c0-.07,0-.15.05-.23l0-.12a1.89,1.89,0,0,0,0-.23.5.5,0,0,0,0-.13c0-.07,0-.15.07-.23l0-.11c0-.11.07-.23.11-.34a0,0,0,0,1,0,0c0-.1.07-.21.11-.31a.3.3,0,0,1,0-.1l.09-.24s0-.08,0-.12a2.56,2.56,0,0,1,.11-.24l0-.09.15-.33a.2.2,0,0,0,0-.08c0-.08.08-.17.13-.25l.09-.18.09-.17c.08-.15.16-.31.25-.46a1.3,1.3,0,0,1,.1-.15,1.74,1.74,0,0,1,.11-.18l.1-.17a1.74,1.74,0,0,0,.11-.18l.09-.11q.15-.24.33-.48h0l.25-.32.2-.25s0,0,0,0l.24-.29.07-.08.18-.19.1-.11.16-.16.11-.11.15-.14.12-.12.15-.13.12-.11.16-.13.12-.1.16-.13.11-.08.19-.14.09-.06.28-.19h0l.29-.18.26-.14.09,0,.2-.09.09,0,.27-.12.27-.1.08,0,.18,0,.11,0,.16,0,.1,0,.16,0,.12,0,.14,0h.88l.22,0h0l.17,0,.08,0,.13,0,.16.07.07,0,.22.11L738,280.79l-.21-.11-.08,0a3.78,3.78,0,0,0-2.65,0,7.75,7.75,0,0,0-2.35,1.3l-.06.05-.12.1a12.93,12.93,0,0,0-4.61,8.72,5.77,5.77,0,0,0,.66,3.42h0l0,.05.1.14,0,.06.1.12,0,.05.14.15,0,0,.13.12,0,0,.13.1.05,0,.17.11,2.84,1.66-.18-.11a.1.1,0,0,0,0,0Z"/><path class="cls-12" d="M736.63,282.85a13,13,0,0,0-5.91,10.24c0,3.75,2.67,5.27,5.95,3.38a13,13,0,0,0,5.9-10.23C742.56,282.48,739.9,281,736.63,282.85Z"/><path class="cls-11" d="M701.5,314.32l0,0-.14-.12,0,0-.15-.16,0-.05-.1-.12a.21.21,0,0,1,0-.06,1.71,1.71,0,0,1-.11-.14.08.08,0,0,0,0,0,2.39,2.39,0,0,1-.13-.21c0-.07-.07-.14-.11-.22l0,0c0-.06-.05-.12-.08-.19s0,0,0-.05,0-.08,0-.12l-.06-.18a.93.93,0,0,1,0-.13c0-.05,0-.11,0-.16l0-.14,0-.15,0-.16s0-.09,0-.13,0-.12,0-.18,0-.08,0-.12,0-.14,0-.22,0-.06,0-.09v-.64a.45.45,0,0,1,0-.11c0-.07,0-.14,0-.22s0-.08,0-.12l0-.24a.28.28,0,0,1,0-.09c0-.11,0-.23,0-.34a.06.06,0,0,0,0,0c0-.1,0-.2,0-.3l0-.11c0-.08,0-.16,0-.23a.65.65,0,0,0,0-.13,1.74,1.74,0,0,1,.05-.22.65.65,0,0,1,0-.13,1.55,1.55,0,0,1,.06-.23l0-.11.11-.35s0,0,0,0,.08-.21.11-.31a.42.42,0,0,0,0-.1l.09-.24,0-.11c0-.09.07-.17.1-.25a.59.59,0,0,1,0-.08l.15-.33a.36.36,0,0,1,0-.09l.12-.25.09-.18.09-.17.26-.45.09-.16a1.74,1.74,0,0,1,.11-.18l.1-.16.12-.18.08-.12c.11-.16.22-.32.34-.47h0l.25-.33.2-.24,0,0c.08-.1.17-.19.25-.28l.07-.09.17-.19.11-.11.15-.15.11-.11.15-.15a.69.69,0,0,1,.13-.11l.15-.14.12-.11.15-.13.12-.09.17-.13.11-.09.18-.13.1-.07a2.68,2.68,0,0,1,.28-.18s0,0,0,0a2.61,2.61,0,0,1,.28-.17l.26-.14.1-.05.2-.1.08,0,.27-.12.27-.1.09,0,.18-.06.1,0,.17,0,.1,0,.15,0,.12,0,.14,0h.63l.2,0h.06l.21,0,.06,0,.16,0,.09,0,.13.05a.94.94,0,0,1,.15.06l.08,0,.22.11-2.84-1.64a2.39,2.39,0,0,0-.22-.12l-.08,0a3.7,3.7,0,0,0-2.64,0,7.6,7.6,0,0,0-2.35,1.29l-.06.05-.12.1a13,13,0,0,0-4.62,8.73,5.79,5.79,0,0,0,.67,3.42h0l0,0,.1.14,0,.06.1.12,0,.05a1.06,1.06,0,0,0,.15.15l0,0,.14.12,0,0,.12.09a.1.1,0,0,1,.05,0l.18.11,2.84,1.65a1.08,1.08,0,0,1-.18-.11l0,0Z"/><path class="cls-12" d="M706,300.53a13,13,0,0,0-5.9,10.23c0,3.76,2.67,5.28,5.94,3.39A13,13,0,0,0,712,303.92C712,300.16,709.3,298.64,706,300.53Z"/><path class="cls-6" d="M765.74,95.2,640.09,22.51a2.54,2.54,0,0,0-2.53,0h0l0,0h0l-4.81,2.8L636.25,38v83.19a8.48,8.48,0,0,0,4.24,7.35l121.06,70.05,1.41,3.8,4.84-2.81h0a4.58,4.58,0,0,0,2.35-4V102.84A8.83,8.83,0,0,0,765.74,95.2Z"/><path class="cls-7" d="M765.3,105.66v92.67a4.62,4.62,0,0,1-6.92,4l-122.74-71A8.48,8.48,0,0,1,631.4,124V27.54a2.56,2.56,0,0,1,3.84-2.22L760.89,98A8.82,8.82,0,0,1,765.3,105.66Z"/><polygon class="cls-13" points="761.9 109.36 761.9 191.82 634.41 118.07 634.41 35.6 761.9 109.36"/><polygon class="cls-10" points="667.03 65.37 667.03 62.36 640.02 46.73 640.02 49.74 667.03 65.37"/><polygon class="cls-10" points="667.03 71.14 667.03 68.14 640.02 52.51 640.02 55.52 667.03 71.14"/><polygon class="cls-10" points="667.03 76.92 667.03 73.91 640.02 58.29 640.02 61.29 667.03 76.92"/><polygon class="cls-10" points="682.18 71.27 682.18 74.28 709.19 89.9 709.19 86.89 682.18 71.27"/><polygon class="cls-10" points="682.18 80.05 709.19 95.68 709.19 92.67 682.18 77.04 682.18 80.05"/><polygon class="cls-10" points="682.18 85.83 709.19 101.45 709.19 98.45 682.18 82.82 682.18 85.83"/><polygon class="cls-10" points="682.18 100.31 709.19 115.93 709.19 112.92 682.18 97.3 682.18 100.31"/><polygon class="cls-10" points="682.18 106.08 709.19 121.71 709.19 118.7 682.18 103.07 682.18 106.08"/><polygon class="cls-10" points="682.18 111.86 709.19 127.48 709.19 124.48 682.18 108.85 682.18 111.86"/><polygon class="cls-10" points="682.18 126.34 709.19 141.96 709.19 138.96 682.18 123.33 682.18 126.34"/><polygon class="cls-10" points="682.18 132.11 709.19 147.74 709.19 144.73 682.18 129.1 682.18 132.11"/><polygon class="cls-10" points="682.18 137.89 709.19 153.51 709.19 150.51 682.18 134.88 682.18 137.89"/><polygon class="cls-10" points="667.03 82.7 667.03 79.69 640.02 64.06 640.02 67.07 667.03 82.7"/><polygon class="cls-10" points="729.31 133.53 719.76 128.01 719.76 159.27 729.31 164.79 729.31 133.53"/><polygon class="cls-10" points="741.94 123.9 732.39 118.38 732.39 166.59 741.94 172.11 741.94 123.9"/><polygon class="cls-10" points="754.57 114.33 745.02 108.8 745.02 173.91 754.57 179.43 754.57 114.33"/><path class="cls-10" d="M656,103.84V86.35c-.3-.19-.59-.39-.89-.57-8.29-4.79-15-.94-15.06,8.58s6.67,21.13,15,25.91,15,1,15.06-8.58c0-.14,0-.28,0-.42Z"/><path class="cls-10" d="M683.07,271.13,659,257.1a8.45,8.45,0,0,0-8.45,0l-25.18,14.54a5.52,5.52,0,0,0,0,9.54L648,294.37a10,10,0,0,0,10,0l25-14.44a5.09,5.09,0,0,0,0-8.82Zm-1.55,6.17-25,14.43a7,7,0,0,1-7,0L626.86,278.5a2.44,2.44,0,0,1,0-4.22l25.18-14.54a5.31,5.31,0,0,1,2.68-.72,5.38,5.38,0,0,1,2.69.73l24.11,14a2,2,0,0,1,1,1.76A2,2,0,0,1,681.52,277.3Z"/><path class="cls-10" d="M628.32,242.36a5,5,0,0,0-2.54-4.42l-24.11-14a8.45,8.45,0,0,0-8.45,0L568,238.43a5.51,5.51,0,0,0,0,9.54l22.71,13.21a10.07,10.07,0,0,0,10,0l25-14.43A5.06,5.06,0,0,0,628.32,242.36Zm-4.09,1.75-25,14.43a7,7,0,0,1-7,0l-22.71-13.22a2.43,2.43,0,0,1,0-4.22l25.19-14.54a5.32,5.32,0,0,1,5.36,0l24.12,14a2,2,0,0,1,1,1.76A2,2,0,0,1,624.23,244.11Z"/><path class="cls-10" d="M571,209.16a5,5,0,0,0-2.53-4.41l-24.12-14a8.45,8.45,0,0,0-8.45,0l-25.17,14.54a5.51,5.51,0,0,0,0,9.54L533.44,228a10.07,10.07,0,0,0,10,0l25-14.43A5,5,0,0,0,571,209.16Zm-4.08,1.76-25,14.43a7,7,0,0,1-7,0l-22.71-13.22a2.44,2.44,0,0,1,0-4.22l25.18-14.54a5.34,5.34,0,0,1,2.68-.72,5.28,5.28,0,0,1,2.69.73l24.11,14a2,2,0,0,1,1,1.76A2,2,0,0,1,566.94,210.92Z"/><polygon class="cls-4" points="356.44 73.76 356.44 156.22 483.93 82.47 483.93 0 356.44 73.76"/><polygon class="cls-4" points="191.19 211.11 191.19 293.58 318.68 219.82 318.68 137.35 191.19 211.11"/><path class="cls-10" d="M707.5,243.05a5.14,5.14,0,0,0-.54-1.89,6.11,6.11,0,0,0-1-1.34,8.42,8.42,0,0,0-2-1.57,13.72,13.72,0,0,0-3.27-1.34,18,18,0,0,0-4-.62l-1.08,0c-.34,0-.7,0-1,0a1.8,1.8,0,0,0-.82.26c-.14.09-.37.27-.37.47a.64.64,0,0,0,.37.52,3.35,3.35,0,0,0,1.75.19,13.63,13.63,0,0,1,6.78,1.61,4.85,4.85,0,0,1,2.75,3.64l0,.52a.61.61,0,0,0,.36.52,1.71,1.71,0,0,0,.9.21,1.83,1.83,0,0,0,.94-.27A.92.92,0,0,0,707.5,243.05Z"/><path class="cls-10" d="M702.94,243a3,3,0,0,0-.62-1.61,5,5,0,0,0-1.47-1.23,10,10,0,0,0-4.93-1.16,6.57,6.57,0,0,0-1.66.06c-.33.08-.81.3-.81.7a.69.69,0,0,0,.4.55,2.32,2.32,0,0,0,1,.26l1,0a6.31,6.31,0,0,1,3.1.75,2.81,2.81,0,0,1,1.07,1,1.68,1.68,0,0,1,.22.6c0,.26-.08.53,0,.78a.69.69,0,0,0,.36.41c.71.41,2.2.39,2.34-.65A2.67,2.67,0,0,0,702.94,243Z"/><path class="cls-10" d="M697.14,242.19a3.3,3.3,0,0,0-3.07,0c-.84.49-.9,1.29,0,1.81a3.37,3.37,0,0,0,3.06,0C698,243.44,698,242.67,697.14,242.19Z"/><path class="cls-14" d="M461.11,404.64l-33.46-19.31a3.18,3.18,0,0,0-3.16,0l-33.24,19.13a3.17,3.17,0,0,0,0,5.49l33.46,19.31a3.13,3.13,0,0,0,3.16,0l33.25-19.13A3.17,3.17,0,0,0,461.11,404.64Z"/><path class="cls-14" d="M350.49,338.14,317,318.83a3.13,3.13,0,0,0-3.16,0L280.62,338a3.16,3.16,0,0,0,0,5.49l33.45,19.31a3.2,3.2,0,0,0,3.17,0l33.24-19.13A3.17,3.17,0,0,0,350.49,338.14Z"/><path class="cls-14" d="M419.62,297.85l-33.46-19.31a3.18,3.18,0,0,0-3.17,0l-33.24,19.14a3.16,3.16,0,0,0,0,5.48l33.45,19.32a3.2,3.2,0,0,0,3.17,0l33.24-19.14A3.16,3.16,0,0,0,419.62,297.85Z"/><path class="cls-14" d="M481.19,262l-33.45-19.31a3.15,3.15,0,0,0-3.17,0l-33.24,19.13a3.17,3.17,0,0,0,0,5.49l33.46,19.31a3.18,3.18,0,0,0,3.16,0l33.25-19.13A3.16,3.16,0,0,0,481.19,262Z"/><path class="cls-14" d="M530.79,363.35,497.33,344a3.15,3.15,0,0,0-3.17,0l-33.24,19.13a3.16,3.16,0,0,0,0,5.48L494.37,388a3.13,3.13,0,0,0,3.16,0l33.25-19.13A3.16,3.16,0,0,0,530.79,363.35Z"/><path class="cls-14" d="M593.47,327.5,560,308.19a3.16,3.16,0,0,0-3.16,0L523.6,327.32a3.16,3.16,0,0,0,0,5.48l33.45,19.32a3.2,3.2,0,0,0,3.17,0L593.46,333A3.16,3.16,0,0,0,593.47,327.5Z"/><path class="cls-15" d="M461.84,246.25s3.57.05,5.25-1.09,5.65,3.62,1.75,6.14-7.93,5-10,4.68-3.24-.72-3.42-1.2-.24-8.9-.24-8.9Z"/><path class="cls-16" d="M463.32,239.9v9.6s-5.42,2.38-9,1L453,244.12Z"/><path class="cls-15" d="M477.21,251.76s3.57.06,5.25-1.08,5.65,3.61,1.75,6.13-7.94,5-10,4.68-3.24-.72-3.43-1.2-.24-8.89-.24-8.89Z"/><path class="cls-17" d="M476.38,210a44.82,44.82,0,0,1,2.68-4.14c1.19-1.56,2.79-4,1.31-5.26s-4.27-2.75-5.6-2.67-3.48,1.82-2.75,2.68-.62,5-.62,5Z"/><path class="cls-10" d="M425.48,182.62a5.39,5.39,0,0,1,5.57-1.52l4.18,1.25,11.42,5.32,7.9,4.14.67,25.26.8,12.33-4.69,4c-5.59,5.23-22.71-4-22.71-4-2.89-9.55-7.12-35.87-7.12-35.87A16.62,16.62,0,0,1,425.48,182.62Z"/><path class="cls-16" d="M454.13,222.91s12-2.52,19.29-3.18a4.69,4.69,0,0,1,5.11,4.46c.32,6.63.71,19.42-.24,29.37l-4.43,2.77a3.11,3.11,0,0,1-4.76-2.48l-.82-16.32c-.07-1.4-1.73.29-2.79,1.2-3.34,2.87-11.37,6.09-16.25,4.38,0,0-14.66-4.51-18.18-14.07Z"/><path class="cls-18" d="M447,246.25l4.14-2.13-2.37,36.41a2.26,2.26,0,0,1-.71,1.54,3.14,3.14,0,0,1-1.54.77c-1,.16-1.94-.94-1.85-2.25Z"/><path class="cls-18" d="M417.11,231l4-2.13-2.68,33.53a2.34,2.34,0,0,1-.72,1.57,3.12,3.12,0,0,1-1.2.69c-1.13.33-2.16-.91-2-2.37Z"/><path class="cls-18" d="M472.38,238.26l4.79,29.21a2,2,0,0,1-.47,1.76,2.11,2.11,0,0,1-.89.51c-.65.18-1.29-.38-1.46-1.25l-5.8-28.87Z"/><path class="cls-17" d="M439.08,160.49c2.73-.45,4.28-1,6.91-.19,4.44,1.31,6.8,5.52,7.87,9.72s1.39,10.43-1,14.37c-1.52,2.47-4.91,2-7.32,1.36-2.92-.77-6.74-2-9.14-3.84-3.33-2.52-5.1-8-5.3-12C430.89,166.45,434.92,161.17,439.08,160.49Z"/><path class="cls-19" d="M435.24,180.87a8.5,8.5,0,0,0,1.13,1c2.4,1.81,6.22,3.07,9.14,3.84a15,15,0,0,0,1.49.32l-.35,1.6a23.15,23.15,0,0,1-8.5.5,3.3,3.3,0,0,1-2.92-3.29v-4Z"/><path class="cls-20" d="M450.34,191.09s6.58-.18,8.21,4.42,5.31,13.79,5.31,13.79,5.59-4.33,7.67-4.87c0,0,4.59,2.35,5.68,4.87,0,0-6.95,12-15.42,15.5a59.36,59.36,0,0,1-13.64-20.94S442.68,194.79,450.34,191.09Z"/><path class="cls-21" d="M418.67,195c17.23,3.58,26,12.78,28.74,16.23a4.6,4.6,0,0,1,1,2.85v33.1c-23.08-3.85-32.93-17.43-32.93-17.43V197.56A2.68,2.68,0,0,1,418.67,195Z"/><path class="cls-21" d="M448.39,247.13s19.89-2,26-8.87c0,0,.45-4.62-1.44-4s-10.88,6.13-24.58,7.57Z"/><path class="cls-22" d="M452.49,162.55l3.07-1.29c-6.43-3.35-13.17-2.3-16.54-1.42a8.14,8.14,0,0,0-2.19.69c-2.94,1.51-5.94,5.92-5.76,9.35.2,4,2,9.51,5.3,12a24.21,24.21,0,0,0,7,3.23c.68-.33,1.7-4,1.7-4-1.39-.82-2.48-5.46-1-6.27s2.48,2.07,2.48,2.07a2.2,2.2,0,0,0,1.44-3,4.29,4.29,0,0,1-.32-1.67,1.92,1.92,0,0,1,1.79-1.88c.45,0,.88-.08,1.29-.14a44.25,44.25,0,0,1,7.35.21A26.54,26.54,0,0,0,452.49,162.55Z"/><path class="cls-23" d="M573.74,311.74s3.58.06,5.26-1.08,5.65,3.62,1.75,6.14-7.94,5-10,4.68-3.25-.72-3.43-1.2-.24-8.9-.24-8.9Z"/><path class="cls-15" d="M575.22,305.4V315s-5.42,2.38-9,1l-1.34-6.38Z"/><path class="cls-23" d="M589.11,317.26s3.58.06,5.26-1.08,5.65,3.61,1.74,6.13-7.93,5-10,4.68-3.25-.72-3.43-1.2-.24-8.89-.24-8.89Z"/><path class="cls-24" d="M537.9,248.61a5.81,5.81,0,0,1,5.72-1.81l3.51,1,11.42,5.31,7.9,4.15.68,25.26.8,12.33-4.69,4c-5.59,5.23-22.72-4-22.72-4-2.88-9.55-6-35.55-6-35.55C534.66,253.94,536.1,250.64,537.9,248.61Z"/><path class="cls-7" d="M566,288.41s13.7-2.8,21-3.46a4.68,4.68,0,0,1,5.11,4.45c.32,6.63-1,19.71-2,29.66l-4.42,2.77a3.12,3.12,0,0,1-4.77-2.48L580.19,303c-.07-1.39-1.73.3-2.79,1.21-3.34,2.86-11.37,6.09-16.26,4.38,0,0-14.66-4.51-18.18-14.07Z"/><path class="cls-18" d="M558.87,311.75l4.13-2.13L560.64,346a2.26,2.26,0,0,1-.71,1.55,3.07,3.07,0,0,1-1.54.76c-1,.17-1.94-.93-1.85-2.24Z"/><path class="cls-18" d="M529,296.46l4-2.14-2.68,33.54a2.35,2.35,0,0,1-.73,1.57,3.17,3.17,0,0,1-1.19.69c-1.13.33-2.17-.91-2-2.37Z"/><path class="cls-18" d="M584.29,303.76,589.08,333a2,2,0,0,1-.48,1.76,2.19,2.19,0,0,1-.88.51c-.65.18-1.29-.38-1.47-1.25l-5.79-28.88Z"/><path class="cls-17" d="M551,226c2.73-.45,4.27-1,6.91-.19,4.44,1.31,6.79,5.51,7.86,9.72s1.4,10.43-1,14.37c-1.51,2.46-4.9,2-7.32,1.36-2.92-.77-6.73-2-9.13-3.84-3.33-2.52-5.1-8-5.3-12C542.8,231.94,546.82,226.67,551,226Z"/><path class="cls-19" d="M557.41,251.25c-2.92-.77-6.73-2-9.13-3.84a10.1,10.1,0,0,1-1.14-1h0v4c.78,1.57,2.67,2.22,4.34,2.41,2.22.25,4,1.23,7.08.37l.35-1.59C558.39,251.48,557.88,251.38,557.41,251.25Z"/><path class="cls-21" d="M530.57,260.45c17.24,3.58,26,12.78,28.74,16.23a4.55,4.55,0,0,1,1,2.85v33.1c-23.08-3.85-32.94-17.43-32.94-17.43V263.06A2.67,2.67,0,0,1,530.57,260.45Z"/><path class="cls-21" d="M560.3,312.63s19.89-2,26-8.87c0,0,.45-4.62-1.44-4S574,305.9,560.3,307.34Z"/><path class="cls-10" d="M546.9,247.14l-.89,2.68s5.24,7.3,14,4.13l-1.27-1.58S550.57,252.59,546.9,247.14Z"/><path class="cls-17" d="M587.93,281.77a13.26,13.26,0,0,1,2.78-.34c1,.08,1.7,1.32,2.53,1.78a5.16,5.16,0,0,1,2.24,3.87c0,1.78-.81,3.73-1.78,3.73s-1.19.19-1.49-.54a33.81,33.81,0,0,0-2-3.23Z"/><path class="cls-10" d="M588.84,280.75c-2.07.54-13.59,1.38-13.59,1.38s-1.4-14.64-3-19.24a9.23,9.23,0,0,0-6-5.67c-7.66,3.69-3.67,13.26-3.67,13.26a113.67,113.67,0,0,1,5,18.71,3,3,0,0,0,3.42,2.43c10.2-1.66,19.8-4,19.8-4A13.11,13.11,0,0,0,588.84,280.75Z"/><path class="cls-25" d="M565.56,227.77c-6.29-5.24-14.92-2.37-14.92-2.37h0a8.15,8.15,0,0,0-1.9.63c-2.94,1.51-5.94,5.91-5.76,9.35.2,4,2,9.51,5.3,12a24,24,0,0,0,7,3.22c.68-.32,1.7-4,1.7-4-1.4-.81-2.48-5.45-1-6.26s2.48,2.07,2.48,2.07a2.2,2.2,0,0,0,1.44-3,5.12,5.12,0,0,1,0-3.51c6.22-.16,7,2,7,2A9.39,9.39,0,0,0,565.56,227.77Z"/><path class="cls-21" d="M399.52,282.07s3.58.06,5.26-1.08,5.65,3.62,1.74,6.14-7.93,5-10,4.68-3.25-.72-3.43-1.2-.24-8.9-.24-8.9Z"/><path class="cls-15" d="M401,275.73v9.6s-5.41,2.37-9,1L390.68,280Z"/><path class="cls-21" d="M414.89,287.59s3.58.06,5.26-1.09,5.65,3.62,1.74,6.14-7.93,5-10,4.68-3.25-.72-3.43-1.2-.24-8.9-.24-8.9Z"/><path class="cls-26" d="M363.17,218.44a5.39,5.39,0,0,1,5.56-1.51l4.19,1.24,11.41,5.32,7.9,4.14.68,25.27.8,12.33-4.69,4c-5.59,5.22-22.72-4-22.72-4-2.88-9.56-7.12-35.88-7.12-35.88A16.66,16.66,0,0,1,363.17,218.44Z"/><path class="cls-15" d="M391.81,258.74s12-2.52,19.29-3.18a4.7,4.7,0,0,1,5.12,4.45c.31,6.64.71,19.43-.25,29.38l-4.42,2.77a3.12,3.12,0,0,1-4.77-2.48L406,273.35c-.07-1.39-1.73.3-2.79,1.21-3.34,2.86-11.37,6.09-16.26,4.38,0,0-14.66-4.52-18.18-14.07Z"/><path class="cls-18" d="M384.65,282.08l4.13-2.13-2.36,36.4a2.22,2.22,0,0,1-.71,1.54,3,3,0,0,1-1.54.77c-1.05.17-1.94-.94-1.85-2.24Z"/><path class="cls-18" d="M354.8,266.78l4-2.12-2.68,33.52a2.35,2.35,0,0,1-.73,1.58,3.09,3.09,0,0,1-1.19.69c-1.13.32-2.17-.91-2.05-2.38Z"/><path class="cls-18" d="M410.07,274.09l4.79,29.21a2,2,0,0,1-.48,1.75,2.12,2.12,0,0,1-.88.52c-.65.18-1.29-.38-1.47-1.25l-5.79-28.88Z"/><path class="cls-17" d="M376.77,196.31c2.73-.44,4.27-1,6.91-.18,4.44,1.31,6.79,5.51,7.86,9.72s1.4,10.43-1,14.37c-1.52,2.46-4.9,2-7.32,1.36-2.92-.77-6.74-2-9.13-3.84-3.34-2.52-5.1-8-5.3-12C368.58,202.27,372.6,197,376.77,196.31Z"/><path class="cls-19" d="M372.92,216.7a10.1,10.1,0,0,0,1.14,1c2.39,1.81,6.21,3.07,9.13,3.84.47.12,1,.23,1.49.32l-.35,1.59c-3.1.85-4.72.16-6.93-.09-1.67-.19-4.48-1-4.48-2.69v-4Z"/><path class="cls-21" d="M356.36,230.78c17.23,3.58,26,12.78,28.73,16.23a4.53,4.53,0,0,1,1,2.85V283c-23.08-3.85-32.94-17.43-32.94-17.43V233.39A2.67,2.67,0,0,1,356.36,230.78Z"/><path class="cls-21" d="M386.08,283s19.89-2,26-8.87c0,0,.45-4.62-1.45-4s-10.88,6.13-24.57,7.57Z"/><path class="cls-17" d="M413.12,250.93a12.69,12.69,0,0,1,2.77-.33c1,.08,1.71,1.32,2.54,1.78a5.1,5.1,0,0,1,2.23,3.87c0,1.77-.8,3.72-1.77,3.72s-1.19.2-1.49-.53a32.66,32.66,0,0,0-2-3.24Z"/><path class="cls-10" d="M412,250.4l2-.42s1.88,3.52,1.74,6.41l-1.78.41Z"/><path class="cls-27" d="M412.62,250.07c-2.07.54-13.59,1.38-13.59,1.38s-1.4-14.65-3-19.24a9.23,9.23,0,0,0-6-5.68c-7.66,3.7-3.67,13.26-3.67,13.26a113.46,113.46,0,0,1,5,18.72,3,3,0,0,0,3.42,2.42c10.2-1.66,19.81-4,19.81-4A13,13,0,0,0,412.62,250.07Z"/><path class="cls-28" d="M391.34,205.17s7.64-8.06,0-10.28-14.93-2.11-20.43.59-4.86,10.77-3.84,12.74,3.71,6.71,6.27,9a.9.9,0,0,0,.33.18l.39.33a24.08,24.08,0,0,0,7,3.22c.68-.32,1.7-4.05,1.7-4.05-1.4-.81-2.48-5.45-1-6.26s2.48,2.07,2.48,2.07a2.21,2.21,0,0,0,1.44-3,5.12,5.12,0,0,1,0-3.51A12.75,12.75,0,0,0,391.34,205.17Z"/><path class="cls-10" d="M372.92,217.44l-1.24,2.73s4.47,7.38,13.59,3.81l-.68-1.64S376.59,222.88,372.92,217.44Z"/><path class="cls-23" d="M511.43,347.57s3.57.06,5.26-1.08,5.65,3.61,1.74,6.14-7.93,5-10,4.67-3.25-.71-3.43-1.19-.24-8.9-.24-8.9Z"/><path class="cls-15" d="M512.91,341.23v9.6s-5.42,2.37-9,1l-1.35-6.39Z"/><path class="cls-23" d="M526.8,353.08s3.57.06,5.26-1.08,5.65,3.62,1.74,6.14-7.93,5-10,4.68-3.24-.72-3.42-1.2-.24-8.9-.24-8.9Z"/><path class="cls-17" d="M526,311.32a46.31,46.31,0,0,1,2.68-4.14c1.19-1.55,2.79-4,1.31-5.25s-4.27-2.76-5.6-2.68-3.47,1.82-2.75,2.68S521,307,521,307Z"/><path class="cls-29" d="M475.07,283.94a5.41,5.41,0,0,1,5.57-1.51l4.18,1.24L496.24,289l7.9,4.14.67,25.26.8,12.34-4.68,4c-5.59,5.23-22.72-4-22.72-4-2.88-9.56-7.12-35.88-7.12-35.88A16.66,16.66,0,0,1,475.07,283.94Z"/><path class="cls-15" d="M503.72,324.24s12-2.52,19.29-3.18a4.7,4.7,0,0,1,5.12,4.45c.31,6.63.71,19.42-.25,29.37l-4.43,2.78a3.11,3.11,0,0,1-4.76-2.49l-.82-16.32c-.06-1.39-1.73.3-2.79,1.21-3.33,2.86-11.37,6.09-16.25,4.38,0,0-14.66-4.52-18.18-14.07Z"/><path class="cls-18" d="M496.55,347.58l4.14-2.14-2.36,36.41a2.26,2.26,0,0,1-.71,1.54,3,3,0,0,1-1.55.77c-1,.17-1.93-.94-1.85-2.24Z"/><path class="cls-18" d="M466.7,332.28l4-2.13-2.68,33.53a2.39,2.39,0,0,1-.72,1.58,3.09,3.09,0,0,1-1.2.68c-1.12.34-2.16-.9-2-2.37Z"/><path class="cls-18" d="M522,339.59l4.8,29.21a2,2,0,0,1-.48,1.75,2.14,2.14,0,0,1-.89.52c-.65.17-1.29-.39-1.46-1.26l-5.8-28.87Z"/><path class="cls-17" d="M488.67,261.81c2.73-.45,4.28-1,6.92-.19,4.43,1.31,6.79,5.52,7.86,9.73s1.4,10.43-1,14.37c-1.52,2.46-4.9,2-7.32,1.36-2.92-.78-6.74-2-9.13-3.85-3.34-2.52-5.11-8-5.31-12C480.49,267.77,484.51,262.49,488.67,261.81Z"/><path class="cls-19" d="M484.83,282.19a7.94,7.94,0,0,0,1.14,1c2.39,1.81,6.21,3.07,9.13,3.85.47.12,1,.23,1.49.32l-.35,1.59a23.16,23.16,0,0,1-8.5.51,3.3,3.3,0,0,1-2.92-3.29v-4Z"/><path class="cls-30" d="M499.93,292.42s6.59-.18,8.21,4.41,5.32,13.8,5.32,13.8,5.58-4.33,7.66-4.87c0,0,4.59,2.34,5.68,4.87,0,0-6.94,12-15.42,15.5a59.36,59.36,0,0,1-13.64-20.94S492.27,296.11,499.93,292.42Z"/><path class="cls-21" d="M468.26,296.28c17.24,3.58,26,12.77,28.74,16.23a4.56,4.56,0,0,1,1,2.85v33.09C474.91,344.61,465.05,331,465.05,331V298.89A2.67,2.67,0,0,1,468.26,296.28Z"/><path class="cls-21" d="M498,348.45s19.89-2,26-8.86c0,0,.45-4.62-1.44-4s-10.88,6.14-24.58,7.58Z"/><path class="cls-31" d="M503.24,270.67s4.88-4.23,1.49-6.53c-1.05-.72-2.16-.79-3-1.82a10,10,0,0,0-3.13-3c-1.18-.61-2.2.57-3.3.87-2.08.55-3.64-1.85-5.67-1.3a7.22,7.22,0,0,0-1.83,1.11c-1.58,1-5.58.19-5.41,2.87a4.07,4.07,0,0,1-1.8,3.66,3.52,3.52,0,0,0-1.78,3.57,9.18,9.18,0,0,0,.84,1.69,7.88,7.88,0,0,1,.44,2.26,8.37,8.37,0,0,0,1.59,4.6A18.15,18.15,0,0,0,493,286.46c.68-.33,1.71-4,1.71-4-1.4-.81-2.48-5.45-1-6.26s2.48,2.07,2.48,2.07a2.2,2.2,0,0,0,1.45-3,5.05,5.05,0,0,1,0-3.51A12.7,12.7,0,0,0,503.24,270.67Z"/><path class="cls-23" d="M329,323.37s3.58.06,5.26-1.08,5.65,3.62,1.74,6.13-7.93,5.05-10,4.68-3.25-.72-3.43-1.2-.24-8.89-.24-8.89Z"/><path class="cls-15" d="M330.48,317v9.6s-5.42,2.37-9,1l-1.35-6.39Z"/><path class="cls-23" d="M344.37,328.89s3.57.05,5.26-1.09,5.64,3.62,1.74,6.14-7.93,5-10,4.68-3.24-.72-3.42-1.2-.24-8.9-.24-8.9Z"/><path class="cls-17" d="M343.54,287.13a44.41,44.41,0,0,1,2.68-4.15c1.19-1.55,2.8-4,1.31-5.26s-4.27-2.75-5.6-2.67-3.47,1.83-2.75,2.68-.62,5.06-.62,5.06Z"/><path class="cls-32" d="M292.64,259.74a5.41,5.41,0,0,1,5.57-1.51l4.18,1.24,11.42,5.32,7.9,4.14.68,25.27.79,12.33-4.68,4c-5.59,5.22-22.72-4-22.72-4-2.88-9.56-7.12-35.88-7.12-35.88A16.66,16.66,0,0,1,292.64,259.74Z"/><path class="cls-15" d="M321.29,300s12-2.52,19.29-3.18a4.68,4.68,0,0,1,5.11,4.45c.32,6.64.72,19.42-.24,29.38L341,333.46a3.11,3.11,0,0,1-4.76-2.49l-.82-16.32c-.07-1.39-1.73.3-2.79,1.21-3.33,2.86-11.37,6.09-16.25,4.38,0,0-14.66-4.52-18.18-14.07Z"/><path class="cls-18" d="M314.12,323.38l4.14-2.14-2.37,36.41a2.18,2.18,0,0,1-.71,1.54,3.06,3.06,0,0,1-1.54.77c-1,.17-1.93-.94-1.85-2.24Z"/><path class="cls-18" d="M284.27,308.08l4-2.13-2.68,33.53a2.37,2.37,0,0,1-.72,1.58,3.12,3.12,0,0,1-1.2.69c-1.12.33-2.16-.91-2-2.38Z"/><path class="cls-18" d="M339.54,315.39l4.8,29.21a2,2,0,0,1-.48,1.75,2.14,2.14,0,0,1-.89.52c-.65.17-1.29-.39-1.46-1.26l-5.79-28.87Z"/><path class="cls-17" d="M306.25,237.61c2.72-.45,4.27-1,6.91-.19,4.43,1.31,6.79,5.52,7.86,9.73s1.4,10.43-1,14.37c-1.52,2.46-4.9,2-7.32,1.36-2.92-.78-6.74-2-9.13-3.84-3.34-2.52-5.11-8-5.31-12C298.06,243.57,302.08,238.29,306.25,237.61Z"/><path class="cls-22" d="M304,237.66c2.46-1.26,6.52-1,9.16-.24,4.19,1.24,6.49,5.15,7.65,9.05a12.59,12.59,0,0,1-5.64,1,5.15,5.15,0,0,0,0,3.52,2.21,2.21,0,0,1-1.45,3s-1-2.88-2.47-2.07-.41,5.45,1,6.26c0,0-1,3.72-1.71,4.05a24,24,0,0,1-7-3.22c-3.34-2.52-5.11-8-5.31-12C298.06,243.57,301.06,239.17,304,237.66Z"/><path class="cls-19" d="M302.4,258a9.31,9.31,0,0,0,1.14,1c2.39,1.8,6.21,3.06,9.13,3.84.47.12,1,.23,1.49.32l-.35,1.59a23.17,23.17,0,0,1-8.5.51,3.31,3.31,0,0,1-2.92-3.29v-4Z"/><path class="cls-33" d="M317.51,268.22s6.57-.18,8.2,4.41,5.32,13.8,5.32,13.8,5.58-4.33,7.66-4.87c0,0,4.6,2.34,5.68,4.87,0,0-6.94,12-15.42,15.5A59.36,59.36,0,0,1,315.31,281S309.84,271.91,317.51,268.22Z"/><path class="cls-21" d="M285.83,272.08c17.24,3.58,26,12.77,28.74,16.22a4.61,4.61,0,0,1,1,2.86v33.1c-23.07-3.85-32.93-17.43-32.93-17.43V274.69A2.67,2.67,0,0,1,285.83,272.08Z"/><path class="cls-21" d="M315.55,324.26s19.89-2,26-8.87c0,0,.45-4.63-1.44-4s-10.88,6.13-24.58,7.58Z"/><path class="cls-17" d="M454,357.63a12.18,12.18,0,0,1,2.78-.33c1,.07,1.7,1.31,2.53,1.77a5.11,5.11,0,0,1,2.24,3.87c0,1.78-.8,3.72-1.78,3.72s-1.19.2-1.48-.53a33.91,33.91,0,0,0-2-3.24Z"/><path class="cls-7" d="M440.91,388.87s3.57.06,5.25-1.08,5.65,3.61,1.75,6.13-7.93,5-10,4.69-3.24-.73-3.42-1.21-.24-8.89-.24-8.89Z"/><path class="cls-15" d="M442.39,382.53v9.6s-5.42,2.37-9,1l-1.35-6.39Z"/><path class="cls-7" d="M456.27,394.38s3.58.06,5.26-1.08,5.65,3.62,1.75,6.14-7.94,5-10,4.68-3.25-.72-3.43-1.21-.24-8.89-.24-8.89Z"/><path class="cls-7" d="M404.55,325.24a5.37,5.37,0,0,1,5.56-1.51L414.3,325l11.42,5.32,5.17,2.93,3.4,26.47.8,12.34-4.69,4c-5.59,5.23-22.71-4-22.71-4-2.89-9.56-7.13-35.88-7.13-35.88A16.66,16.66,0,0,1,404.55,325.24Z"/><path class="cls-15" d="M433.2,365.53s13.19-2.51,20.52-3.17a4.69,4.69,0,0,1,5.11,4.45c.31,6.63-.52,19.42-1.47,29.37L452.93,399a3.11,3.11,0,0,1-4.76-2.49l-.82-16.32c-.07-1.39-1.73.3-2.79,1.21-3.34,2.86-11.37,6.09-16.26,4.38,0,0-14.65-4.52-18.17-14.08Z"/><path class="cls-18" d="M426,388.88l4.14-2.14-2.37,36.41a2.22,2.22,0,0,1-.71,1.54,3.14,3.14,0,0,1-1.54.77c-1,.17-1.94-.94-1.85-2.24Z"/><path class="cls-18" d="M396.18,373.59l4-2.14L397.53,405a2.39,2.39,0,0,1-.72,1.58,3.09,3.09,0,0,1-1.2.68c-1.13.33-2.17-.9-2-2.37Z"/><path class="cls-18" d="M451.45,380.89l4.79,29.2a2,2,0,0,1-.48,1.76,2,2,0,0,1-.88.51c-.65.18-1.29-.38-1.46-1.25l-5.8-28.87Z"/><path class="cls-17" d="M418.15,303.11c2.73-.45,4.27-1,6.91-.19,4.44,1.31,6.79,5.52,7.87,9.73s1.39,10.42-1,14.37c-1.51,2.46-4.9,2-7.31,1.36-2.92-.78-6.74-2-9.14-3.85-3.33-2.52-5.1-8-5.3-12C410,309.07,414,303.79,418.15,303.11Z"/><path class="cls-19" d="M414.31,323.49a7.87,7.87,0,0,0,1.13,1c2.4,1.81,6.22,3.07,9.14,3.85.46.12,1,.23,1.49.32l-.35,1.59c-3.11.85-5.42-.46-7.63-.71-1.67-.19-3.31-.58-3.79-2.07v-4Z"/><path class="cls-21" d="M397.74,337.57c17.23,3.58,26,12.78,28.73,16.23a4.56,4.56,0,0,1,1,2.86v33.09c-23.08-3.84-32.93-17.42-32.93-17.42V340.19A2.68,2.68,0,0,1,397.74,337.57Z"/><path class="cls-21" d="M427.46,389.75s19.89-2,26-8.86c0,0,.45-4.63-1.44-4s-10.88,6.13-24.58,7.58Z"/><path class="cls-31" d="M435.09,302.52a4.92,4.92,0,0,1-7.09,0c-3.9-3.43-19.22-2.39-18.37,11.69l1.84,4.48h0a13.14,13.14,0,0,0,4,5.84,23.83,23.83,0,0,0,7,3.23c.68-.33,1.7-4.05,1.7-4.05-1.39-.81-2.48-5.45-1-6.26s2.48,2.07,2.48,2.07a2.2,2.2,0,0,0,1.44-3,5.15,5.15,0,0,1,0-3.52,12.57,12.57,0,0,0,5.65-1S437.12,308,435.09,302.52Z"/><path class="cls-10" d="M414.07,324.66s2.87,4,11.88,4.58l1.38,1.9s-7.76-.24-10.44-1.29c-2.45-1-3.11-1.76-3.16-3.53Z"/><path class="cls-10" d="M452.92,357.09l2-.42s1.88,3.52,1.73,6.4l-1.77.42Z"/><path class="cls-34" d="M453.53,356.76c-2.08.54-13.59,1.38-13.59,1.38s-1.4-14.64-3-19.24a9.21,9.21,0,0,0-6-5.68c-7.67,3.7-3.67,13.27-3.67,13.27a114.45,114.45,0,0,1,5,18.71,3,3,0,0,0,3.42,2.42c10.2-1.66,19.8-4,19.8-4A13.06,13.06,0,0,0,453.53,356.76Z"/><path class="cls-14" d="M596.21,192.64c17.08,0,30.92,4.22,30.92,9.42s-13.84,9.41-30.92,9.41-30.93-4.21-30.93-9.41S579.13,192.64,596.21,192.64Z"/><path class="cls-17" d="M564.82,128.79a3.09,3.09,0,0,0,.25-1.14c0-.44-.36-.14-.57.11-.6.71-1,1.56-1.65,2.25-.19.21-.66.49-.7,0-.11-1.35.76-2.78,1.37-3.93a21.42,21.42,0,0,1,1.45-2.32c.29-.4.59-.78.9-1.15.18-.22.67-.59.71-.88a2.45,2.45,0,0,0,0-.38l5.72.69a13,13,0,0,1,.22,2.43,8.31,8.31,0,0,1-1.1,4.55,6.92,6.92,0,0,0-.44,3.14c0,1.14.74,1.89.25,3s-3.64,1.35-5.49-.36a5,5,0,0,1-1.25-3.55,9.25,9.25,0,0,1,.16-2A3,3,0,0,1,564.82,128.79Z"/><path class="cls-10" d="M566.07,119.7l-.42,2.15a15.31,15.31,0,0,0,7.48,1.4l.59-2.51Z"/><path class="cls-26" d="M572.37,70.12s-2.7,28.74-6.72,50.08a12.15,12.15,0,0,0,8.07,1.47l4.4-23.46Z"/><path class="cls-19" d="M609.44,114.41a2.54,2.54,0,0,0-1.61,1.66c-.59,1.46-2.55,3.88-3.21,3.5s0-6.45,0-6.45l1.16-2.63Z"/><polygon class="cls-10" points="611.04 114.21 609.85 115.75 604.62 110.3 606.12 108.58 611.04 114.21"/><path class="cls-15" d="M614.63,190.07s.39,4.65,2.43,6.31c5,4,7.19,7.85,2.76,9.18s-13.68-3.73-14.57-7.13l.65-10.14Z"/><path class="cls-15" d="M578.39,190.07s-.39,4.65-2.44,6.31c-5,4-7.18,7.85-2.75,9.18s13.68-3.73,14.57-7.13l-.65-10.14Z"/><path class="cls-16" d="M574.7,113.59V194s7.75,3,14.18-1c0,0-.33-38.4,1-58.35,0,0,1-1.32,1.73,1.07,0,0,9.42,39.31,11.84,58,0,0,7.48,1.76,13.41-1.75,0,0-5.93-34.3-6.59-38.7s-5.7-37.74-5.7-37.74S583.55,110.74,574.7,113.59Z"/><path class="cls-19" d="M601.56,55.13l-2.34.62-.27,3.8C602,59.74,601.56,55.13,601.56,55.13Z"/><path class="cls-19" d="M580.69,55.13l2.34.62.27,3.8C580.26,59.74,580.69,55.13,580.69,55.13Z"/><path class="cls-35" d="M584,64.06s4.81-1.59,14-.14l-.77,2.22L587,68.21l-2.5-2.58Z"/><path class="cls-27" d="M597.81,65.37s12,2.53,13.22,3.85S609.27,88.46,608,92.3s-3.39,23.27-3.39,23.27-13.54,5.77-29.86-2c0,0-.78-14-1.46-21.27-.61-6.45-.87-22.2-.87-22.2a25.35,25.35,0,0,1,11.73-4.28A80,80,0,0,1,597.81,65.37Z"/><path class="cls-27" d="M611,69.22s12.49,19.1,16.11,28.67L611,114.9l-5.49-6.07,10.75-10.89-6.13-10.8-7.91-10.81Z"/><path class="cls-19" d="M597.53,56.36,597,65.84s-4.52,4.37-12.09,0V55.7Z"/><path class="cls-17" d="M600.08,52.7c0,6.92-4.05,12.52-9.05,12.52s-9-5.6-9-12.52,4-12.53,9-12.53S600.08,45.78,600.08,52.7Z"/><path class="cls-22" d="M590.68,49.23s7-3.4,7.28,7.12a5.06,5.06,0,0,0,4.17-.71s3.4-18.35-11.36-16.63c0,0-12.65-1.15-10.76,16.94a5.89,5.89,0,0,0,4.66.24S583.78,47.93,590.68,49.23Z"/><polygon class="cls-19" points="585.1 66.06 591.11 70.77 595.83 67.33 595.21 66.19 585.1 66.06"/><polygon class="cls-20" points="598.02 63.92 591.11 70.77 596.32 74.05 598.84 65.59 598.02 63.92"/><polygon class="cls-20" points="584.04 64.06 591.11 70.77 585.9 74.05 582.79 65.95 584.04 64.06"/><path class="cls-20" d="M574.25,104.5q0,.82.09,1.62a63.18,63.18,0,0,0,31,1.41q.09-.82.18-1.68C588.54,108.77,578.47,106.15,574.25,104.5Z"/><path class="cls-20" d="M574.49,109.16c0,.58,0,1.12.08,1.61a63.18,63.18,0,0,0,30.31,1.43c0-.52.11-1.09.17-1.69C588.66,113.25,578.8,110.8,574.49,109.16Z"/><path class="cls-17" d="M605.53,110.53a3.28,3.28,0,0,1,.47,1.78c-.47,2.8.28,3,.41,4.5a4,4,0,0,1-.66,2.58c-.31.5-.89,1.38-1.58,1.31-1.42-.14-2.94-2.75-2.34-4a5.14,5.14,0,0,0,.52-3.15c-.18-1.13.25-1.52,1.16-2.13C603.67,111.34,605.35,110.28,605.53,110.53Z"/><polygon class="cls-10" points="363.04 96.2 372.59 90.68 372.59 138.89 363.04 144.41 363.04 96.2"/><polygon class="cls-10" points="376.62 88.4 386.17 82.88 386.17 131.09 376.62 136.62 376.62 88.4"/><polygon class="cls-10" points="390.21 80.6 399.76 75.08 399.76 123.29 390.21 128.82 390.21 80.6"/><polygon class="cls-10" points="403.79 72.8 413.34 67.28 413.34 115.49 403.79 121.02 403.79 72.8"/><polygon class="cls-10" points="477.51 11.36 477.51 14.37 450.5 30 450.5 26.99 477.51 11.36"/><polygon class="cls-10" points="477.51 20.15 450.5 35.77 450.5 32.76 477.51 17.14 477.51 20.15"/><polygon class="cls-10" points="477.51 25.92 450.5 41.55 450.5 38.54 477.51 22.91 477.51 25.92"/><polygon class="cls-10" points="477.51 31.7 450.5 47.33 450.5 44.32 477.51 28.69 477.51 31.7"/><polygon class="cls-10" points="477.51 41.55 477.51 44.56 450.5 60.18 450.5 57.17 477.51 41.55"/><polygon class="cls-10" points="477.51 50.33 450.5 65.96 450.5 62.95 477.51 47.33 477.51 50.33"/><polygon class="cls-10" points="477.51 56.11 450.5 71.74 450.5 68.73 477.51 53.1 477.51 56.11"/><polygon class="cls-10" points="477.51 61.88 450.5 77.51 450.5 74.5 477.51 58.88 477.51 61.88"/><polygon class="cls-10" points="225.21 201.19 225.21 204.19 198.2 219.82 198.2 216.81 225.21 201.19"/><polygon class="cls-10" points="225.21 209.97 198.2 225.6 198.2 222.59 225.21 206.96 225.21 209.97"/><polygon class="cls-10" points="225.21 215.75 198.2 231.37 198.2 228.36 225.21 212.74 225.21 215.75"/><polygon class="cls-10" points="225.21 221.52 198.2 237.15 198.2 234.14 225.21 218.51 225.21 221.52"/><polygon class="cls-10" points="225.21 228.82 225.21 231.83 198.2 247.45 198.2 244.44 225.21 228.82"/><polygon class="cls-10" points="225.21 237.6 198.2 253.23 198.2 250.22 225.21 234.59 225.21 237.6"/><polygon class="cls-10" points="225.21 243.38 198.2 259.01 198.2 256 225.21 240.37 225.21 243.38"/><polygon class="cls-10" points="225.21 249.16 198.2 264.78 198.2 261.77 225.21 246.15 225.21 249.16"/><polygon class="cls-10" points="195.72 279.64 195.72 285.07 314.68 216.25 314.68 210.81 195.72 279.64"/><path class="cls-10" d="M290.73,172.14c-9.11,5.26-16.47,18-16.44,28.47s7.44,14.69,16.55,9.43,16.47-18,16.44-28.47S299.84,166.88,290.73,172.14Z"/><polygon class="cls-36" points="634.41 35.6 761.9 191.82 761.9 109.36 634.41 35.6"/></g></g></g></svg>